NewsreaderCaption-SemiBoldItalic.ufo
<glyph name="exclam" format="2">
	<unicode hex="0021"/>
	<advance width="681.944"/>
	<outline>
		<contour>
			<point x="775.68" y="1355.896" type="line" smooth="yes"/>
			<point x="792.888" y="1405.552"/>
			<point x="774.584" y="1432.576"/>
			<point x="616.592" y="1432.576" type="curve" smooth="yes"/>
			<point x="461.176" y="1432.576"/>
			<point x="427.392" y="1405.552"/>
			<point x="414.152" y="1355.896" type="curve" smooth="yes"/>
			<point x="392.728" y="1277.96" type="line" smooth="yes"/>
			<point x="373.4" y="1202.952"/>
			<point x="280.44" y="683.096"/>
			<point x="239.24" y="488.76" type="curve"/>
			<point x="419.928" y="488.76" type="line"/>
			<point x="498.208" y="683.096"/>
			<point x="722.872" y="1202.952"/>
			<point x="749.288" y="1277.96" type="curve" smooth="yes"/>
		</contour>
		<contour>
			<point x="278.824" y="323.328" type="curve" smooth="yes"/>
			<point x="109.912" y="323.328"/>
			<point x="35.312" y="221.248"/>
			<point x="35.312" y="101.776" type="curve" smooth="yes"/>
			<point x="35.312" y="22.088"/>
			<point x="84.488" y="-23.088"/>
			<point x="179.384" y="-23.088" type="curve" smooth="yes"/>
			<point x="348.296" y="-23.088"/>
			<point x="422.896" y="78.992"/>
			<point x="422.896" y="197.888" type="curve" smooth="yes"/>
			<point x="422.896" y="278.152"/>
			<point x="373.72" y="323.328"/>
		</contour>
	</outline>
</glyph>
<glyph name="quotesingle" format="2">
	<unicode hex="0027"/>
	<advance width="496.272"/>
	<outline>
		<contour>
			<point x="268.224" y="878.912" type="line"/>
			<point x="434.28" y="878.912" type="line"/>
			<point x="637.816" y="1360.192" type="line"/>
			<point x="654.328" y="1414" type="line"/>
			<point x="376.368" y="1414" type="line"/>
			<point x="359.856" y="1360.192" type="line"/>
		</contour>
	</outline>
</glyph>
<glyph name="parenleft" format="2">
	<unicode hex="0028"/>
	<advance width="731.216"/>
	<outline>
		<contour>
			<point x="929.4" y="1378.408" type="curve"/>
			<point x="850.016" y="1489.968" type="line"/>
			<point x="226.216" y="1086.56"/>
			<point x="107.336" y="762.624"/>
			<point x="107.336" y="410.52" type="curve" smooth="yes"/>
			<point x="107.336" y="215.224"/>
			<point x="175.088" y="13.232"/>
			<point x="334.288" y="-245.696" type="curve"/>
			<point x="473.296" y="-171.432" type="line"/>
			<point x="389.352" y="9.144"/>
			<point x="358.2" y="156.088"/>
			<point x="358.2" y="351.504" type="curve" smooth="yes"/>
			<point x="358.2" y="697.048"/>
			<point x="480.064" y="1042.672"/>
		</contour>
	</outline>
</glyph>
<glyph name="asterisk" format="2">
  <advance width="954.312"/>
  <unicode hex="002A"/>
  <outline>
    <contour>
      <point x="837.16" y="759.376" type="line"/>
      <point x="762.672" y="992.624" type="line"/>
      <point x="1004.2239999999999" y="1024.136" type="line"/>
      <point x="994.2560000000001" y="1162.48" type="line"/>
      <point x="748.856" y="1162.6000000000001" type="line"/>
      <point x="793.952" y="1402.12" type="line"/>
      <point x="659.456" y="1435.328" type="line"/>
      <point x="585.304" y="1202.9279999999999" type="line"/>
      <point x="369.24" y="1318.328" type="line"/>
      <point x="296.856" y="1202.224" type="line"/>
      <point x="494.68" y="1057.888" type="line"/>
      <point x="317.976" y="890.008" type="line"/>
      <point x="405.872" y="784.72" type="line"/>
      <point x="605.088" y="927.0880000000001" type="line"/>
      <point x="710.36" y="707.384" type="line"/>
    </contour>
  </outline>
</glyph>
<glyph name="plus" format="2">
	<unicode hex="002B"/>
	<advance width="1200"/>
	<outline>
		<contour>
			<point x="375.624" y="78.128" type="line"/>
			<point x="554.016" y="78.128" type="line"/>
			<point x="823.496" y="957.808" type="line"/>
			<point x="644.528" y="957.808" type="line"/>
		</contour>
		<contour>
			<point x="201.544" y="610.496" type="line"/>
			<point x="144.888" y="425.44" type="line"/>
			<point x="997.576" y="425.44" type="line"/>
			<point x="1054.232" y="610.496" type="line"/>
		</contour>
	</outline>
</glyph>
<glyph name="comma" format="2">
	<unicode hex="002C"/>
	<advance width="588.424"/>
	<outline>
		<contour>
			<point x="-154.728" y="-268.696" type="curve"/>
			<point x="-92.552" y="-374.472" type="line"/>
			<point x="294.088" y="-151.416"/>
			<point x="386.2" y="-1.368"/>
			<point x="386.2" y="178.28" type="curve" smooth="yes"/>
			<point x="386.2" y="280.328"/>
			<point x="325.752" y="332.168"/>
			<point x="222.192" y="332.168" type="curve" smooth="yes"/>
			<point x="95.872" y="332.168"/>
			<point x="13.76" y="237.088"/>
			<point x="13.76" y="151.888" type="curve" smooth="yes"/>
			<point x="13.76" y="109.68"/>
			<point x="109.808" y="79.56"/>
			<point x="109.808" y="-5.128" type="curve" smooth="yes"/>
			<point x="109.808" y="-73.792"/>
			<point x="58.656" y="-139.848"/>
		</contour>
	</outline>
</glyph>
<glyph name="hyphen" format="2">
	<unicode hex="002D"/>
	<advance width="835.336"/>
	<outline>
		<contour>
			<point x="174.728" y="630.8" type="line"/>
			<point x="109.224" y="413.2" type="line"/>
			<point x="662.184" y="413.2" type="line"/>
			<point x="728.688" y="630.8" type="line"/>
		</contour>
	</outline>
</glyph>
<glyph name="period" format="2">
	<unicode hex="002E"/>
	<advance width="588.808"/>
	<outline>
		<contour>
			<point x="255.36" y="345.376" type="curve" smooth="yes"/>
			<point x="96.624" y="345.376"/>
			<point x="7.184" y="237.36"/>
			<point x="7.184" y="107.712" type="curve" smooth="yes"/>
			<point x="7.184" y="24.208"/>
			<point x="57.208" y="-23.088"/>
			<point x="154.224" y="-23.088" type="curve" smooth="yes"/>
			<point x="312.96" y="-23.088"/>
			<point x="402.4" y="84.928"/>
			<point x="402.4" y="214" type="curve" smooth="yes"/>
			<point x="402.4" y="298.08"/>
			<point x="352.376" y="345.376"/>
		</contour>
	</outline>
</glyph>
<glyph name="slash" format="2">
  <advance width="924.928"/>
  <unicode hex="002F"/>
  <outline>
    <contour>
      <point x="-83.968" y="0.0" type="line"/>
      <point x="144.168" y="0.0" type="line"/>
      <point x="1126.472" y="1414.0" type="line"/>
      <point x="898.912" y="1414.0" type="line"/>
    </contour>
  </outline>
</glyph>
<glyph name="zero" format="2">
	<unicode hex="0030"/>
	<advance width="1406"/>
	<outline>
		<contour>
			<point x="429.664" y="402.816" type="curve" smooth="yes"/>
			<point x="429.664" y="763.832"/>
			<point x="622.288" y="1243.816"/>
			<point x="911.008" y="1243.816" type="curve" smooth="yes"/>
			<point x="1033.632" y="1243.816"/>
			<point x="1091.064" y="1176.048"/>
			<point x="1091.064" y="1011.76" type="curve" smooth="yes"/>
			<point x="1091.064" y="650.744"/>
			<point x="898.44" y="170.76"/>
			<point x="609.72" y="170.76" type="curve" smooth="yes"/>
			<point x="487.096" y="170.76"/>
			<point x="429.664" y="238.528"/>
		</contour>
		<contour>
			<point x="927.584" y="1438.24" type="curve" smooth="yes"/>
			<point x="336.206709347" y="1438.24"/>
			<point x="117.152" y="810.688"/>
			<point x="117.152" y="444.768" type="curve" smooth="yes"/>
			<point x="117.152" y="162.624"/>
			<point x="260.4536706444" y="-23.664"/>
			<point x="593.144" y="-23.664" type="curve" smooth="yes"/>
			<point x="1184.521290653" y="-23.664"/>
			<point x="1403.576" y="603.888"/>
			<point x="1403.576" y="969.808" type="curve" smooth="yes"/>
			<point x="1403.576" y="1251.952"/>
			<point x="1260.2743293556" y="1438.24"/>
		</contour>
	</outline>
</glyph>
<glyph name="one" format="2">
	<unicode hex="0031"/>
	<advance width="1406"/>
	<outline>
		<contour>
			<point x="496.536" y="167.928" type="line"/>
			<point x="209.616" y="102.056" type="line"/>
			<point x="176.376" y="0" type="line"/>
			<point x="1035.784" y="0" type="line"/>
			<point x="1068.024" y="102.056" type="line"/>
			<point x="823.432" y="168.352" type="line"/>
			<point x="1208.528" y="1425.52" type="line"/>
			<point x="958.68" y="1425.52" type="line"/>
			<point x="407.424" y="1200.448" type="line"/>
			<point x="447.664" y="1039.28" type="line"/>
			<point x="921.656" y="1172.76" type="line"/>
			<point x="845.632" y="1308.52" type="line"/>
		</contour>
	</outline>
</glyph>
<glyph name="colon" format="2">
	<unicode hex="003A"/>
	<advance width="652.696"/>
	<outline>
		<contour>
			<point x="259.976" y="335.624" type="curve" smooth="yes"/>
			<point x="100.392" y="335.624"/>
			<point x="21.128" y="228.032"/>
			<point x="21.128" y="111.528" type="curve" smooth="yes"/>
			<point x="21.128" y="28.872"/>
			<point x="74.544" y="-23.088"/>
			<point x="174.528" y="-23.088" type="curve" smooth="yes"/>
			<point x="334.112" y="-23.088"/>
			<point x="413.376" y="84.504"/>
			<point x="413.376" y="200.432" type="curve" smooth="yes"/>
			<point x="413.376" y="283.664"/>
			<point x="359.96" y="335.624"/>
		</contour>
		<contour>
			<point x="476.864" y="1056.72" type="curve" smooth="yes"/>
			<point x="317.28" y="1056.72"/>
			<point x="238.016" y="949.128"/>
			<point x="238.016" y="832.624" type="curve" smooth="yes"/>
			<point x="238.016" y="749.968"/>
			<point x="291.432" y="698.008"/>
			<point x="391.416" y="698.008" type="curve" smooth="yes"/>
			<point x="551" y="698.008"/>
			<point x="630.264" y="805.6"/>
			<point x="630.264" y="921.528" type="curve" smooth="yes"/>
			<point x="630.264" y="1004.76"/>
			<point x="576.848" y="1056.72"/>
		</contour>
	</outline>
</glyph>
<glyph name="semicolon" format="2">
	<unicode hex="003B"/>
	<advance width="656.824"/>
	<outline>
		<contour>
			<point x="-140.544" y="-268.696" type="curve"/>
			<point x="-78.368" y="-374.472" type="line"/>
			<point x="308.272" y="-151.416"/>
			<point x="400.384" y="-1.368"/>
			<point x="400.384" y="178.28" type="curve" smooth="yes"/>
			<point x="400.384" y="280.328"/>
			<point x="339.936" y="332.168"/>
			<point x="236.376" y="332.168" type="curve" smooth="yes"/>
			<point x="110.056" y="332.168"/>
			<point x="27.944" y="237.088"/>
			<point x="27.944" y="151.888" type="curve" smooth="yes"/>
			<point x="27.944" y="109.68"/>
			<point x="123.992" y="79.56"/>
			<point x="123.992" y="-5.128" type="curve" smooth="yes"/>
			<point x="123.992" y="-73.792"/>
			<point x="72.84" y="-139.848"/>
		</contour>
		<contour>
			<point x="482.264" y="1056.72" type="curve" smooth="yes"/>
			<point x="322.68" y="1056.72"/>
			<point x="243.416" y="949.128"/>
			<point x="243.416" y="832.624" type="curve" smooth="yes"/>
			<point x="243.416" y="749.968"/>
			<point x="296.832" y="698.008"/>
			<point x="396.816" y="698.008" type="curve" smooth="yes"/>
			<point x="556.4" y="698.008"/>
			<point x="635.664" y="805.6"/>
			<point x="635.664" y="921.528" type="curve" smooth="yes"/>
			<point x="635.664" y="1004.76"/>
			<point x="582.248" y="1056.72"/>
		</contour>
	</outline>
</glyph>
<glyph name="less" format="2">
  <advance width="1200"/>
  <unicode hex="003C"/>
  <outline>
    <contour>
      <point x="241.024" y="447.40799999999996" type="line"/>
      <point x="1106.392" y="787.224" type="line"/>
      <point x="1173.44" y="1006.608" type="line"/>
      <point x="179.27200000000002" y="606.3760000000001" type="line"/>
      <point x="124.88799999999999" y="428.56" type="line"/>
      <point x="875.6080000000001" y="29.327999999999996" type="line"/>
      <point x="930.4159999999999" y="210.688" type="line"/>
      <point x="273.168" y="552.384" type="line"/>
    </contour>
  </outline>
</glyph>
<glyph name="greater" format="2">
	<unicode hex="003E"/>
	<advance width="1200"/>
	<outline>
		<contour>
			<point x="958.248" y="587.528" type="line"/>
			<point x="92.88" y="248.288" type="line"/>
			<point x="25.832" y="28.904" type="line"/>
			<point x="1020" y="428.56" type="line"/>
			<point x="1074.384" y="606.376" type="line"/>
			<point x="324.24" y="1006.184" type="line"/>
			<point x="269.432" y="824.248" type="line"/>
			<point x="926.104" y="483.128" type="line"/>
		</contour>
	</outline>
</glyph>
<glyph name="at" format="2">
	<unicode hex="0040"/>
	<advance width="1942.984"/>
	<outline>
		<contour>
			<point x="1470.552" y="308.76" type="curve" smooth="yes"/>
			<point x="1399.128" y="308.76"/>
			<point x="1366.4" y="337.304"/>
			<point x="1366.4" y="405.456" type="curve" smooth="yes"/>
			<point x="1366.4" y="435.304"/>
			<point x="1371.4" y="469.576"/>
			<point x="1385.672" y="514.392" type="curve" smooth="yes"/>
			<point x="1535.128" y="1012.48" type="line"/>
			<point x="1315.824" y="1012.48" type="line"/>
			<point x="1221.168" y="856.184" type="line"/>
			<point x="1177.472" y="735.88" type="line" smooth="yes"/>
			<point x="1102.744" y="528.512"/>
			<point x="983.488" y="371.592"/>
			<point x="890.416" y="371.592" type="curve" smooth="yes"/>
			<point x="834.376" y="371.592"/>
			<point x="809.464" y="398.656"/>
			<point x="809.464" y="458.36" type="curve" smooth="yes"/>
			<point x="809.464" y="622.064"/>
			<point x="972.68" y="878.832"/>
			<point x="1112.848" y="878.832" type="curve" smooth="yes"/>
			<point x="1175.52" y="878.832"/>
			<point x="1207.952" y="850.496"/>
			<point x="1241.288" y="779.888" type="curve"/>
			<point x="1259.832" y="816.552" type="line"/>
			<point x="1213.984" y="958.936"/>
			<point x="1139.168" y="1033.176"/>
			<point x="1023.896" y="1033.176" type="curve" smooth="yes"/>
			<point x="759.256" y="1033.176"/>
			<point x="514.264" y="705.112"/>
			<point x="514.264" y="428.728" type="curve" smooth="yes"/>
			<point x="514.264" y="284.432"/>
			<point x="602.712" y="184.072"/>
			<point x="756.408" y="184.072" type="curve" smooth="yes"/>
			<point x="904.312" y="184.072"/>
			<point x="997.832" y="265.072"/>
			<point x="1155.104" y="541.216" type="curve"/>
			<point x="1176.768" y="541.216" type="line"/>
			<point x="1158.616" y="490.488" type="line" smooth="yes"/>
			<point x="1144.888" y="449.76"/>
			<point x="1137.312" y="411.032"/>
			<point x="1137.312" y="377.032" type="curve" smooth="yes"/>
			<point x="1137.312" y="248.312"/>
			<point x="1226.824" y="173.256"/>
			<point x="1409.688" y="173.256" type="curve" smooth="yes"/>
			<point x="1724.72" y="173.256"/>
			<point x="1935.432" y="454.016"/>
			<point x="1935.432" y="844.216" type="curve" smooth="yes"/>
			<point x="1935.432" y="1226.008"/>
			<point x="1660.464" y="1438.24"/>
			<point x="1212.416" y="1438.24" type="curve" smooth="yes"/>
			<point x="479.152" y="1438.24"/>
			<point x="109.976" y="970.264"/>
			<point x="109.976" y="402" type="curve" smooth="yes"/>
			<point x="109.976" y="-28.88"/>
			<point x="387.768" y="-254.72"/>
			<point x="891.816" y="-254.72" type="curve" smooth="yes"/>
			<point x="1154.848" y="-254.72"/>
			<point x="1372.48" y="-192.688"/>
			<point x="1591.656" y="-72.112" type="curve"/>
			<point x="1543.08" y="29.888" type="line"/>
			<point x="1336.296" y="-77.264"/>
			<point x="1130.056" y="-133.144"/>
			<point x="936.656" y="-133.144" type="curve" smooth="yes"/>
			<point x="485.152" y="-133.144"/>
			<point x="260.944" y="63.368"/>
			<point x="260.944" y="427.848" type="curve" smooth="yes"/>
			<point x="260.944" y="923.288"/>
			<point x="573.504" y="1323.36"/>
			<point x="1191.328" y="1323.36" type="curve" smooth="yes"/>
			<point x="1577.704" y="1323.36"/>
			<point x="1795.464" y="1153.432"/>
			<point x="1795.464" y="830.856" type="curve" smooth="yes"/>
			<point x="1795.464" y="524.528"/>
			<point x="1648.68" y="308.76"/>
		</contour>
	</outline>
</glyph>
<glyph name="A" format="2">
	<unicode hex="0041"/>
	<advance width="1689.144"/>
	<outline>
		<contour>
			<point x="395.224" y="437.536" type="line"/>
			<point x="1091.216" y="437.536" type="line"/>
			<point x="1151.512" y="616.184" type="line"/>
			<point x="454.944" y="616.184" type="line"/>
		</contour>
		<contour>
			<point x="1405.08" y="153.48" type="line"/>
			<point x="1290.752" y="1425.52" type="line"/>
			<point x="898.432" y="1425.52" type="line"/>
			<point x="70.52" y="152.208" type="line"/>
			<point x="-94" y="103.392" type="line"/>
			<point x="-126.696" y="0" type="line"/>
			<point x="420.624" y="0" type="line"/>
			<point x="452.32" y="103.392" type="line"/>
			<point x="296.952" y="152.208" type="line"/>
			<point x="1030.624" y="1313.952" type="line"/>
			<point x="982.696" y="1309.288" type="line"/>
			<point x="1068.544" y="152.632" type="line"/>
			<point x="887.872" y="103.392" type="line"/>
			<point x="854.752" y="0" type="line"/>
			<point x="1537.928" y="0" type="line"/>
			<point x="1570.624" y="103.392" type="line"/>
		</contour>
	</outline>
	<anchor name="UCtop" x="1063.656" y="1414"/>
	<anchor name="bottom" x="635.744" y="0"/>
	<anchor name="right" x="1395.712" y="0"/>
</glyph>
<glyph name="B" format="2">
	<unicode hex="0042"/>
	<advance width="1558.112"/>
	<outline>
		<contour>
			<point x="692.488" y="1230.264" type="line"/>
			<point x="1029.792" y="1230.264" type="line" smooth="yes"/>
			<point x="1155.2" y="1230.264"/>
			<point x="1205.512" y="1185.136"/>
			<point x="1205.512" y="1098.672" type="curve" smooth="yes"/>
			<point x="1205.512" y="955.232"/>
			<point x="1134.376" y="833.904"/>
			<point x="968.296" y="833.904" type="curve" smooth="yes"/>
			<point x="573.784" y="833.904" type="line"/>
			<point x="514.272" y="657.376" type="line"/>
			<point x="907.816" y="657.376" type="line" smooth="yes"/>
			<point x="1041.44" y="657.376"/>
			<point x="1089.448" y="599.912"/>
			<point x="1089.448" y="508.96" type="curve" smooth="yes"/>
			<point x="1089.448" y="319.848"/>
			<point x="997.368" y="193.064"/>
			<point x="789.8" y="193.064" type="curve" smooth="yes"/>
			<point x="375.504" y="193.064" type="line"/>
			<point x="317.664" y="0" type="line"/>
			<point x="835.032" y="0" type="line" smooth="yes"/>
			<point x="1226.016" y="0"/>
			<point x="1420.68" y="191.944"/>
			<point x="1420.68" y="480.904" type="curve" smooth="yes"/>
			<point x="1420.68" y="653.144"/>
			<point x="1327.408" y="753.544"/>
			<point x="1090.272" y="766.968" type="curve"/>
			<point x="1077.064" y="747.968" type="line"/>
			<point x="1367.504" y="753.728"/>
			<point x="1536.832" y="883.944"/>
			<point x="1536.832" y="1130.032" type="curve" smooth="yes"/>
			<point x="1536.832" y="1296.904"/>
			<point x="1433.232" y="1414"/>
			<point x="1132.856" y="1414" type="curve" smooth="yes"/>
			<point x="749.088" y="1414" type="line"/>
		</contour>
		<contour>
			<point x="504.8" y="1260.52" type="line"/>
			<point x="164.192" y="155.176" type="line"/>
			<point x="-17.632" y="103.392" type="line"/>
			<point x="-49.48" y="0" type="line"/>
			<point x="453.544" y="0" type="line"/>
			<point x="887.664" y="1414" type="line"/>
			<point x="366.672" y="1414" type="line"/>
			<point x="335.248" y="1310.608" type="line"/>
		</contour>
	</outline>
	<anchor name="UCtop" x="972.144" y="1414"/>
	<anchor name="bottom" x="666.424" y="0"/>
</glyph>
<glyph name="C" format="2">
	<unicode hex="0043"/>
	<advance width="1553.16"/>
	<outline>
		<contour>
			<point x="1223.688" y="225.504" type="line"/>
			<point x="1117.256" y="189.136"/>
			<point x="999.52" y="164.92"/>
			<point x="906.624" y="164.92" type="curve" smooth="yes"/>
			<point x="644.28" y="164.92"/>
			<point x="495.848" y="291.232"/>
			<point x="495.848" y="566.904" type="curve" smooth="yes"/>
			<point x="495.848" y="960.424"/>
			<point x="692.312" y="1237.296"/>
			<point x="1129.4" y="1237.296" type="curve" smooth="yes"/>
			<point x="1236.528" y="1237.296"/>
			<point x="1328.136" y="1218.752"/>
			<point x="1403.48" y="1168.808" type="curve"/>
			<point x="1342.504" y="1303.136" type="line"/>
			<point x="1360.176" y="932.864" type="line"/>
			<point x="1532.008" y="932.864" type="line"/>
			<point x="1649.184" y="1495.872" type="line"/>
			<point x="1521.648" y="1495.872" type="line"/>
			<point x="1377.72" y="1366.336" type="line"/>
			<point x="1524.032" y="1374.424" type="line"/>
			<point x="1421.128" y="1413.24"/>
			<point x="1303.312" y="1438.24"/>
			<point x="1156.136" y="1438.24" type="curve" smooth="yes"/>
			<point x="488.256" y="1438.24"/>
			<point x="161.824" y="1059.544"/>
			<point x="161.824" y="551.904" type="curve" smooth="yes"/>
			<point x="161.824" y="205.84"/>
			<point x="360.52" y="-24.24"/>
			<point x="813.408" y="-24.24" type="curve" smooth="yes"/>
			<point x="1008.52" y="-24.24"/>
			<point x="1158.736" y="3.64"/>
			<point x="1281.944" y="44.704" type="curve"/>
			<point x="1455.024" y="464.104" type="line"/>
			<point x="1286.704" y="464.104" type="line"/>
			<point x="999.152" y="90.424" type="line"/>
		</contour>
	</outline>
	<anchor name="UCtop" x="1061.464" y="1414"/>
	<anchor name="bottom" x="763.584" y="0"/>
	<anchor name="right" x="1274.512" y="0"/>
</glyph>
<glyph name="E" format="2">
	<unicode hex="0045"/>
	<advance width="1531.616"/>
	<outline>
		<contour>
			<point x="504.8" y="1260.52" type="line"/>
			<point x="164.192" y="155.176" type="line"/>
			<point x="-17.632" y="103.392" type="line"/>
			<point x="-49.48" y="0" type="line"/>
			<point x="453.544" y="0" type="line"/>
			<point x="887.664" y="1414" type="line"/>
			<point x="366.672" y="1414" type="line"/>
			<point x="335.248" y="1310.608" type="line"/>
		</contour>
		<contour>
			<point x="1386.544" y="1336.488" type="line"/>
			<point x="1375.024" y="1020.376" type="line"/>
			<point x="1533.888" y="1020.376" type="line"/>
			<point x="1663.8" y="1495.872" type="line"/>
			<point x="1546.08" y="1495.872" type="line"/>
			<point x="1429.664" y="1414" type="line"/>
			<point x="716.088" y="1414" type="line"/>
			<point x="660.456" y="1230.688" type="line"/>
			<point x="1433.936" y="1230.688" type="line"/>
		</contour>
		<contour>
			<point x="1027.144" y="-85.144" type="line"/>
			<point x="1163.408" y="-85.144" type="line"/>
			<point x="1454.544" y="452.104" type="line"/>
			<point x="1294.104" y="452.104" type="line"/>
			<point x="940.432" y="80.48" type="line"/>
			<point x="1112.824" y="183.312" type="line"/>
			<point x="340.568" y="183.312" type="line"/>
			<point x="284.088" y="0" type="line"/>
			<point x="990.84" y="0" type="line"/>
		</contour>
		<contour>
			<point x="1058.048" y="480" type="line"/>
			<point x="1136.048" y="735" type="line"/>
			<point x="1214.048" y="990" type="line"/>
			<point x="1069.696" y="990" type="line"/>
			<point x="1002.088" y="822.296" type="line"/>
			<point x="535.904" y="822.296" type="line"/>
			<point x="482.696" y="651.704" type="line"/>
			<point x="950.304" y="651.704" type="line"/>
			<point x="913.696" y="480" type="line"/>
		</contour>
	</outline>
	<anchor name="UCtop" x="1016.128" y="1414"/>
	<anchor name="right" x="1137.368" y="0"/>
	<anchor name="bottom" x="624.648" y="0"/>
</glyph>
<glyph name="F" format="2">
	<unicode hex="0046"/>
	<advance width="1420.712"/>
	<outline>
		<contour>
			<point x="1170.176" y="908.064" type="line"/>
			<point x="1025.824" y="908.064" type="line"/>
			<point x="958.216" y="740.36" type="line"/>
			<point x="492.032" y="740.36" type="line"/>
			<point x="438.824" y="569.768" type="line"/>
			<point x="906.432" y="569.768" type="line"/>
			<point x="869.824" y="398.064" type="line"/>
			<point x="1014.176" y="398.064" type="line"/>
			<point x="1092.176" y="653.064" type="line"/>
		</contour>
		<contour>
			<point x="1498.376" y="988.44" type="line"/>
			<point x="1636.768" y="1495.872" type="line"/>
			<point x="1519.048" y="1495.872" type="line"/>
			<point x="1402.632" y="1414" type="line"/>
			<point x="716.088" y="1414" type="line"/>
			<point x="660.456" y="1230.688" type="line"/>
			<point x="1406.904" y="1230.688" type="line"/>
			<point x="1359.512" y="1331.88" type="line"/>
			<point x="1339.512" y="988.44" type="line"/>
		</contour>
		<contour>
			<point x="500.088" y="153.48" type="line"/>
			<point x="887.664" y="1414" type="line"/>
			<point x="366.672" y="1414" type="line"/>
			<point x="335.248" y="1310.608" type="line"/>
			<point x="504.8" y="1260.52" type="line"/>
			<point x="164.192" y="155.176" type="line"/>
			<point x="-17.632" y="103.392" type="line"/>
			<point x="-49.48" y="0" type="line"/>
			<point x="638.216" y="0" type="line"/>
			<point x="668.64" y="103.392" type="line"/>
		</contour>
	</outline>
	<anchor name="UCtop" x="976.224" y="1414"/>
	<anchor name="bottom" x="285.096" y="0"/>
</glyph>
<glyph name="G" format="2">
	<unicode hex="0047"/>
	<advance width="1712.872"/>
	<outline>
		<contour>
			<point x="904.656" y="164.92" type="curve" smooth="yes"/>
			<point x="651.216" y="164.92"/>
			<point x="493.88" y="292.08"/>
			<point x="493.88" y="578.424" type="curve" smooth="yes"/>
			<point x="493.88" y="961.368"/>
			<point x="689.52" y="1237.296"/>
			<point x="1110.888" y="1237.296" type="curve" smooth="yes"/>
			<point x="1231.104" y="1237.296"/>
			<point x="1337.072" y="1222.6"/>
			<point x="1417.688" y="1168.808" type="curve"/>
			<point x="1372.4" y="1303.136" type="line"/>
			<point x="1390.072" y="932.864" type="line"/>
			<point x="1561.904" y="932.864" type="line"/>
			<point x="1679.08" y="1495.872" type="line"/>
			<point x="1551.544" y="1495.872" type="line"/>
			<point x="1407.616" y="1366.336" type="line"/>
			<point x="1538.24" y="1374.424" type="line"/>
			<point x="1428.672" y="1415.936"/>
			<point x="1301.92" y="1438.24"/>
			<point x="1144.536" y="1438.24" type="curve" smooth="yes"/>
			<point x="500.12" y="1438.24"/>
			<point x="161.128" y="1066.752"/>
			<point x="161.128" y="548.512" type="curve" smooth="yes"/>
			<point x="161.128" y="201.816"/>
			<point x="372.648" y="-24.24"/>
			<point x="857.824" y="-24.24" type="curve" smooth="yes"/>
			<point x="1099.712" y="-24.24"/>
			<point x="1299.36" y="17.312"/>
			<point x="1489.144" y="91.712" type="curve"/>
			<point x="1538.648" y="220.512" type="line"/>
			<point x="1400.072" y="220.512" type="line"/>
			<point x="1491.984" y="521.4" type="line"/>
			<point x="1649.32" y="572.76" type="line"/>
			<point x="1681.168" y="676.576" type="line"/>
			<point x="993.472" y="676.576" type="line"/>
			<point x="963.048" y="572.76" type="line"/>
			<point x="1156.512" y="523.096" type="line"/>
			<point x="1023" y="90.68" type="line"/>
			<point x="1198.104" y="230.688" type="line"/>
			<point x="1090.52" y="182.8"/>
			<point x="986.608" y="164.92"/>
		</contour>
	</outline>
	<anchor name="UCtop" x="1073.248" y="1414"/>
	<anchor name="bottom" x="793.848" y="0"/>
</glyph>
<glyph name="H" format="2">
	<unicode hex="0048"/>
	<advance width="1820.096"/>
	<outline>
		<contour>
			<point x="469.368" y="629.616" type="line"/>
			<point x="1425.368" y="629.616" type="line"/>
			<point x="1474.728" y="812.928" type="line"/>
			<point x="519.728" y="812.928" type="line"/>
		</contour>
		<contour>
			<point x="504.8" y="1260.52" type="line"/>
			<point x="164.192" y="155.176" type="line"/>
			<point x="-17.632" y="103.392" type="line"/>
			<point x="-49.48" y="0" type="line"/>
			<point x="638.216" y="0" type="line"/>
			<point x="668.64" y="103.392" type="line"/>
			<point x="500.088" y="153.48" type="line"/>
			<point x="840.696" y="1258.824" type="line"/>
			<point x="1022.52" y="1310.608" type="line"/>
			<point x="1052.944" y="1414" type="line"/>
			<point x="366.672" y="1414" type="line"/>
			<point x="335.248" y="1310.608" type="line"/>
		</contour>
		<contour>
			<point x="1435.16" y="1260.52" type="line"/>
			<point x="1094.976" y="155.176" type="line"/>
			<point x="912.728" y="103.392" type="line"/>
			<point x="882.304" y="0" type="line"/>
			<point x="1568.576" y="0" type="line"/>
			<point x="1600.424" y="103.392" type="line"/>
			<point x="1430.448" y="153.48" type="line"/>
			<point x="1771.056" y="1258.824" type="line"/>
			<point x="1952.88" y="1310.608" type="line"/>
			<point x="1983.728" y="1414" type="line"/>
			<point x="1297.032" y="1414" type="line"/>
			<point x="1266.608" y="1310.608" type="line"/>
		</contour>
	</outline>
	<anchor name="UCtop" x="1148.776" y="1414"/>
	<anchor name="bottom" x="773.376" y="0"/>
</glyph>
<glyph name="I" format="2">
  <advance width="890"/>
  <unicode hex="0049"/>
  <anchor x="701.936" y="1414.0" name="UCtop"/>
  <anchor x="459.536" y="0.0" name="right"/>
  <anchor x="301.376" y="0.0" name="bottom"/>
  <outline>
    <contour>
      <point x="504.8" y="1260.52" type="line"/>
      <point x="164.19199999999998" y="155.176" type="line"/>
      <point x="-17.631999999999998" y="103.392" type="line"/>
      <point x="-49.48" y="0.0" type="line"/>
      <point x="638.216" y="0.0" type="line"/>
      <point x="668.64" y="103.392" type="line"/>
      <point x="500.08799999999997" y="153.48000000000002" type="line"/>
      <point x="840.696" y="1258.8239999999998" type="line"/>
      <point x="1022.52" y="1310.608" type="line"/>
      <point x="1052.944" y="1414.0" type="line"/>
      <point x="366.672" y="1414.0" type="line"/>
      <point x="335.248" y="1310.608" type="line"/>
    </contour>
  </outline>
</glyph>
<glyph name="J" format="2">
	<unicode hex="004A"/>
	<advance width="1174.296"/>
	<outline>
		<contour>
			<point x="885.912" y="362.824" type="curve" smooth="yes"/>
			<point x="1162.92" y="1258.824" type="line"/>
			<point x="1344.744" y="1310.608" type="line"/>
			<point x="1375.168" y="1414" type="line"/>
			<point x="688.896" y="1414" type="line"/>
			<point x="657.472" y="1310.608" type="line"/>
			<point x="827.024" y="1260.52" type="line"/>
			<point x="565.2" y="411.952" type="line" smooth="yes"/>
			<point x="510.896" y="236.312"/>
			<point x="437.136" y="182.888"/>
			<point x="300.768" y="182.888" type="curve" smooth="yes"/>
			<point x="142.608" y="182.888"/>
			<point x="115.976" y="327.456"/>
			<point x="58.624" y="327.456" type="curve" smooth="yes"/>
			<point x="-19.456" y="327.456"/>
			<point x="-70.816" y="268.192"/>
			<point x="-70.816" y="185.232" type="curve" smooth="yes"/>
			<point x="-70.816" y="61.24"/>
			<point x="24.296" y="-20.24"/>
			<point x="281.408" y="-20.24" type="curve" smooth="yes"/>
			<point x="609.816" y="-20.24"/>
			<point x="812.792" y="126.432"/>
		</contour>
	</outline>
	<anchor name="UCtop" x="1019.976" y="1414"/>
	<anchor name="bottom" x="351.184" y="0"/>
</glyph>
<glyph name="K" format="2">
  <advance width="1714.416"/>
  <unicode hex="004B"/>
  <anchor x="1124.2079999999999" y="1414.0" name="UCtop"/>
  <anchor x="815.448" y="0.0" name="bottom"/>
  <outline>
    <contour>
      <point x="1439.064" y="148.448" type="line"/>
      <point x="1056.432" y="872.272" type="line"/>
      <point x="1018.84" y="720.08" type="line"/>
      <point x="1676.536" y="1263.064" type="line"/>
      <point x="1848.4160000000002" y="1310.608" type="line"/>
      <point x="1880.536" y="1414.0" type="line"/>
      <point x="1322.0159999999998" y="1414.0" type="line"/>
      <point x="1289.32" y="1310.608" type="line"/>
      <point x="1425.928" y="1266.096" type="line"/>
      <point x="891.0799999999999" y="823.08" type="line"/>
      <point x="593.8399999999999" y="823.08" type="line"/>
      <point x="541.36" y="639.768" type="line"/>
      <point x="810.04" y="639.768" type="line"/>
      <point x="1083.624" y="108.11999999999999" type="line"/>
      <point x="1076.712" y="85.08" type="line"/>
      <point x="1050.776" y="0.0" type="line"/>
      <point x="1543.4080000000001" y="0.0" type="line"/>
      <point x="1577.104" y="109.392" type="line"/>
    </contour>
    <contour>
      <point x="504.8" y="1260.52" type="line"/>
      <point x="164.19199999999998" y="155.176" type="line"/>
      <point x="-17.631999999999998" y="103.392" type="line"/>
      <point x="-49.48" y="0.0" type="line"/>
      <point x="638.216" y="0.0" type="line"/>
      <point x="668.64" y="103.392" type="line"/>
      <point x="500.08799999999997" y="153.48000000000002" type="line"/>
      <point x="840.696" y="1258.8239999999998" type="line"/>
      <point x="1022.52" y="1310.608" type="line"/>
      <point x="1052.944" y="1414.0" type="line"/>
      <point x="366.672" y="1414.0" type="line"/>
      <point x="335.248" y="1310.608" type="line"/>
    </contour>
  </outline>
</glyph>
<glyph name="L" format="2">
	<unicode hex="004C"/>
	<advance width="1389.4"/>
	<outline>
		<contour>
			<point x="840.696" y="1258.824" type="line"/>
			<point x="1022.52" y="1310.608" type="line"/>
			<point x="1052.944" y="1414" type="line"/>
			<point x="366.672" y="1414" type="line"/>
			<point x="335.248" y="1310.608" type="line"/>
			<point x="504.8" y="1260.52" type="line"/>
			<point x="164.192" y="155.176" type="line"/>
			<point x="-17.632" y="103.392" type="line"/>
			<point x="-49.48" y="0" type="line"/>
			<point x="453.544" y="0" type="line"/>
		</contour>
		<contour>
			<point x="853.192" y="91.2" type="line"/>
			<point x="996.904" y="183.312" type="line"/>
			<point x="214.048" y="183.312" type="line"/>
			<point x="157.568" y="0" type="line"/>
			<point x="897.816" y="0" type="line"/>
			<point x="951.08" y="-85.144" type="line"/>
			<point x="1087.344" y="-85.144" type="line"/>
			<point x="1337.024" y="504.4" type="line"/>
			<point x="1175.736" y="504.4" type="line"/>
		</contour>
	</outline>
	<anchor name="UCtop" x="715.608" y="1414"/>
	<anchor name="right" x="1085.992" y="1414"/>
	<anchor name="bottom" x="548.616" y="0"/>
	<anchor name="mid" x="1241.328" y="806.768"/>
</glyph>
<glyph name="M" format="2">
	<unicode hex="004D"/>
	<advance width="2223.048"/>
	<outline>
		<contour>
			<point x="757.288" y="1317.568" type="line"/>
			<point x="709.328" y="1293.76" type="line"/>
			<point x="704.472" y="0" type="line"/>
			<point x="1061.704" y="0" type="line"/>
			<point x="1881.992" y="1378.76" type="line"/>
			<point x="1891.84" y="1414" type="line"/>
			<point x="1700.472" y="1414" type="line"/>
			<point x="909.608" y="56" type="line"/>
			<point x="1025.672" y="86.104" type="line"/>
			<point x="1030.376" y="1414" type="line"/>
			<point x="396.648" y="1414" type="line"/>
			<point x="365.224" y="1310.608" type="line"/>
			<point x="538.8" y="1240.432" type="line"/>
			<point x="130.704" y="152.632" type="line"/>
			<point x="-42.872" y="103.392" type="line"/>
			<point x="-72.872" y="0" type="line"/>
			<point x="450.56" y="0" type="line"/>
			<point x="480.984" y="103.392" type="line"/>
			<point x="320.952" y="153.904" type="line"/>
		</contour>
		<contour>
			<point x="1821.904" y="1414" type="line"/>
			<point x="1534.016" y="155.176" type="line"/>
			<point x="1358.704" y="103.392" type="line"/>
			<point x="1327.856" y="0" type="line"/>
			<point x="1987.768" y="0" type="line"/>
			<point x="2019.192" y="103.392" type="line"/>
			<point x="1867.64" y="153.48" type="line"/>
			<point x="2124.616" y="1251.368" type="line"/>
			<point x="2313.896" y="1310.608" type="line"/>
			<point x="2344.744" y="1414" type="line"/>
		</contour>
	</outline>
	<anchor name="UCtop" x="1317.944" y="1414"/>
	<anchor name="bottom" x="907.984" y="0"/>
</glyph>
<glyph name="N" format="2">
  <advance width="1726.1760000000002"/>
  <unicode hex="004E"/>
  <anchor x="1129.672" y="1414.0" name="UCtop"/>
  <anchor x="745.472" y="0.0" name="bottom"/>
  <outline>
    <contour>
      <point x="1218.088" y="83.33599999999998" type="line"/>
      <point x="945.176" y="1414.0" type="line"/>
      <point x="370.312" y="1414.0" type="line"/>
      <point x="340.312" y="1314.424" type="line"/>
      <point x="500.952" y="1251.616" type="line"/>
      <point x="162.16" y="152.632" type="line"/>
      <point x="-21.784" y="103.392" type="line"/>
      <point x="-51.208" y="0.0" type="line"/>
      <point x="504.89599999999996" y="0.0" type="line"/>
      <point x="534.744" y="103.392" type="line"/>
      <point x="357.832" y="154.328" type="line"/>
      <point x="704.5600000000001" y="1283.512" type="line"/>
      <point x="659.36" y="1268.744" type="line"/>
      <point x="922.304" y="0.0" type="line"/>
      <point x="1314.9840000000002" y="0.0" type="line"/>
      <point x="1702.864" y="1261.3680000000002" type="line"/>
      <point x="1886.808" y="1310.608" type="line"/>
      <point x="1916.2320000000002" y="1414.0" type="line"/>
      <point x="1360.1280000000002" y="1414.0" type="line"/>
      <point x="1330.28" y="1310.608" type="line"/>
      <point x="1507.192" y="1259.6719999999998" type="line"/>
      <point x="1149.864" y="94.448" type="line"/>
    </contour>
  </outline>
</glyph>
<glyph name="O" format="2">
  <advance width="1709"/>
  <unicode hex="004F"/>
  <anchor x="1093.904" y="1414.0" name="UCtop"/>
  <anchor x="703.512" y="0.0" name="bottom"/>
  <anchor x="906.6479999999999" y="0.0" name="right"/>
  <anchor x="1456.736" y="1414.0" name="horn"/>
  <outline>
    <contour>
      <point x="479.0" y="504.28000000000003" type="curve" smooth="yes"/>
      <point x="479.0" y="878.144"/>
      <point x="677.296" y="1233.328"/>
      <point x="1030.288" y="1233.328" type="curve" smooth="yes"/>
      <point x="1245.0720000000001" y="1233.328"/>
      <point x="1345.6879999999999" y="1116.704"/>
      <point x="1345.6879999999999" y="909.72" type="curve" smooth="yes"/>
      <point x="1345.6879999999999" y="535.856"/>
      <point x="1147.392" y="180.672"/>
      <point x="794.4000000000001" y="180.672" type="curve" smooth="yes"/>
      <point x="579.616" y="180.672"/>
      <point x="479.0" y="297.296"/>
    </contour>
    <contour>
      <point x="1671.048" y="888.976" type="curve" smooth="yes"/>
      <point x="1671.048" y="1231.056"/>
      <point x="1460.6879999999999" y="1438.24"/>
      <point x="1039.832" y="1438.24" type="curve" smooth="yes"/>
      <point x="506.224" y="1438.24"/>
      <point x="153.64" y="1025.56"/>
      <point x="153.64" y="525.024" type="curve" smooth="yes"/>
      <point x="153.64" y="182.944"/>
      <point x="364.0" y="-24.240000000000002"/>
      <point x="784.856" y="-24.240000000000002" type="curve" smooth="yes"/>
      <point x="1318.464" y="-24.240000000000002"/>
      <point x="1671.048" y="388.44"/>
    </contour>
  </outline>
</glyph>
<glyph name="P" format="2">
	<unicode hex="0050"/>
	<advance width="1461.36"/>
	<outline>
		<contour>
			<point x="906.928" y="722.48" type="curve" smooth="yes"/>
			<point x="488.44" y="722.48" type="line"/>
			<point x="405.944" y="539.168" type="line"/>
			<point x="911.512" y="539.168" type="line" smooth="yes"/>
			<point x="1342.776" y="539.168"/>
			<point x="1534.568" y="780.848"/>
			<point x="1534.568" y="1077.008" type="curve" smooth="yes"/>
			<point x="1534.568" y="1291.792"/>
			<point x="1401.568" y="1414"/>
			<point x="1056.68" y="1414" type="curve" smooth="yes"/>
			<point x="679.088" y="1414" type="line"/>
			<point x="653.56" y="1230.688" type="line"/>
			<point x="967.784" y="1230.688" type="line" smooth="yes"/>
			<point x="1148.536" y="1230.688"/>
			<point x="1213.784" y="1174.952"/>
			<point x="1213.784" y="1070.792" type="curve" smooth="yes"/>
			<point x="1213.784" y="886.528"/>
			<point x="1117.376" y="722.48"/>
		</contour>
		<contour>
			<point x="500.088" y="153.48" type="line"/>
			<point x="887.664" y="1414" type="line"/>
			<point x="366.672" y="1414" type="line"/>
			<point x="335.248" y="1310.608" type="line"/>
			<point x="504.8" y="1260.52" type="line"/>
			<point x="164.192" y="155.176" type="line"/>
			<point x="-17.632" y="103.392" type="line"/>
			<point x="-49.48" y="0" type="line"/>
			<point x="638.216" y="0" type="line"/>
			<point x="668.64" y="103.392" type="line"/>
		</contour>
	</outline>
	<anchor name="UCtop" x="980.312" y="1414"/>
	<anchor name="bottom" x="285.096" y="0"/>
</glyph>
<glyph name="Q" format="2">
	<unicode hex="0051"/>
	<advance width="1706.144"/>
	<outline>
		<contour>
			<point x="567.288" y="-225.472" type="line" smooth="yes"/>
			<point x="694.08" y="-395.672"/>
			<point x="797.344" y="-465"/>
			<point x="1023.512" y="-465" type="curve" smooth="yes"/>
			<point x="1129.136" y="-465"/>
			<point x="1196.28" y="-455.032"/>
			<point x="1267.28" y="-440.76" type="curve"/>
			<point x="1306.488" y="-289.472" type="line"/>
			<point x="1078.072" y="-298.384"/>
			<point x="1019.7759238824" y="-288.1904568393"/>
			<point x="875.496" y="-142.84" type="curve" smooth="yes"/>
			<point x="612.368" y="122.488" type="line"/>
			<point x="644.808" y="44.632" type="line"/>
			<point x="1280.216" y="-79.776"/>
			<point x="1669.352" y="368.944"/>
			<point x="1669.352" y="888.976" type="curve" smooth="yes"/>
			<point x="1669.352" y="1232.328"/>
			<point x="1451.784" y="1438.24"/>
			<point x="1039.832" y="1438.24" type="curve" smooth="yes"/>
			<point x="511.736" y="1438.24"/>
			<point x="151.944" y="1017.928"/>
			<point x="151.944" y="525.024" type="curve" smooth="yes"/>
			<point x="151.944" y="381.624"/>
			<point x="191.584" y="265.832"/>
			<point x="291.152" y="125.312" type="curve" smooth="yes"/>
		</contour>
		<contour>
			<point x="477.304" y="500.04" type="curve" smooth="yes"/>
			<point x="477.304" y="861.608"/>
			<point x="686.624" y="1233.328"/>
			<point x="1036.224" y="1233.328" type="curve" smooth="yes"/>
			<point x="1246.768" y="1233.328"/>
			<point x="1343.992" y="1117.552"/>
			<point x="1343.992" y="913.96" type="curve" smooth="yes"/>
			<point x="1343.992" y="552.392"/>
			<point x="1134.672" y="180.672"/>
			<point x="785.072" y="180.672" type="curve" smooth="yes"/>
			<point x="574.528" y="180.672"/>
			<point x="477.304" y="296.448"/>
		</contour>
	</outline>
	<anchor name="UCtop" x="1092.208" y="1414"/>
	<anchor name="bottom" x="462.776" y="-261.624"/>
</glyph>
<glyph name="R" format="2">
	<unicode hex="0052"/>
	<advance width="1625.096"/>
	<outline>
		<contour>
			<point x="963.312" y="779.576" type="curve" smooth="yes"/>
			<point x="520.784" y="779.576" type="line"/>
			<point x="476.784" y="609.832" type="line"/>
			<point x="858.096" y="609.832" type="line" smooth="yes"/>
			<point x="987.032" y="609.832"/>
			<point x="1003.216" y="579.688"/>
			<point x="1017.4" y="407.04" type="curve" smooth="yes"/>
			<point x="1032.312" y="226.112" type="line" smooth="yes"/>
			<point x="1048.192" y="18.24"/>
			<point x="1099.344" y="-22.024"/>
			<point x="1453.736" y="0" type="curve"/>
			<point x="1487.976" y="130.352" type="line"/>
			<point x="1393.584" y="130.352"/>
			<point x="1369.096" y="145.32"/>
			<point x="1356.488" y="275.112" type="curve" smooth="yes"/>
			<point x="1341" y="427.856" type="line" smooth="yes"/>
			<point x="1323.392" y="608.584"/>
			<point x="1281.456" y="680.792"/>
			<point x="1115.408" y="698.912" type="curve"/>
			<point x="1115.408" y="691.76" type="line"/>
			<point x="1442.48" y="711.336"/>
			<point x="1592.968" y="879.368"/>
			<point x="1592.968" y="1120.216" type="curve" smooth="yes"/>
			<point x="1592.968" y="1293.456"/>
			<point x="1479.912" y="1414"/>
			<point x="1174.864" y="1414" type="curve" smooth="yes"/>
			<point x="728.624" y="1414" type="line"/>
			<point x="666.664" y="1230.688" type="line"/>
			<point x="1092.64" y="1230.688" type="line" smooth="yes"/>
			<point x="1207.936" y="1230.688"/>
			<point x="1257.824" y="1183.256"/>
			<point x="1257.824" y="1092.064" type="curve" smooth="yes"/>
			<point x="1257.824" y="931.024"/>
			<point x="1183.88" y="779.576"/>
		</contour>
		<contour>
			<point x="500.088" y="153.48" type="line"/>
			<point x="887.664" y="1414" type="line"/>
			<point x="366.672" y="1414" type="line"/>
			<point x="335.248" y="1310.608" type="line"/>
			<point x="504.8" y="1260.52" type="line"/>
			<point x="164.192" y="155.176" type="line"/>
			<point x="-17.632" y="103.392" type="line"/>
			<point x="-49.48" y="0" type="line"/>
			<point x="638.216" y="0" type="line"/>
			<point x="668.64" y="103.392" type="line"/>
		</contour>
	</outline>
	<anchor name="UCtop" x="1020.712" y="1414"/>
	<anchor name="bottom" x="792.272" y="0"/>
</glyph>
<glyph name="S" format="2">
  <advance width="1344"/>
  <unicode hex="0053"/>
  <anchor x="863.56" y="1414.0" name="UCtop"/>
  <anchor x="603.28" y="0.0" name="bottom"/>
  <outline>
    <contour>
      <point x="1181.7279999999998" y="1190.6560000000002" type="curve"/>
      <point x="1127.648" y="1283.2079999999999" type="line"/>
      <point x="1152.7839999999999" y="975.792" type="line"/>
      <point x="1314.616" y="975.792" type="line"/>
      <point x="1421.328" y="1495.872" type="line"/>
      <point x="1293.7920000000001" y="1495.872" type="line"/>
      <point x="1170.768" y="1368.456" type="line"/>
      <point x="1321.688" y="1350.9679999999998" type="line"/>
      <point x="1228.32" y="1410.272"/>
      <point x="1086.9679999999998" y="1438.24"/>
      <point x="931.792" y="1438.24" type="curve" smooth="yes"/>
      <point x="504.416" y="1438.24"/>
      <point x="285.104" y="1256.0"/>
      <point x="285.104" y="964.7760000000001" type="curve" smooth="yes"/>
      <point x="285.104" y="769.496"/>
      <point x="404.05600000000004" y="701.832"/>
      <point x="569.4159999999999" y="641.5039999999999" type="curve" smooth="yes"/>
      <point x="734.776" y="581.176"/>
      <point x="900.464" y="551.3199999999999"/>
      <point x="900.464" y="412.21599999999995" type="curve" smooth="yes"/>
      <point x="900.464" y="258.688"/>
      <point x="776.5759999999999" y="163.432"/>
      <point x="506.53599999999994" y="163.432" type="curve" smooth="yes"/>
      <point x="384.76" y="163.432"/>
      <point x="281.896" y="185.728"/>
      <point x="195.424" y="214.72" type="curve"/>
      <point x="373.312" y="31.096" type="line"/>
      <point x="240.32" y="465.376" type="line"/>
      <point x="84.816" y="465.376" type="line"/>
      <point x="85.552" y="29.032" type="line"/>
      <point x="184.856" y="-0.15200000000000002"/>
      <point x="308.784" y="-24.240000000000002"/>
      <point x="483.272" y="-24.240000000000002" type="curve" smooth="yes"/>
      <point x="965.232" y="-24.240000000000002"/>
      <point x="1209.672" y="179.632"/>
      <point x="1209.672" y="508.008" type="curve" smooth="yes"/>
      <point x="1209.672" y="732.952"/>
      <point x="1038.248" y="806.7679999999999"/>
      <point x="871.976" y="861.072" type="curve" smooth="yes"/>
      <point x="705.704" y="915.3760000000001"/>
      <point x="584.376" y="944.136"/>
      <point x="584.376" y="1063.9360000000001" type="curve" smooth="yes"/>
      <point x="584.376" y="1180.344"/>
      <point x="661.264" y="1254.72"/>
      <point x="909.544" y="1254.72" type="curve" smooth="yes"/>
      <point x="1016.856" y="1254.72"/>
      <point x="1126.1840000000002" y="1228.6879999999999"/>
    </contour>
  </outline>
</glyph>
<glyph name="T" format="2">
	<unicode hex="0054"/>
	<advance width="1576.608"/>
	<outline>
		<contour>
			<point x="1515.92" y="1224.928" type="line"/>
			<point x="1457.904" y="1284.128" type="line"/>
			<point x="1498.864" y="910.992" type="line"/>
			<point x="1653.912" y="910.992" type="line"/>
			<point x="1733.608" y="1508.24" type="line"/>
			<point x="1600.744" y="1508.24" type="line"/>
			<point x="1472.088" y="1383.792" type="line"/>
			<point x="1622.68" y="1414" type="line"/>
			<point x="465.176" y="1414" type="line"/>
			<point x="598.616" y="1383.792" type="line"/>
			<point x="549.896" y="1508.24" type="line"/>
			<point x="414.912" y="1508.24" type="line"/>
			<point x="176.648" y="910.992" type="line"/>
			<point x="343.512" y="910.992" type="line"/>
			<point x="605.128" y="1272.256" type="line"/>
			<point x="480.696" y="1224.928" type="line"/>
		</contour>
		<contour>
			<point x="870.16" y="1328.8" type="line"/>
			<point x="508.792" y="155.176" type="line"/>
			<point x="325.272" y="103.392" type="line"/>
			<point x="293.848" y="0" type="line"/>
			<point x="981.12" y="0" type="line"/>
			<point x="1011.544" y="103.392" type="line"/>
			<point x="844.688" y="153.48" type="line"/>
			<point x="1206.48" y="1328.8" type="line"/>
		</contour>
	</outline>
	<anchor name="UCtop" x="1052.872" y="1414"/>
	<anchor name="bottom" x="647.704" y="0"/>
</glyph>
<glyph name="U" format="2">
	<unicode hex="0055"/>
	<advance width="1684.76"/>
	<outline>
		<contour>
			<point x="568.936" y="536.416" type="curve" smooth="yes"/>
			<point x="791.576" y="1258.824" type="line"/>
			<point x="973.4" y="1310.608" type="line"/>
			<point x="1003.824" y="1414" type="line"/>
			<point x="317.552" y="1414" type="line"/>
			<point x="286.128" y="1310.608" type="line"/>
			<point x="455.68" y="1260.52" type="line"/>
			<point x="248.408" y="588.792" type="line" smooth="yes"/>
			<point x="118.192" y="168.808"/>
			<point x="318.4" y="-24.24"/>
			<point x="752.192" y="-24.24" type="curve" smooth="yes"/>
			<point x="1131.992" y="-24.24"/>
			<point x="1324.112" y="130.848"/>
			<point x="1443.232" y="519.632" type="curve" smooth="yes"/>
			<point x="1670.416" y="1261.368" type="line"/>
			<point x="1854.36" y="1310.608" type="line"/>
			<point x="1883.784" y="1414" type="line"/>
			<point x="1327.68" y="1414" type="line"/>
			<point x="1297.832" y="1310.608" type="line"/>
			<point x="1474.744" y="1259.672" type="line"/>
			<point x="1252.04" y="532.952" type="line" smooth="yes"/>
			<point x="1179.856" y="296.248"/>
			<point x="1065.968" y="211.328"/>
			<point x="834.952" y="211.328" type="curve" smooth="yes"/>
			<point x="606.456" y="211.328"/>
			<point x="499.264" y="311.216"/>
		</contour>
	</outline>
	<anchor name="UCtop" x="1129.392" y="1414"/>
	<anchor name="right" x="915.512" y="0"/>
	<anchor name="bottom" x="705.192" y="0"/>
	<anchor name="horn" x="1701.552" y="1414"/>
</glyph>
<glyph name="V" format="2">
	<unicode hex="0056"/>
	<advance width="1634.672"/>
	<outline>
		<contour>
			<point x="396.336" y="1260.52" type="line"/>
			<point x="493.704" y="-11.52" type="line"/>
			<point x="886.024" y="-11.52" type="line"/>
			<point x="1679.696" y="1261.792" type="line"/>
			<point x="1839.976" y="1310.608" type="line"/>
			<point x="1872.672" y="1414" type="line"/>
			<point x="1325.352" y="1414" type="line"/>
			<point x="1293.656" y="1310.608" type="line"/>
			<point x="1453.264" y="1261.792" type="line"/>
			<point x="753.832" y="100.048" type="line"/>
			<point x="801.76" y="104.712" type="line"/>
			<point x="732.872" y="1261.368" type="line"/>
			<point x="913.544" y="1310.608" type="line"/>
			<point x="946.664" y="1414" type="line"/>
			<point x="263.488" y="1414" type="line"/>
			<point x="230.792" y="1310.608" type="line"/>
		</contour>
	</outline>
	<anchor name="UCtop" x="1099.072" y="1414"/>
	<anchor name="bottom" x="717.912" y="0"/>
</glyph>
<glyph name="W" format="2">
	<unicode hex="0057"/>
	<advance width="2262.664"/>
	<outline>
		<contour>
			<point x="2095.896" y="1261.792" type="line"/>
			<point x="1531.312" y="111.144" type="line"/>
			<point x="1592.312" y="94.184" type="line"/>
			<point x="1673.312" y="1414" type="line"/>
			<point x="1270.52" y="1414" type="line"/>
			<point x="584.016" y="120.472" type="line"/>
			<point x="639.408" y="120.048" type="line"/>
			<point x="755.664" y="1256.704" type="line"/>
			<point x="927.856" y="1309.76" type="line"/>
			<point x="959.976" y="1414" type="line"/>
			<point x="279.28" y="1414" type="line"/>
			<point x="247.584" y="1309.76" type="line"/>
			<point x="412.976" y="1255.432" type="line"/>
			<point x="301.776" y="0" type="line"/>
			<point x="722.424" y="0" type="line"/>
			<point x="1355.08" y="1163.512" type="line"/>
			<point x="1306.696" y="1143.16" type="line"/>
			<point x="1240.776" y="0" type="line"/>
			<point x="1665.384" y="0" type="line"/>
			<point x="2308.84" y="1261.792" type="line"/>
			<point x="2469.12" y="1310.608" type="line"/>
			<point x="2501.24" y="1414" type="line"/>
			<point x="1968.56" y="1414" type="line"/>
			<point x="1936.288" y="1310.608" type="line"/>
		</contour>
	</outline>
	<anchor name="UCtop" x="1450.232" y="1414"/>
	<anchor name="bottom" x="1034.512" y="0"/>
</glyph>
<glyph name="X" format="2">
  <advance width="1701"/>
  <unicode hex="0058"/>
  <anchor x="1108.88" y="1414.0" name="UCtop"/>
  <anchor x="687.4" y="0.0" name="bottom"/>
  <outline>
    <contour>
      <point x="836.8480000000001" y="629.704" type="line"/>
      <point x="1012.1999999999999" y="663.056" type="line"/>
      <point x="1665.1599999999999" y="1257.9759999999999" type="line"/>
      <point x="1832.2240000000002" y="1310.608" type="line"/>
      <point x="1863.496" y="1414.0" type="line"/>
      <point x="1308.6080000000002" y="1414.0" type="line"/>
      <point x="1277.336" y="1310.608" type="line"/>
      <point x="1423.216" y="1260.096" type="line"/>
      <point x="946.752" y="814.8240000000001" type="line"/>
      <point x="771.4" y="780.8960000000001" type="line"/>
      <point x="86.18400000000001" y="156.024" type="line"/>
      <point x="-80.88" y="103.392" type="line"/>
      <point x="-112.152" y="0.0" type="line"/>
      <point x="442.736" y="0.0" type="line"/>
      <point x="474.008" y="103.392" type="line"/>
      <point x="328.128" y="153.904" type="line"/>
    </contour>
    <contour>
      <point x="1026.104" y="157.296" type="line"/>
      <point x="852.712" y="103.392" type="line"/>
      <point x="820.44" y="0.0" type="line"/>
      <point x="1531.6000000000001" y="0.0" type="line"/>
      <point x="1564.296" y="103.392" type="line"/>
      <point x="1406.656" y="166.2" type="line"/>
      <point x="1076.512" y="799.808" type="line"/>
      <point x="1050.088" y="849.536" type="line"/>
      <point x="835.0559999999999" y="1261.7920000000001" type="line"/>
      <point x="994.6080000000001" y="1309.336" type="line"/>
      <point x="1026.304" y="1414.0" type="line"/>
      <point x="328.712" y="1414.0" type="line"/>
      <point x="297.44" y="1310.608" type="line"/>
      <point x="454.23199999999997" y="1255.432" type="line"/>
      <point x="745.288" y="697.336" type="line"/>
      <point x="771.2560000000001" y="647.52" type="line"/>
    </contour>
  </outline>
</glyph>
<glyph name="Y" format="2">
	<unicode hex="0059"/>
	<advance width="1598.848"/>
	<outline>
		<contour>
			<point x="1403.688" y="1257.552" type="line"/>
			<point x="869.344" y="682.784" type="line"/>
			<point x="948.576" y="682.784" type="line"/>
			<point x="738.392" y="1253.736" type="line"/>
			<point x="904.576" y="1310.608" type="line"/>
			<point x="936.272" y="1414" type="line"/>
			<point x="273.792" y="1414" type="line"/>
			<point x="242.52" y="1310.608" type="line"/>
			<point x="406.52" y="1252.464" type="line"/>
			<point x="666.456" y="589.48" type="line"/>
			<point x="532.032" y="155.176" type="line"/>
			<point x="350.208" y="103.392" type="line"/>
			<point x="318.36" y="0" type="line"/>
			<point x="1006.056" y="0" type="line"/>
			<point x="1036.48" y="103.392" type="line"/>
			<point x="867.928" y="153.48" type="line"/>
			<point x="1004.928" y="595.664" type="line"/>
			<point x="1645.48" y="1261.792" type="line"/>
			<point x="1802.304" y="1310.608" type="line"/>
			<point x="1835" y="1414" type="line"/>
			<point x="1280.776" y="1414" type="line"/>
			<point x="1249.08" y="1310.608" type="line"/>
		</contour>
	</outline>
	<anchor name="UCtop" x="1060.448" y="1414"/>
	<anchor name="bottom" x="669.216" y="0"/>
</glyph>
<glyph name="Z" format="2">
	<unicode hex="005A"/>
	<advance width="1420.616"/>
	<outline>
		<contour>
			<point x="1537.952" y="1414" type="line"/>
			<point x="597.6" y="1414" type="line"/>
			<point x="535" y="1492.904" type="line"/>
			<point x="421.096" y="1492.904" type="line"/>
			<point x="257.136" y="973.592" type="line"/>
			<point x="414.728" y="973.592" type="line"/>
			<point x="570.112" y="1230.688" type="line"/>
			<point x="1309.168" y="1230.688" type="line"/>
			<point x="1157.576" y="1314.432" type="line"/>
			<point x="37.256" y="175.856" type="line"/>
			<point x="-15.192" y="0" type="line"/>
			<point x="912.024" y="0" type="line"/>
			<point x="946.56" y="-85.568" type="line"/>
			<point x="1079.008" y="-85.568" type="line"/>
			<point x="1322.392" y="471.008" type="line"/>
			<point x="1169.528" y="471.008" type="line"/>
			<point x="947.6" y="183.312" type="line"/>
			<point x="233.064" y="183.312" type="line"/>
			<point x="361.912" y="98.568" type="line"/>
			<point x="1483.232" y="1238.144" type="line"/>
		</contour>
	</outline>
	<anchor name="UCtop" x="994.664" y="1414"/>
	<anchor name="bottom" x="550.144" y="0"/>
</glyph>
<glyph name="bracketleft" format="2">
  <advance width="809"/>
  <unicode hex="005B"/>
  <outline>
    <contour>
      <point x="-18.264" y="-219.304" type="line"/>
      <point x="522.904" y="-219.304" type="line"/>
      <point x="572.776" y="-57.024" type="line"/>
      <point x="279.144" y="-57.024" type="line"/>
      <point x="694.5519999999999" y="1301.72" type="line"/>
      <point x="988.184" y="1301.72" type="line"/>
      <point x="1038.056" y="1464.0" type="line"/>
      <point x="496.312" y="1464.0" type="line"/>
    </contour>
  </outline>
</glyph>
<glyph name="backslash" format="2">
  <advance width="883.056"/>
  <unicode hex="005C"/>
  <outline>
    <contour>
      <point x="670.5360000000001" y="0.0" type="line"/>
      <point x="523.7520000000001" y="1414.0" type="line"/>
      <point x="325.672" y="1414.0" type="line"/>
      <point x="472.456" y="0.0" type="line"/>
    </contour>
  </outline>
</glyph>
<glyph name="asciicircum" format="2">
	<unicode hex="005E"/>
	<advance width="1200"/>
	<outline>
		<contour>
			<point x="810.984" y="1290.048" type="line"/>
			<point x="907.928" y="648.272" type="line"/>
			<point x="1084.168" y="648.272" type="line"/>
			<point x="964.984" y="1414" type="line"/>
			<point x="789.32" y="1414" type="line"/>
			<point x="202.136" y="648.272" type="line"/>
			<point x="413.704" y="648.272" type="line"/>
			<point x="902.992" y="1290.048" type="line"/>
		</contour>
	</outline>
</glyph>
<glyph name="a" format="2">
	<unicode hex="0061"/>
	<advance width="1409.944"/>
	<outline>
		<contour>
			<point x="776.688" y="121.256" type="line" smooth="yes"/>
			<point x="733.968" y="14.848"/>
			<point x="770.6" y="-24.24"/>
			<point x="889.976" y="-24.24" type="curve" smooth="yes"/>
			<point x="1007.104" y="-24.24"/>
			<point x="1170.696" y="20.936"/>
			<point x="1387.904" y="203.928" type="curve"/>
			<point x="1338.12" y="283.984" type="line"/>
			<point x="1189.936" y="187.104"/>
			<point x="1069.048" y="164.344"/>
			<point x="939.584" y="173.224" type="curve"/>
			<point x="1003.088" y="76" type="line"/>
			<point x="1342.904" y="1032.48" type="line"/>
			<point x="1117.144" y="1032.48" type="line"/>
			<point x="984.696" y="844.696" type="line"/>
			<point x="937.16" y="729.472" type="line" smooth="yes"/>
			<point x="834.304" y="469.656"/>
			<point x="596.968" y="168.456"/>
			<point x="459.32" y="168.456" type="curve" smooth="yes"/>
			<point x="384.704" y="168.456"/>
			<point x="339.696" y="205.432"/>
			<point x="339.696" y="281.656" type="curve" smooth="yes"/>
			<point x="339.696" y="498.368"/>
			<point x="575.424" y="889.112"/>
			<point x="804.976" y="889.112" type="curve" smooth="yes"/>
			<point x="880.288" y="889.112"/>
			<point x="942.752" y="857.168"/>
			<point x="991.696" y="748.952" type="curve"/>
			<point x="1006.144" y="806.288" type="line"/>
			<point x="967.088" y="971.24"/>
			<point x="881.12" y="1056.72"/>
			<point x="735.912" y="1056.72" type="curve" smooth="yes"/>
			<point x="370.896" y="1056.72"/>
			<point x="37.064" y="592.824"/>
			<point x="37.064" y="244.808" type="curve" smooth="yes"/>
			<point x="37.064" y="65.304"/>
			<point x="166.568" y="-24.24"/>
			<point x="321.176" y="-24.24" type="curve" smooth="yes"/>
			<point x="480.44" y="-24.24"/>
			<point x="617.112" y="49.4"/>
			<point x="886.064" y="471.984" type="curve"/>
			<point x="914.88" y="471.984" type="line"/>
		</contour>
	</outline>
	<anchor name="top" x="909.024" y="1032.48"/>
	<anchor name="right" x="1246.912" y="0"/>
	<anchor name="bottom" x="525.52" y="0"/>
</glyph>
<glyph name="b" format="2">
	<unicode hex="0062"/>
	<advance width="1263.2"/>
	<outline>
		<contour>
			<point x="399.432" y="354.632" type="curve" smooth="yes"/>
			<point x="431.648" y="452.672" type="line" smooth="yes"/>
			<point x="504.44" y="676.376"/>
			<point x="667.496" y="845.632"/>
			<point x="795.36" y="845.632" type="curve" smooth="yes"/>
			<point x="871.704" y="845.632"/>
			<point x="909.288" y="798.504"/>
			<point x="909.288" y="706.864" type="curve" smooth="yes"/>
			<point x="909.288" y="428.512"/>
			<point x="715.336" y="125.952"/>
			<point x="527.944" y="125.952" type="curve" smooth="yes"/>
			<point x="434.536" y="125.952"/>
			<point x="381.312" y="175.384"/>
			<point x="381.312" y="257.456" type="curve" smooth="yes"/>
			<point x="381.312" y="285.152"/>
			<point x="387.584" y="317.968"/>
		</contour>
		<contour>
			<point x="368.32" y="1211.032" type="curve"/>
			<point x="125.248" y="393.144" type="line" smooth="yes"/>
			<point x="111.944" y="347.08"/>
			<point x="104.792" y="304.744"/>
			<point x="104.792" y="265.136" type="curve" smooth="yes"/>
			<point x="104.792" y="89.84"/>
			<point x="239.264" y="-24.24"/>
			<point x="490.704" y="-24.24" type="curve" smooth="yes"/>
			<point x="874.728" y="-24.24"/>
			<point x="1215.768" y="384.976"/>
			<point x="1215.768" y="760.24" type="curve" smooth="yes"/>
			<point x="1215.768" y="931.112"/>
			<point x="1115.256" y="1056.72"/>
			<point x="943.2" y="1056.72" type="curve" smooth="yes"/>
			<point x="800.656" y="1056.72"/>
			<point x="652.552" y="971.896"/>
			<point x="475.608" y="699.768" type="curve"/>
			<point x="444.976" y="699.768" type="line"/>
			<point x="762.904" y="1488.24" type="line"/>
			<point x="711.152" y="1488.24" type="line"/>
			<point x="188.864" y="1404.4" type="line"/>
			<point x="167.776" y="1316.744" type="line"/>
			<point x="225.776" y="1286.536"/>
			<point x="330.32" y="1230.696"/>
		</contour>
	</outline>
	<anchor name="UCtop" x="950.416" y="1414"/>
	<anchor name="bottom" x="416.248" y="0"/>
</glyph>
<glyph name="c" format="2">
	<unicode hex="0063"/>
	<advance width="1105.984"/>
	<outline>
		<contour>
			<point x="719.488" y="921.52" type="curve" smooth="yes"/>
			<point x="758.936" y="921.52"/>
			<point x="799.328" y="880.496"/>
			<point x="842.208" y="818.496" type="curve" smooth="yes"/>
			<point x="885.088" y="756.496"/>
			<point x="917.816" y="710.96"/>
			<point x="941.544" y="710.96" type="curve" smooth="yes"/>
			<point x="1022.168" y="710.96"/>
			<point x="1100.04" y="775.744"/>
			<point x="1100.04" y="864.248" type="curve" smooth="yes"/>
			<point x="1100.04" y="973.12"/>
			<point x="994.312" y="1056.72"/>
			<point x="767.032" y="1056.72" type="curve" smooth="yes"/>
			<point x="349.576" y="1056.72"/>
			<point x="76.064" y="745.656"/>
			<point x="76.064" y="360.496" type="curve" smooth="yes"/>
			<point x="76.064" y="97.088"/>
			<point x="208.664" y="-24.24"/>
			<point x="483.52" y="-24.24" type="curve" smooth="yes"/>
			<point x="733.992" y="-24.24"/>
			<point x="896.648" y="102.368"/>
			<point x="1008.312" y="380.128" type="curve"/>
			<point x="904.04" y="380.128" type="line"/>
			<point x="816.432" y="236.576"/>
			<point x="715.184" y="180.152"/>
			<point x="582.64" y="180.152" type="curve" smooth="yes"/>
			<point x="435.128" y="180.152"/>
			<point x="372.728" y="237.152"/>
			<point x="372.728" y="418.064" type="curve" smooth="yes"/>
			<point x="372.728" y="710.656"/>
			<point x="512.624" y="921.52"/>
		</contour>
	</outline>
	<anchor name="top" x="736.24" y="1032.48"/>
	<anchor name="right" x="843.288" y="0"/>
	<anchor name="bottom" x="455.256" y="0"/>
</glyph>
<glyph name="d" format="2">
	<unicode hex="0064"/>
	<advance width="1410.88"/>
	<outline>
		<contour>
			<point x="990.848" y="748.952" type="curve"/>
			<point x="1005.296" y="806.288" type="line"/>
			<point x="966.24" y="971.24"/>
			<point x="881.12" y="1056.72"/>
			<point x="735.912" y="1056.72" type="curve" smooth="yes"/>
			<point x="370.896" y="1056.72"/>
			<point x="37.064" y="592.824"/>
			<point x="37.064" y="244.808" type="curve" smooth="yes"/>
			<point x="37.064" y="65.304"/>
			<point x="166.568" y="-24.24"/>
			<point x="320.328" y="-24.24" type="curve" smooth="yes"/>
			<point x="479.592" y="-24.24"/>
			<point x="616.264" y="49.4"/>
			<point x="885.216" y="471.984" type="curve"/>
			<point x="914.032" y="471.984" type="line"/>
			<point x="776.688" y="119.56" type="line" smooth="yes"/>
			<point x="734.816" y="12.728"/>
			<point x="774.416" y="-24.24"/>
			<point x="893.792" y="-24.24" type="curve" smooth="yes"/>
			<point x="1010.92" y="-24.24"/>
			<point x="1174.512" y="20.936"/>
			<point x="1391.72" y="203.928" type="curve"/>
			<point x="1341.936" y="283.984" type="line"/>
			<point x="1193.752" y="187.104"/>
			<point x="1072.864" y="164.344"/>
			<point x="943.4" y="173.224" type="curve"/>
			<point x="1006.904" y="76" type="line"/>
			<point x="1493.016" y="1488.24" type="line"/>
			<point x="1441.264" y="1488.24" type="line"/>
			<point x="924.064" y="1404.4" type="line"/>
			<point x="902.976" y="1316.744" type="line"/>
			<point x="959.976" y="1286.3299755767"/>
			<point x="1066.248" y="1229.3928575305"/>
			<point x="1102.248" y="1210.184" type="curve"/>
			<point x="956.376" y="771.792" type="line" smooth="yes"/>
			<point x="861.336" y="478.6"/>
			<point x="599" y="168.456"/>
			<point x="458.472" y="168.456" type="curve" smooth="yes"/>
			<point x="383.856" y="168.456"/>
			<point x="338.848" y="205.432"/>
			<point x="338.848" y="281.656" type="curve" smooth="yes"/>
			<point x="338.848" y="498.368"/>
			<point x="574.576" y="889.112"/>
			<point x="804.128" y="889.112" type="curve" smooth="yes"/>
			<point x="879.864" y="889.112"/>
			<point x="941.48" y="858.016"/>
		</contour>
	</outline>
	<anchor name="UCtop" x="1013.072" y="1414"/>
	<anchor name="right" x="1484.744" y="1464"/>
	<anchor name="bottom" x="544.336" y="0"/>
	<anchor name="center" x="1225.336" y="1207"/>
</glyph>
<glyph name="e" format="2">
	<unicode hex="0065"/>
	<advance width="1142.072"/>
	<outline>
		<contour>
			<point x="726.184" y="918.216" type="curve" smooth="yes"/>
			<point x="811.92" y="918.216"/>
			<point x="853.896" y="871.816"/>
			<point x="853.896" y="797.656" type="curve" smooth="yes"/>
			<point x="853.896" y="682.752"/>
			<point x="837.504" y="652.296"/>
			<point x="312.696" y="558.936" type="curve"/>
			<point x="305.696" y="456.12" type="line"/>
			<point x="534.504" y="477.696"/>
			<point x="803.768" y="518.304"/>
			<point x="1050.64" y="582.064" type="curve"/>
			<point x="1090.728" y="654.024"/>
			<point x="1110.336" y="731.176"/>
			<point x="1110.336" y="800.6" type="curve" smooth="yes"/>
			<point x="1110.336" y="943.024"/>
			<point x="1015.648" y="1056.72"/>
			<point x="771.184" y="1056.72" type="curve" smooth="yes"/>
			<point x="341.016" y="1056.72"/>
			<point x="73.672" y="738.096"/>
			<point x="73.672" y="341.84" type="curve" smooth="yes"/>
			<point x="73.672" y="103.448"/>
			<point x="203.056" y="-24.24"/>
			<point x="469.856" y="-24.24" type="curve" smooth="yes"/>
			<point x="691.744" y="-24.24"/>
			<point x="878.16" y="74.088"/>
			<point x="1015.248" y="365.712" type="curve"/>
			<point x="909.704" y="365.712" type="line"/>
			<point x="818.248" y="231.672"/>
			<point x="707.456" y="180.152"/>
			<point x="577.88" y="180.152" type="curve" smooth="yes"/>
			<point x="425.704" y="180.152"/>
			<point x="371.184" y="237.152"/>
			<point x="371.184" y="418.064" type="curve" smooth="yes"/>
			<point x="371.184" y="743.768"/>
			<point x="543.832" y="918.216"/>
		</contour>
	</outline>
	<anchor name="top" x="724.88" y="1032.48"/>
	<anchor name="right" x="892.064" y="0"/>
	<anchor name="bottom" x="453.84" y="0"/>
</glyph>
<glyph name="f" format="2">
	<unicode hex="0066"/>
	<advance width="898.488"/>
	<outline>
		<contour>
			<point x="138.216" y="887.344" type="line"/>
			<point x="994.424" y="887.344" type="line"/>
			<point x="994.424" y="1032.48" type="line"/>
			<point x="138.216" y="1032.48" type="line"/>
		</contour>
		<contour>
			<point x="563.264" y="301.496" type="curve" smooth="yes"/>
			<point x="731.056" y="1086.96" type="line" smooth="yes"/>
			<point x="771.544" y="1277.888"/>
			<point x="850.616" y="1352.112"/>
			<point x="995.08" y="1352.112" type="curve" smooth="yes"/>
			<point x="1042.288" y="1352.112"/>
			<point x="1071.8" y="1347.416"/>
			<point x="1094.376" y="1325.144" type="curve" smooth="yes"/>
			<point x="1116.952" y="1302.872"/>
			<point x="1127.832" y="1258.84"/>
			<point x="1134.472" y="1180.864" type="curve" smooth="yes"/>
			<point x="1294.208" y="1180.864"/>
			<point x="1350.208" y="1229.288"/>
			<point x="1350.208" y="1323.04" type="curve" smooth="yes"/>
			<point x="1350.208" y="1423.184"/>
			<point x="1262.752" y="1488.24"/>
			<point x="1035.688" y="1488.24" type="curve" smooth="yes"/>
			<point x="709.768" y="1488.24"/>
			<point x="475.608" y="1302.568"/>
			<point x="417.488" y="988.248" type="curve" smooth="yes"/>
			<point x="231.008" y="-23.192" type="line" smooth="yes"/>
			<point x="187.816" y="-250.88"/>
			<point x="109.832" y="-325.472"/>
			<point x="5.856" y="-325.472" type="curve" smooth="yes"/>
			<point x="-32.872" y="-325.472"/>
			<point x="-58.024" y="-319.896"/>
			<point x="-77.568" y="-293.776" type="curve" smooth="yes"/>
			<point x="-97.112" y="-267.656"/>
			<point x="-105.264" y="-219.144"/>
			<point x="-111.144" y="-132.696" type="curve" smooth="yes"/>
			<point x="-262.792" y="-132.696"/>
			<point x="-327.632" y="-182.48"/>
			<point x="-327.632" y="-281.896" type="curve" smooth="yes"/>
			<point x="-327.632" y="-398.64"/>
			<point x="-257.664" y="-465"/>
			<point x="-81.688" y="-465" type="curve" smooth="yes"/>
			<point x="214.392" y="-465"/>
			<point x="446.944" y="-236.336"/>
		</contour>
	</outline>
	<anchor name="UCtop" x="973.08" y="1414"/>
	<anchor name="bottom" x="62" y="-440.76"/>
</glyph>
<glyph name="g" format="2">
	<unicode hex="0067"/>
	<advance width="1189.568"/>
	<outline>
		<contour>
			<point x="1212.328" y="853.552" type="curve" smooth="yes"/>
			<point x="1252.952" y="853.552"/>
			<point x="1337.584" y="994.48"/>
			<point x="1337.584" y="1037.384" type="curve" smooth="yes"/>
			<point x="1337.584" y="1048.352"/>
			<point x="1328.496" y="1052.2"/>
			<point x="1318.496" y="1052.2" type="curve" smooth="yes"/>
			<point x="1260.072" y="1052.2"/>
			<point x="1032.984" y="1033.752"/>
			<point x="800.864" y="1035.872" type="curve"/>
			<point x="795.904" y="946.24" type="line"/>
			<point x="1054.72" y="912.296"/>
			<point x="1192.416" y="853.552"/>
		</contour>
		<contour>
			<point x="521.632" y="468.624" type="curve"/>
			<point x="435.1034617308" y="467.4719901235"/>
			<point x="397.92" y="507.552"/>
			<point x="397.496" y="602.792" type="curve" smooth="yes"/>
			<point x="396.648" y="743.6357647059"/>
			<point x="493.12" y="920.04"/>
			<point x="655.216" y="920.04" type="curve"/>
			<point x="741.32" y="920.04"/>
			<point x="778.928" y="880.521509434"/>
			<point x="779.352" y="786.296" type="curve" smooth="yes"/>
			<point x="780.2" y="645.4522352941"/>
			<point x="682.880041971" y="469.2000002454"/>
		</contour>
		<contour>
			<point x="669.88" y="1056.72" type="curve"/>
			<point x="338.008" y="1056.72"/>
			<point x="130.216" y="835.512"/>
			<point x="131.488" y="601.176" type="curve" smooth="yes"/>
			<point x="132.76" y="455.88"/>
			<point x="232.536" y="331.944"/>
			<point x="506.544" y="331.944" type="curve"/>
			<point x="838.416" y="331.944"/>
			<point x="1045.784" y="553.576"/>
			<point x="1044.512" y="787.336" type="curve" smooth="yes"/>
			<point x="1043.24" y="932.784"/>
			<point x="944.312" y="1056.72"/>
		</contour>
		<contour>
			<point x="358.976" y="-464.424" type="curve" smooth="yes"/>
			<point x="837.824" y="-464.424"/>
			<point x="1014.552" y="-314.888"/>
			<point x="1014.552" y="-109.472" type="curve" smooth="yes"/>
			<point x="1014.552" y="39.736"/>
			<point x="914.408" y="130.824"/>
			<point x="576.968" y="168.984" type="curve" smooth="yes"/>
			<point x="297.168" y="199.96"/>
			<point x="256.872" y="215.296"/>
			<point x="256.872" y="265.752" type="curve" smooth="yes"/>
			<point x="256.872" y="312.36"/>
			<point x="297.48" y="340.512"/>
			<point x="448.688" y="339.88" type="curve"/>
			<point x="466.424" y="372.848" type="line"/>
			<point x="218.544" y="365.232"/>
			<point x="50.744" y="316.304"/>
			<point x="50.744" y="161.32" type="curve" smooth="yes"/>
			<point x="50.744" y="60.728"/>
			<point x="97.976" y="-16.272"/>
			<point x="389.304" y="-52.368" type="curve" smooth="yes"/>
			<point x="701.384" y="-90.888"/>
			<point x="750.544" y="-116.832"/>
			<point x="750.544" y="-190.264" type="curve" smooth="yes"/>
			<point x="750.544" y="-274.424"/>
			<point x="643.72" y="-335.888"/>
			<point x="439.648" y="-335.888" type="curve" smooth="yes"/>
			<point x="183.68" y="-335.888"/>
			<point x="100.888" y="-275.64"/>
			<point x="100.888" y="-182.696" type="curve" smooth="yes"/>
			<point x="100.888" y="-95.528"/>
			<point x="148.144" y="-34.912"/>
			<point x="344.808" y="-28.976" type="curve"/>
			<point x="232.696" y="38.832" type="line"/>
			<point x="220.24" y="-10.856" type="line"/>
			<point x="-61.504" y="-51.648"/>
			<point x="-143.896" y="-113.168"/>
			<point x="-143.896" y="-234.808" type="curve" smooth="yes"/>
			<point x="-143.896" y="-363.752"/>
			<point x="-32.88" y="-464.424"/>
		</contour>
	</outline>
	<anchor name="top" x="665.328" y="1032.48"/>
	<anchor name="bottom" x="404.384" y="-440.76"/>
</glyph>
<glyph name="h" format="2">
	<unicode hex="0068"/>
	<advance width="1405.792"/>
	<outline>
		<contour>
			<point x="404.432" y="212.744" type="line"/>
			<point x="531.728" y="600.848"/>
			<point x="705.216" y="822.88"/>
			<point x="872.24" y="822.88" type="curve" smooth="yes"/>
			<point x="928.4" y="822.88"/>
			<point x="953.768" y="799.968"/>
			<point x="953.768" y="761.48" type="curve" smooth="yes"/>
			<point x="953.768" y="731.784"/>
			<point x="945.192" y="693.512"/>
			<point x="907.832" y="601.432" type="curve" smooth="yes"/>
			<point x="714.928" y="137.168" type="line" smooth="yes"/>
			<point x="669.112" y="25.024"/>
			<point x="719.8" y="-24.24"/>
			<point x="825.152" y="-24.24" type="curve" smooth="yes"/>
			<point x="970.192" y="-24.24"/>
			<point x="1140.88" y="21.576"/>
			<point x="1372.6" y="199.656" type="curve"/>
			<point x="1322.632" y="284.136" type="line"/>
			<point x="1147.584" y="192.536"/>
			<point x="1041.184" y="169.408"/>
			<point x="927.376" y="179.224" type="curve"/>
			<point x="993.744" y="87.544" type="line"/>
			<point x="1200" y="586.384" type="line" smooth="yes"/>
			<point x="1255.12" y="721.408"/>
			<point x="1270.392" y="796.312"/>
			<point x="1270.392" y="854.552" type="curve" smooth="yes"/>
			<point x="1270.392" y="969.12"/>
			<point x="1195.216" y="1056.72"/>
			<point x="1035.832" y="1056.72" type="curve" smooth="yes"/>
			<point x="807.928" y="1056.72"/>
			<point x="635.192" y="928.896"/>
			<point x="416.04" y="463" type="curve"/>
			<point x="377.344" y="463" type="line"/>
			<point x="784.36" y="1488.24" type="line"/>
			<point x="732.608" y="1488.24" type="line"/>
			<point x="215.408" y="1404.4" type="line"/>
			<point x="194.32" y="1316.744" type="line"/>
			<point x="251.32" y="1286.821540107"/>
			<point x="358.864" y="1229.9303957219"/>
			<point x="394.864" y="1211.032" type="curve"/>
			<point x="28.28" y="0" type="line"/>
			<point x="334.912" y="0" type="line"/>
		</contour>
	</outline>
	<anchor name="UCtop" x="929.656" y="1414"/>
	<anchor name="bottom" x="542.456" y="0"/>
	<anchor name="center" x="563.872" y="1207"/>
</glyph>
<glyph name="i" format="2">
	<unicode hex="0069"/>
	<advance width="836.128"/>
	<outline>
		<contour>
			<point x="145.728" y="189.64" type="line" smooth="yes"/>
			<point x="77.616" y="21.872"/>
			<point x="113.912" y="-24.24"/>
			<point x="243.288" y="-24.24" type="curve" smooth="yes"/>
			<point x="383.688" y="-24.24"/>
			<point x="557.792" y="26.056"/>
			<point x="781.056" y="198.352" type="curve"/>
			<point x="729.696" y="282.832" type="line"/>
			<point x="592.544" y="196.376"/>
			<point x="474.448" y="172.8"/>
			<point x="337.624" y="182.616" type="curve"/>
			<point x="409.968" y="87.544" type="line"/>
			<point x="713.76" y="842.84" type="line" smooth="yes"/>
			<point x="775.176" y="993.944"/>
			<point x="744.448" y="1056.72"/>
			<point x="590.088" y="1056.72" type="curve" smooth="yes"/>
			<point x="463.96" y="1056.72"/>
			<point x="300.152" y="1012.304"/>
			<point x="39.04" y="808.16" type="curve"/>
			<point x="96.248" y="724.104" type="line"/>
			<point x="266.128" y="834.344"/>
			<point x="379.984" y="860.528"/>
			<point x="511.264" y="853.68" type="curve"/>
			<point x="449.096" y="945.36" type="line"/>
		</contour>
		<contour>
			<point x="490.24" y="1313.944" type="curve" smooth="yes"/>
			<point x="490.24" y="1236.344"/>
			<point x="550.808" y="1191.648"/>
			<point x="681.728" y="1191.648" type="curve" smooth="yes"/>
			<point x="849.032" y="1191.648"/>
			<point x="915.152" y="1265.16"/>
			<point x="915.152" y="1365.944" type="curve" smooth="yes"/>
			<point x="915.152" y="1443.544"/>
			<point x="854.584" y="1488.24"/>
			<point x="723.664" y="1488.24" type="curve" smooth="yes"/>
			<point x="556.36" y="1488.24"/>
			<point x="490.24" y="1414.728"/>
		</contour>
	</outline>
	<anchor name="top" x="719.12" y="1414"/>
	<anchor name="bottom" x="263.384" y="0"/>
	<anchor name="right" x="488.72" y="0"/>
</glyph>
<glyph name="j" format="2">
	<unicode hex="006A"/>
	<advance width="758.552"/>
	<outline>
		<contour>
			<point x="456.88" y="1313.944" type="curve" smooth="yes"/>
			<point x="456.88" y="1236.344"/>
			<point x="517.448" y="1191.648"/>
			<point x="648.368" y="1191.648" type="curve" smooth="yes"/>
			<point x="815.672" y="1191.648"/>
			<point x="881.792" y="1265.16"/>
			<point x="881.792" y="1365.944" type="curve" smooth="yes"/>
			<point x="881.792" y="1443.544"/>
			<point x="821.224" y="1488.24"/>
			<point x="690.304" y="1488.24" type="curve" smooth="yes"/>
			<point x="523" y="1488.24"/>
			<point x="456.88" y="1414.728"/>
		</contour>
		<contour>
			<point x="485.816" y="197.632" type="curve" smooth="yes"/>
			<point x="678.672" y="842.84" type="line" smooth="yes"/>
			<point x="725.424" y="998.488"/>
			<point x="708.784" y="1056.72"/>
			<point x="556.728" y="1056.72" type="curve" smooth="yes"/>
			<point x="428.352" y="1056.72"/>
			<point x="274.36" y="998.208"/>
			<point x="28.824" y="805.488" type="curve"/>
			<point x="86.032" y="721.432" type="line"/>
			<point x="258.616" y="833.192"/>
			<point x="363.624" y="860.104"/>
			<point x="477.904" y="853.68" type="curve"/>
			<point x="415.736" y="945.36" type="line"/>
			<point x="147.752" y="31.912" type="line" smooth="yes"/>
			<point x="62.912" y="-252.28"/>
			<point x="4.232" y="-299.584"/>
			<point x="-71.288" y="-299.584" type="curve" smooth="yes"/>
			<point x="-83.56" y="-299.584"/>
			<point x="-110.768" y="-269.928"/>
			<point x="-150.224" y="-227.872" type="curve" smooth="yes"/>
			<point x="-189.68" y="-185.816"/>
			<point x="-223.224" y="-146.064"/>
			<point x="-233.464" y="-146.064" type="curve" smooth="yes"/>
			<point x="-320.048" y="-146.064"/>
			<point x="-375.808" y="-212.48"/>
			<point x="-375.808" y="-294.96" type="curve" smooth="yes"/>
			<point x="-375.808" y="-391.312"/>
			<point x="-317.544" y="-465"/>
			<point x="-158.752" y="-465" type="curve" smooth="yes"/>
			<point x="101.384" y="-465"/>
			<point x="347.52" y="-265.224"/>
		</contour>
	</outline>
	<anchor name="top" x="663.576" y="1414"/>
	<anchor name="bottom" x="-26.368" y="-440.76"/>
</glyph>
<glyph name="k" format="2">
	<unicode hex="006B"/>
	<advance width="1352.04"/>
	<outline>
		<contour>
			<point x="783.208" y="1488.24" type="line"/>
			<point x="731.456" y="1488.24" type="line"/>
			<point x="218.288" y="1404.4" type="line"/>
			<point x="197.2" y="1316.744" type="line"/>
			<point x="254.2" y="1286.821540107"/>
			<point x="361.744" y="1229.9303957219"/>
			<point x="397.744" y="1211.032" type="curve"/>
			<point x="25.976" y="0" type="line"/>
			<point x="328.512" y="0" type="line"/>
		</contour>
		<contour>
			<point x="485.424" y="564.792" type="line"/>
			<point x="653.072" y="92.536"/>
			<point x="741.928" y="-24.24"/>
			<point x="865.592" y="-24.24" type="curve" smooth="yes"/>
			<point x="968" y="-24.24"/>
			<point x="1107.888" y="49.688"/>
			<point x="1276.16" y="249.6" type="curve"/>
			<point x="1216.192" y="319.288" type="line"/>
			<point x="1124.76" y="228.76"/>
			<point x="1075.848" y="191.904"/>
			<point x="1033.752" y="191.904" type="curve" smooth="yes"/>
			<point x="960.992" y="191.904"/>
			<point x="902.656" y="288.544"/>
			<point x="724.224" y="727.288" type="curve"/>
			<point x="618.504" y="577.784" type="line"/>
			<point x="919.024" y="811.496"/>
			<point x="981.648" y="845.536"/>
			<point x="1042.04" y="845.536" type="curve" smooth="yes"/>
			<point x="1065.944" y="845.536"/>
			<point x="1093.88" y="815.84"/>
			<point x="1120.12" y="781.568" type="curve" smooth="yes"/>
			<point x="1146.36" y="747.296"/>
			<point x="1171.6" y="706.936"/>
			<point x="1179.6" y="706.936" type="curve" smooth="yes"/>
			<point x="1249.408" y="706.936"/>
			<point x="1355.44" y="769.44"/>
			<point x="1355.44" y="904.616" type="curve" smooth="yes"/>
			<point x="1355.44" y="991"/>
			<point x="1297.84" y="1056.72"/>
			<point x="1177.576" y="1056.72" type="curve" smooth="yes"/>
			<point x="1020.088" y="1056.72"/>
			<point x="905.56" y="983.04"/>
			<point x="504.568" y="602.872" type="curve"/>
		</contour>
	</outline>
	<anchor name="UCtop" x="883.144" y="1414"/>
	<anchor name="bottom" x="559.896" y="0"/>
</glyph>
<glyph name="l" format="2">
	<unicode hex="006C"/>
	<advance width="764.344"/>
	<outline>
		<contour>
			<point x="409.2" y="1211.032" type="curve"/>
			<point x="89.064" y="187.944" type="line" smooth="yes"/>
			<point x="39.008" y="29.048"/>
			<point x="77.664" y="-24.24"/>
			<point x="192.2" y="-24.24" type="curve" smooth="yes"/>
			<point x="332.6" y="-24.24"/>
			<point x="496.528" y="21.392"/>
			<point x="729.968" y="202.592" type="curve"/>
			<point x="679.032" y="286.648" type="line"/>
			<point x="539.336" y="201.04"/>
			<point x="416.576" y="175.344"/>
			<point x="279.752" y="187.28" type="curve"/>
			<point x="351.216" y="79.912" type="line"/>
			<point x="794.664" y="1488.24" type="line"/>
			<point x="742.912" y="1488.24" type="line"/>
			<point x="229.744" y="1404.4" type="line"/>
			<point x="208.656" y="1316.744" type="line"/>
			<point x="265.656" y="1286.821540107"/>
			<point x="373.2" y="1229.9303957219"/>
		</contour>
	</outline>
	<anchor name="UCtop" x="599.784" y="1414"/>
	<anchor name="bottom" x="232.776" y="0"/>
	<anchor name="right" x="786.968" y="1464"/>
	<anchor name="mid" x="778.952" y="554.4"/>
</glyph>
<glyph name="m" format="2">
	<unicode hex="006D"/>
	<advance width="2105.08"/>
	<outline>
		<contour>
			<point x="1690.336" y="87.544" type="line"/>
			<point x="1898.712" y="586.384" type="line" smooth="yes"/>
			<point x="1954.68" y="720.984"/>
			<point x="1969.104" y="796.312"/>
			<point x="1969.104" y="854.552" type="curve" smooth="yes"/>
			<point x="1969.104" y="969.12"/>
			<point x="1892.688" y="1056.72"/>
			<point x="1731.824" y="1056.72" type="curve" smooth="yes"/>
			<point x="1534" y="1056.72"/>
			<point x="1368.992" y="932.712"/>
			<point x="1155.328" y="463" type="curve"/>
			<point x="1117.208" y="463" type="line"/>
			<point x="1180.992" y="654.2" type="line" smooth="yes"/>
			<point x="1215.936" y="758.456"/>
			<point x="1231.544" y="821.608"/>
			<point x="1231.544" y="881.672" type="curve" smooth="yes"/>
			<point x="1231.544" y="989.296"/>
			<point x="1173.28" y="1056.72"/>
			<point x="1040.256" y="1056.72" type="curve" smooth="yes"/>
			<point x="871.712" y="1056.72"/>
			<point x="728.728" y="947.072"/>
			<point x="516.336" y="463" type="curve"/>
			<point x="477.64" y="463" type="line"/>
			<point x="660.552" y="1049.752" type="line"/>
			<point x="599.264" y="1054.448"/>
			<point x="565.6" y="1055.024"/>
			<point x="508.16" y="1055.024" type="curve" smooth="yes"/>
			<point x="269.12" y="1055.024"/>
			<point x="127.336" y="979.152"/>
			<point x="62.248" y="697.416" type="curve"/>
			<point x="87.936" y="690.024" type="line"/>
			<point x="169.752" y="807.984"/>
			<point x="241.976" y="836.536"/>
			<point x="372.4" y="836.536" type="curve" smooth="yes"/>
			<point x="376.672" y="836.536"/>
			<point x="381.096" y="836.536"/>
			<point x="383.944" y="836.536" type="curve"/>
			<point x="129.848" y="0" type="line"/>
			<point x="435.208" y="0" type="line"/>
			<point x="504.728" y="212.744" type="line" smooth="yes"/>
			<point x="636.112" y="612.112"/>
			<point x="775.024" y="827.12"/>
			<point x="926.408" y="827.12" type="curve" smooth="yes"/>
			<point x="980.448" y="827.12"/>
			<point x="1000.512" y="803.36"/>
			<point x="1000.512" y="764.872" type="curve" smooth="yes"/>
			<point x="1000.512" y="736.872"/>
			<point x="992.088" y="698.176"/>
			<point x="959.88" y="604.824" type="curve" smooth="yes"/>
			<point x="753.232" y="0" type="line"/>
			<point x="1059.592" y="0" type="line"/>
			<point x="1136.6" y="226.568" type="line"/>
			<point x="1268.104" y="615.624"/>
			<point x="1425.408" y="827.12"/>
			<point x="1576.136" y="827.12" type="curve" smooth="yes"/>
			<point x="1632.84" y="827.12"/>
			<point x="1655.448" y="802.512"/>
			<point x="1655.448" y="761.904" type="curve" smooth="yes"/>
			<point x="1655.448" y="735.6"/>
			<point x="1646.024" y="697.328"/>
			<point x="1608.24" y="605.672" type="curve" smooth="yes"/>
			<point x="1411.52" y="137.168" type="line" smooth="yes"/>
			<point x="1364.856" y="25.024"/>
			<point x="1416.392" y="-24.24"/>
			<point x="1521.744" y="-24.24" type="curve" smooth="yes"/>
			<point x="1666.784" y="-24.24"/>
			<point x="1837.472" y="21.576"/>
			<point x="2069.192" y="199.656" type="curve"/>
			<point x="2019.224" y="284.136" type="line"/>
			<point x="1844.176" y="192.536"/>
			<point x="1737.776" y="169.408"/>
			<point x="1623.968" y="179.224" type="curve"/>
		</contour>
	</outline>
	<anchor name="top" x="1242.472" y="1032.48"/>
	<anchor name="bottom" x="924.2" y="0"/>
</glyph>
<glyph name="n" format="2">
	<unicode hex="006E"/>
	<advance width="1506.088"/>
	<outline>
		<contour>
			<point x="87.936" y="690.024" type="line"/>
			<point x="169.752" y="807.984"/>
			<point x="241.976" y="836.536"/>
			<point x="372.4" y="836.536" type="curve" smooth="yes"/>
			<point x="376.672" y="836.536"/>
			<point x="381.096" y="836.536"/>
			<point x="383.944" y="836.536" type="curve"/>
			<point x="129.848" y="0" type="line"/>
			<point x="435.208" y="0" type="line"/>
			<point x="504.728" y="212.744" type="line"/>
			<point x="632.024" y="600.848"/>
			<point x="805.512" y="822.88"/>
			<point x="972.536" y="822.88" type="curve" smooth="yes"/>
			<point x="1028.696" y="822.88"/>
			<point x="1054.064" y="799.968"/>
			<point x="1054.064" y="761.48" type="curve" smooth="yes"/>
			<point x="1054.064" y="731.784"/>
			<point x="1045.488" y="693.512"/>
			<point x="1008.128" y="601.432" type="curve" smooth="yes"/>
			<point x="815.224" y="137.168" type="line" smooth="yes"/>
			<point x="769.1805764365" y="24.8632739335"/>
			<point x="820.0436363636" y="-24.24"/>
			<point x="925.448" y="-24.24" type="curve" smooth="yes"/>
			<point x="1070.488" y="-24.24"/>
			<point x="1241.176" y="21.576"/>
			<point x="1472.896" y="199.656" type="curve"/>
			<point x="1422.928" y="284.136" type="line"/>
			<point x="1247.88" y="192.536"/>
			<point x="1141.48" y="169.408"/>
			<point x="1027.672" y="179.224" type="curve"/>
			<point x="1094.04" y="87.544" type="line"/>
			<point x="1300.296" y="586.384" type="line" smooth="yes"/>
			<point x="1355.416" y="721.408"/>
			<point x="1370.688" y="796.312"/>
			<point x="1370.688" y="854.552" type="curve" smooth="yes"/>
			<point x="1370.688" y="969.12"/>
			<point x="1295.512" y="1056.72"/>
			<point x="1136.128" y="1056.72" type="curve" smooth="yes"/>
			<point x="908.224" y="1056.72"/>
			<point x="735.488" y="928.896"/>
			<point x="516.336" y="463" type="curve"/>
			<point x="477.64" y="463" type="line"/>
			<point x="660.552" y="1049.752" type="line"/>
			<point x="599.264" y="1054.448"/>
			<point x="565.6" y="1055.024"/>
			<point x="508.16" y="1055.024" type="curve" smooth="yes"/>
			<point x="269.12" y="1055.024"/>
			<point x="127.336" y="979.152"/>
			<point x="62.248" y="697.416" type="curve"/>
		</contour>
	</outline>
	<anchor name="top" x="901.392" y="1032.48"/>
	<anchor name="bottom" x="638.72" y="0"/>
</glyph>
<glyph name="o" format="2">
	<unicode hex="006F"/>
	<advance width="1245.896"/>
	<outline>
		<contour>
			<point x="735.984" y="1056.72" type="curve" smooth="yes"/>
			<point x="331.408" y="1056.72"/>
			<point x="75.336" y="723.48"/>
			<point x="75.336" y="359.68" type="curve" smooth="yes"/>
			<point x="75.336" y="141.112"/>
			<point x="210.576" y="-24.24"/>
			<point x="508.608" y="-24.24" type="curve" smooth="yes"/>
			<point x="913.184" y="-24.24"/>
			<point x="1169.256" y="309"/>
			<point x="1169.256" y="672.8" type="curve" smooth="yes"/>
			<point x="1169.256" y="891.368"/>
			<point x="1034.016" y="1056.72"/>
		</contour>
		<contour>
			<point x="523.936" y="159.304" type="curve" smooth="yes"/>
			<point x="423.984" y="159.304"/>
			<point x="369.792" y="216.648"/>
			<point x="369.792" y="332.352" type="curve" smooth="yes"/>
			<point x="369.792" y="585.872"/>
			<point x="502.176" y="873.176"/>
			<point x="720.656" y="873.176" type="curve" smooth="yes"/>
			<point x="820.608" y="873.176"/>
			<point x="874.8" y="815.832"/>
			<point x="874.8" y="700.128" type="curve" smooth="yes"/>
			<point x="874.8" y="446.608"/>
			<point x="742.416" y="159.304"/>
		</contour>
	</outline>
	<anchor name="top" x="763.896" y="1032.48"/>
	<anchor name="bottom" x="467.032" y="0"/>
	<anchor name="horn" x="951.784" y="1032.48"/>
	<anchor name="right" x="635.224" y="0"/>
</glyph>
<glyph name="p" format="2">
  <advance width="1400.824"/>
  <unicode hex="0070"/>
  <guideline x="-92.70400000000001" y="-308.4" angle="12.559896741328544" identifier="sw4OuuivSm"/>
  <anchor x="853.0400000000001" y="1032.48" name="top"/>
  <anchor x="150.99200000000002" y="-440.76" name="bottom"/>
  <outline>
    <contour>
      <point x="499.328" y="306.08000000000004" type="curve" smooth="yes"/>
      <point x="536.968" y="442.456" type="line" smooth="yes"/>
      <point x="586.696" y="622.9119999999999"/>
      <point x="763.36" y="849.208"/>
      <point x="903.1360000000001" y="849.208" type="curve" smooth="yes"/>
      <point x="982.5120000000001" y="849.208"/>
      <point x="1026.672" y="801.84"/>
      <point x="1026.672" y="683.9440000000001" type="curve" smooth="yes"/>
      <point x="1026.672" y="414.608"/>
      <point x="857.208" y="113.744"/>
      <point x="651.208" y="113.744" type="curve" smooth="yes"/>
      <point x="543.672" y="113.744"/>
      <point x="488.936" y="167.29600000000002"/>
      <point x="488.936" y="242.392" type="curve" smooth="yes"/>
      <point x="488.936" y="259.664"/>
      <point x="491.35999999999996" y="277.784"/>
    </contour>
    <contour>
      <point x="358.60799999999995" y="159.05599999999998" type="line"/>
      <point x="372.64" y="38.455999999999996"/>
      <point x="492.512" y="-23.816000000000003"/>
      <point x="663.592" y="-23.816000000000003" type="curve" smooth="yes"/>
      <point x="1038.616" y="-23.816000000000003"/>
      <point x="1340.272" y="341.096"/>
      <point x="1340.272" y="736.304" type="curve" smooth="yes"/>
      <point x="1340.272" y="928.752"/>
      <point x="1239.576" y="1056.72"/>
      <point x="1045.28" y="1056.72" type="curve" smooth="yes"/>
      <point x="873.928" y="1056.72"/>
      <point x="723.832" y="943.7840000000001"/>
      <point x="563.976" y="664.576" type="curve"/>
      <point x="534.616" y="664.576" type="line"/>
      <point x="659.432" y="1050.6" type="line"/>
      <point x="610.016" y="1054.448"/>
      <point x="572.112" y="1055.448"/>
      <point x="513.8240000000001" y="1055.448" type="curve" smooth="yes"/>
      <point x="272.24" y="1055.448"/>
      <point x="123.24799999999999" y="980.0"/>
      <point x="58.160000000000004" y="699.112" type="curve"/>
      <point x="81.72800000000001" y="690.4480000000001" type="line"/>
      <point x="164.39200000000002" y="808.408"/>
      <point x="238.312" y="838.232"/>
      <point x="372.552" y="838.232" type="curve" smooth="yes"/>
      <point x="377.67199999999997" y="838.232"/>
      <point x="382.096" y="838.232"/>
      <point x="386.64" y="837.808" type="curve"/>
      <point x="45.144" y="-308.4" type="line"/>
      <point x="-94.2" y="-344.584" type="line"/>
      <point x="-121.896" y="-440.76" type="line"/>
      <point x="482.032" y="-440.76" type="line"/>
      <point x="511.57599999999996" y="-344.15999999999997" type="line"/>
      <point x="337.656" y="-307.976" type="line"/>
      <point x="476.264" y="159.05599999999998" type="line"/>
    </contour>
  </outline>
</glyph>
<glyph name="q" format="2">
	<unicode hex="0071"/>
	<advance width="1330.544"/>
	<outline>
		<contour>
			<point x="636.632" y="-309.128" type="line"/>
			<point x="462.768" y="-344.16" type="line"/>
			<point x="433.952" y="-440.76" type="line"/>
			<point x="1046.76" y="-440.76" type="line"/>
			<point x="1077" y="-344.584" type="line"/>
			<point x="940.32" y="-305.856" type="line"/>
			<point x="1317.448" y="1032.48" type="line"/>
			<point x="1104.472" y="1032.48" type="line"/>
			<point x="984.696" y="844.696" type="line"/>
			<point x="922.184" y="677.632" type="line" smooth="yes"/>
			<point x="830.3420518343" y="426.4361924095"/>
			<point x="608.232120983" y="168.456"/>
			<point x="462.776" y="168.456" type="curve" smooth="yes"/>
			<point x="385.856" y="168.456"/>
			<point x="339.696" y="205.432"/>
			<point x="339.696" y="281.656" type="curve" smooth="yes"/>
			<point x="339.696" y="498.368"/>
			<point x="575.424" y="889.112"/>
			<point x="804.976" y="889.112" type="curve" smooth="yes"/>
			<point x="880.288" y="889.112"/>
			<point x="942.752" y="857.168"/>
			<point x="991.696" y="748.952" type="curve"/>
			<point x="1006.144" y="806.288" type="line"/>
			<point x="967.088" y="971.24"/>
			<point x="881.12" y="1056.72"/>
			<point x="735.912" y="1056.72" type="curve" smooth="yes"/>
			<point x="370.896" y="1056.72"/>
			<point x="37.064" y="592.824"/>
			<point x="37.064" y="244.808" type="curve" smooth="yes"/>
			<point x="37.064" y="65.304"/>
			<point x="166.568" y="-24.24"/>
			<point x="321.176" y="-24.24" type="curve" smooth="yes"/>
			<point x="469.5533874539" y="-24.24"/>
			<point x="608.472" y="25.784"/>
			<point x="842.864" y="387.312" type="curve"/>
			<point x="871.68" y="387.312" type="line"/>
		</contour>
	</outline>
	<anchor name="top" x="861" y="1032.48"/>
	<anchor name="bottom" x="748.144" y="-440.76"/>
</glyph>
<glyph name="r" format="2">
	<unicode hex="0072"/>
	<advance width="1159.504"/>
	<outline>
		<contour>
			<point x="383.944" y="836.536" type="curve"/>
			<point x="129.272" y="0" type="line"/>
			<point x="434.632" y="0" type="line"/>
			<point x="506.608" y="225.112" type="line" smooth="yes"/>
			<point x="615.448" y="564.24"/>
			<point x="782.592" y="812.6"/>
			<point x="906.592" y="812.6" type="curve" smooth="yes"/>
			<point x="925.376" y="812.6"/>
			<point x="960.344" y="785.176"/>
			<point x="992.464" y="756.48" type="curve" smooth="yes"/>
			<point x="1024.584" y="727.784"/>
			<point x="1057.672" y="696.12"/>
			<point x="1064.52" y="696.12" type="curve" smooth="yes"/>
			<point x="1124.504" y="696.12"/>
			<point x="1236.656" y="783.496"/>
			<point x="1236.656" y="909.04" type="curve" smooth="yes"/>
			<point x="1236.656" y="992.392"/>
			<point x="1182.056" y="1056.72"/>
			<point x="1060.608" y="1056.72" type="curve" smooth="yes"/>
			<point x="879.44" y="1056.72"/>
			<point x="730.712" y="918.64"/>
			<point x="529.584" y="503.32" type="curve"/>
			<point x="490.888" y="503.32" type="line"/>
			<point x="663.432" y="1049.752" type="line"/>
			<point x="610.2" y="1054.024"/>
			<point x="573.656" y="1055.024"/>
			<point x="508.16" y="1055.024" type="curve" smooth="yes"/>
			<point x="269.12" y="1055.024"/>
			<point x="127.336" y="979.152"/>
			<point x="62.248" y="697.416" type="curve"/>
			<point x="87.936" y="690.024" type="line"/>
			<point x="169.752" y="807.984"/>
			<point x="241.976" y="836.536"/>
			<point x="372.4" y="836.536" type="curve" smooth="yes"/>
			<point x="376.672" y="836.536"/>
			<point x="381.096" y="836.536"/>
		</contour>
	</outline>
	<anchor name="top" x="729.456" y="1032.48"/>
	<anchor name="bottom" x="282.24" y="0"/>
</glyph>
<glyph name="s" format="2">
	<unicode hex="0073"/>
	<advance width="1048.16"/>
	<outline>
		<contour>
			<point x="248.504" y="312.176" type="curve" smooth="yes"/>
			<point x="63.976" y="312.176"/>
			<point x="19.584" y="262.992"/>
			<point x="19.584" y="166.36" type="curve" smooth="yes"/>
			<point x="19.584" y="58.152"/>
			<point x="111.184" y="-24.24"/>
			<point x="370.008" y="-24.24" type="curve" smooth="yes"/>
			<point x="708.392" y="-24.24"/>
			<point x="911.152" y="106.304"/>
			<point x="911.152" y="353.224" type="curve" smooth="yes"/>
			<point x="911.152" y="487.88"/>
			<point x="855.496" y="570.4"/>
			<point x="659.952" y="636.072" type="curve" smooth="yes"/>
			<point x="464.408" y="701.744"/>
			<point x="438.68" y="733.928"/>
			<point x="438.68" y="799.112" type="curve" smooth="yes"/>
			<point x="438.68" y="876.512"/>
			<point x="514.816" y="924.488"/>
			<point x="648.784" y="924.488" type="curve" smooth="yes"/>
			<point x="696.752" y="924.488"/>
			<point x="727.84" y="918.944"/>
			<point x="755.08" y="895.824" type="curve" smooth="yes"/>
			<point x="782.32" y="872.704"/>
			<point x="801.288" y="825.856"/>
			<point x="817.592" y="744.368" type="curve" smooth="yes"/>
			<point x="966.024" y="744.368"/>
			<point x="1022.24" y="794.704"/>
			<point x="1022.24" y="882.424" type="curve" smooth="yes"/>
			<point x="1022.24" y="992.696"/>
			<point x="919.48" y="1056.296"/>
			<point x="691.816" y="1056.296" type="curve" smooth="yes"/>
			<point x="376" y="1056.296"/>
			<point x="189.28" y="920.968"/>
			<point x="189.28" y="709.704" type="curve" smooth="yes"/>
			<point x="189.28" y="567.24"/>
			<point x="251.424" y="495.904"/>
			<point x="442.6" y="440.144" type="curve" smooth="yes"/>
			<point x="633.776" y="384.384"/>
			<point x="668.96" y="344.528"/>
			<point x="668.96" y="268.92" type="curve" smooth="yes"/>
			<point x="668.96" y="165.088"/>
			<point x="568.912" y="108.384"/>
			<point x="410.856" y="108.384" type="curve" smooth="yes"/>
			<point x="353.288" y="108.384"/>
			<point x="320.96" y="113.656"/>
			<point x="296.264" y="139.352" type="curve" smooth="yes"/>
			<point x="271.568" y="165.048"/>
			<point x="259.264" y="215.776"/>
		</contour>
	</outline>
	<anchor name="top" x="653.424" y="1032.48"/>
	<anchor name="bottom" x="438.4" y="0"/>
</glyph>
<glyph name="t" format="2">
	<unicode hex="0074"/>
	<advance width="937.968"/>
	<outline>
		<contour>
			<point x="142.856" y="887.344" type="line"/>
			<point x="993.776" y="887.344" type="line"/>
			<point x="993.776" y="1032.48" type="line"/>
			<point x="144.584" y="1032.48" type="line"/>
		</contour>
		<contour>
			<point x="535.552" y="429.08" type="curve" smooth="yes"/>
			<point x="815.768" y="1276.672" type="line"/>
			<point x="520.808" y="1276.672" type="line"/>
			<point x="238.168" y="397.064" type="line" smooth="yes"/>
			<point x="196.72" y="270.232"/>
			<point x="179.936" y="193.216"/>
			<point x="179.936" y="137.136" type="curve" smooth="yes"/>
			<point x="179.936" y="26.392"/>
			<point x="235.808" y="-24.24"/>
			<point x="336.488" y="-24.24" type="curve" smooth="yes"/>
			<point x="448.056" y="-24.24"/>
			<point x="607.016" y="20.616"/>
			<point x="841.144" y="237.656" type="curve"/>
			<point x="779.512" y="317.984" type="line"/>
			<point x="637.568" y="207.52"/>
			<point x="573.288" y="188.152"/>
			<point x="530.256" y="188.152" type="curve" smooth="yes"/>
			<point x="501.016" y="188.152"/>
			<point x="486.472" y="195.728"/>
			<point x="486.472" y="232.12" type="curve" smooth="yes"/>
			<point x="486.472" y="258.208"/>
			<point x="497.2" y="311.992"/>
		</contour>
	</outline>
	<anchor name="bottom" x="387.248" y="0"/>
	<anchor name="right" x="849.744" y="1535"/>
</glyph>
<glyph name="u" format="2">
	<unicode hex="0075"/>
	<advance width="1466.608"/>
	<outline>
		<contour>
			<point x="860.736" y="123.496" type="line" smooth="yes"/>
			<point x="824.136" y="18.664"/>
			<point x="861.432" y="-24.24"/>
			<point x="957.24" y="-24.24" type="curve" smooth="yes"/>
			<point x="1056.136" y="-24.24"/>
			<point x="1226.088" y="25.6"/>
			<point x="1446.264" y="206.896" type="curve"/>
			<point x="1394.784" y="289.92" type="line"/>
			<point x="1238.968" y="191.768"/>
			<point x="1116.384" y="164.344"/>
			<point x="989.888" y="174.072" type="curve"/>
			<point x="1065.264" y="71.336" type="line"/>
			<point x="1379.08" y="1032.48" type="line"/>
			<point x="1073.72" y="1032.48" type="line"/>
			<point x="949.48" y="702.232" type="line" smooth="yes"/>
			<point x="797.088" y="282.464"/>
			<point x="651.272" y="196.144"/>
			<point x="548.12" y="196.144" type="curve" smooth="yes"/>
			<point x="499.568" y="196.144"/>
			<point x="470.288" y="215.632"/>
			<point x="470.288" y="256.424" type="curve" smooth="yes"/>
			<point x="470.288" y="284.848"/>
			<point x="481.44" y="327.392"/>
			<point x="511.04" y="404.92" type="curve" smooth="yes"/>
			<point x="681.616" y="839.84" type="line" smooth="yes"/>
			<point x="738.672" y="987.704"/>
			<point x="705.248" y="1056.72"/>
			<point x="574.424" y="1056.72" type="curve" smooth="yes"/>
			<point x="438.6" y="1056.72"/>
			<point x="261.376" y="997.552"/>
			<point x="41.76" y="796.04" type="curve"/>
			<point x="100.24" y="715.8" type="line"/>
			<point x="235.128" y="815.408"/>
			<point x="345.44" y="857.984"/>
			<point x="474.176" y="856.648" type="curve"/>
			<point x="419.584" y="945.36" type="line"/>
			<point x="232.088" y="456.464" type="line" smooth="yes"/>
			<point x="174.784" y="306.192"/>
			<point x="159.968" y="233.288"/>
			<point x="159.968" y="176.776" type="curve" smooth="yes"/>
			<point x="159.968" y="61.632"/>
			<point x="234.176" y="-24.24"/>
			<point x="393.264" y="-24.24" type="curve" smooth="yes"/>
			<point x="586.792" y="-24.24"/>
			<point x="707.712" y="43.512"/>
			<point x="945.744" y="468" type="curve"/>
			<point x="980.136" y="468" type="line"/>
		</contour>
	</outline>
	<anchor name="top" x="852.728" y="1032.48"/>
	<anchor name="right" x="1256.792" y="0"/>
	<anchor name="bottom" x="610.056" y="0"/>
	<anchor name="horn" x="1309.416" y="1032.48"/>
</glyph>
<glyph name="v" format="2">
	<unicode hex="0076"/>
	<advance width="1321.12"/>
	<outline>
		<contour>
			<point x="1251.032" y="810.408" type="curve" smooth="yes"/>
			<point x="1251.032" y="984.416"/>
			<point x="1176.128" y="1056.72"/>
			<point x="1070.648" y="1056.72" type="curve" smooth="yes"/>
			<point x="953" y="1056.72"/>
			<point x="883.056" y="985.576"/>
			<point x="883.056" y="870.496" type="curve" smooth="yes"/>
			<point x="883.056" y="823.456"/>
			<point x="1053.872" y="817.76"/>
			<point x="1053.872" y="647.224" type="curve" smooth="yes"/>
			<point x="1053.872" y="385.12"/>
			<point x="830.392" y="168.52"/>
			<point x="625.656" y="168.52" type="curve" smooth="yes"/>
			<point x="533.472" y="168.52"/>
			<point x="488.136" y="196.064"/>
			<point x="488.136" y="263.336" type="curve" smooth="yes"/>
			<point x="488.136" y="289.424"/>
			<point x="494.832" y="321.208"/>
			<point x="507.376" y="360.112" type="curve" smooth="yes"/>
			<point x="740.24" y="1049.752" type="line"/>
			<point x="668.288" y="1055.296"/>
			<point x="625.896" y="1056.72"/>
			<point x="558.792" y="1056.72" type="curve" smooth="yes"/>
			<point x="260.92" y="1056.72"/>
			<point x="137.704" y="978.304"/>
			<point x="63.616" y="697.416" type="curve"/>
			<point x="89.304" y="690.024" type="line"/>
			<point x="171.12" y="807.984"/>
			<point x="243.344" y="836.536"/>
			<point x="373.768" y="836.536" type="curve" smooth="yes"/>
			<point x="378.04" y="836.536"/>
			<point x="382.464" y="836.536"/>
			<point x="385.312" y="836.536" type="curve"/>
			<point x="226.776" y="371" type="line" smooth="yes"/>
			<point x="207.08" y="312.368"/>
			<point x="197.232" y="259.584"/>
			<point x="197.232" y="213.072" type="curve" smooth="yes"/>
			<point x="197.232" y="59.632"/>
			<point x="304.616" y="-24.24"/>
			<point x="522.744" y="-24.24" type="curve" smooth="yes"/>
			<point x="895.696" y="-24.24"/>
			<point x="1251.032" y="334.128"/>
		</contour>
	</outline>
	<anchor name="top" x="820.96" y="1032.48"/>
	<anchor name="bottom" x="541.376" y="0"/>
</glyph>
<glyph name="w" format="2">
	<unicode hex="0077"/>
	<advance width="1880.552"/>
	<outline>
		<contour>
			<point x="1033.4" y="1032.48" type="line"/>
			<point x="906.032" y="586.144" type="line" smooth="yes"/>
			<point x="812.512" y="258.864"/>
			<point x="686.128" y="168.52"/>
			<point x="571.816" y="168.52" type="curve" smooth="yes"/>
			<point x="508.144" y="168.52"/>
			<point x="475.232" y="189.248"/>
			<point x="475.232" y="243.432" type="curve" smooth="yes"/>
			<point x="475.232" y="266.432"/>
			<point x="480.808" y="295.432"/>
			<point x="492.808" y="331.28" type="curve" smooth="yes"/>
			<point x="734.576" y="1049.752" type="line"/>
			<point x="662.624" y="1054.448"/>
			<point x="620.232" y="1056.72"/>
			<point x="553.128" y="1056.72" type="curve" smooth="yes"/>
			<point x="255.256" y="1056.72"/>
			<point x="132.04" y="978.304"/>
			<point x="57.952" y="697.416" type="curve"/>
			<point x="83.64" y="690.024" type="line"/>
			<point x="165.456" y="807.984"/>
			<point x="237.68" y="836.536"/>
			<point x="368.104" y="836.536" type="curve" smooth="yes"/>
			<point x="373.528" y="836.536"/>
			<point x="375.072" y="836.536"/>
			<point x="379.648" y="836.536" type="curve"/>
			<point x="221.112" y="371" type="line" smooth="yes"/>
			<point x="200.568" y="309.824"/>
			<point x="190.296" y="253.92"/>
			<point x="190.296" y="204.864" type="curve" smooth="yes"/>
			<point x="190.296" y="61.056"/>
			<point x="278.384" y="-24.24"/>
			<point x="446.672" y="-24.24" type="curve" smooth="yes"/>
			<point x="647.296" y="-24.24"/>
			<point x="810.624" y="95.488"/>
			<point x="964.384" y="465" type="curve"/>
			<point x="1000.896" y="466" type="line"/>
			<point x="954.736" y="301.928" type="line" smooth="yes"/>
			<point x="940.4" y="252.288"/>
			<point x="933.52" y="208.528"/>
			<point x="933.52" y="172.072" type="curve" smooth="yes"/>
			<point x="933.52" y="35.48"/>
			<point x="1016.392" y="-24.24"/>
			<point x="1169.376" y="-24.24" type="curve" smooth="yes"/>
			<point x="1475.624" y="-24.24"/>
			<point x="1809.552" y="303.336"/>
			<point x="1809.552" y="810.408" type="curve" smooth="yes"/>
			<point x="1809.552" y="989.928"/>
			<point x="1741.008" y="1056.72"/>
			<point x="1635.952" y="1056.72" type="curve" smooth="yes"/>
			<point x="1520" y="1056.72"/>
			<point x="1446.664" y="975.4"/>
			<point x="1446.664" y="866.256" type="curve" smooth="yes"/>
			<point x="1446.664" y="819.216"/>
			<point x="1619.176" y="813.52"/>
			<point x="1619.176" y="647.224" type="curve" smooth="yes"/>
			<point x="1619.176" y="385.552"/>
			<point x="1411.944" y="168.52"/>
			<point x="1228.136" y="168.52" type="curve" smooth="yes"/>
			<point x="1155.168" y="168.52"/>
			<point x="1117.984" y="195.912"/>
			<point x="1117.984" y="263.88" type="curve" smooth="yes"/>
			<point x="1117.984" y="290.816"/>
			<point x="1124.256" y="324.872"/>
			<point x="1135.376" y="366.048" type="curve" smooth="yes"/>
			<point x="1323.152" y="1032.48" type="line"/>
		</contour>
	</outline>
	<anchor name="top" x="1155.944" y="1032.48"/>
	<anchor name="bottom" x="856.36" y="0"/>
</glyph>
<glyph name="x" format="2">
	<unicode hex="0078"/>
	<advance width="1334.448"/>
	<outline>
		<contour>
			<point x="718.344" y="447.936" type="line"/>
			<point x="862.344" y="617" type="line" smooth="yes"/>
			<point x="962.56" y="737.16"/>
			<point x="1054.008" y="810.568"/>
			<point x="1101.488" y="810.568" type="curve" smooth="yes"/>
			<point x="1116.544" y="810.568"/>
			<point x="1144.392" y="789.96"/>
			<point x="1171.24" y="766.656" type="curve" smooth="yes"/>
			<point x="1198.088" y="743.352"/>
			<point x="1225.664" y="717.776"/>
			<point x="1235.056" y="717.776" type="curve" smooth="yes"/>
			<point x="1278.808" y="717.776"/>
			<point x="1382.864" y="797.04"/>
			<point x="1382.864" y="908.52" type="curve" smooth="yes"/>
			<point x="1382.864" y="995.328"/>
			<point x="1323.928" y="1056.72"/>
			<point x="1215.96" y="1056.72" type="curve" smooth="yes"/>
			<point x="1103" y="1056.72"/>
			<point x="1022.664" y="1009.872"/>
			<point x="867.624" y="814.264" type="curve" smooth="yes"/>
			<point x="675.952" y="569.44" type="line"/>
			<point x="614.288" y="589.128" type="line"/>
			<point x="461.432" y="415.48" type="line" smooth="yes"/>
			<point x="329.384" y="264.824"/>
			<point x="259.168" y="221.912"/>
			<point x="221.864" y="221.912" type="curve" smooth="yes"/>
			<point x="205.536" y="221.912"/>
			<point x="176.84" y="244.792"/>
			<point x="149.84" y="268.096" type="curve" smooth="yes"/>
			<point x="122.84" y="291.4"/>
			<point x="97.264" y="314.704"/>
			<point x="88.296" y="314.704" type="curve" smooth="yes"/>
			<point x="44.544" y="314.704"/>
			<point x="-59.088" y="235.44"/>
			<point x="-59.088" y="123.96" type="curve" smooth="yes"/>
			<point x="-59.088" y="37.152"/>
			<point x="-0.152" y="-24.24"/>
			<point x="107.816" y="-24.24" type="curve" smooth="yes"/>
			<point x="226.288" y="-24.24"/>
			<point x="301.656" y="32.936"/>
			<point x="456.152" y="218.216" type="curve" smooth="yes"/>
			<point x="653.648" y="458.352" type="line"/>
		</contour>
		<contour>
			<point x="1257.024" y="257.864" type="curve"/>
			<point x="1197.544" y="332.008" type="line"/>
			<point x="1054.184" y="223.736"/>
			<point x="952.112" y="180.792"/>
			<point x="920.776" y="180.792" type="curve" smooth="yes"/>
			<point x="907.624" y="180.792"/>
			<point x="905.048" y="187.944"/>
			<point x="895.016" y="224.888" type="curve" smooth="yes"/>
			<point x="720.664" y="887.96" type="line" smooth="yes"/>
			<point x="688.88" y="1013.696"/>
			<point x="653.248" y="1056.72"/>
			<point x="556.808" y="1056.72" type="curve" smooth="yes"/>
			<point x="423.984" y="1056.72"/>
			<point x="283.352" y="965.176"/>
			<point x="104.552" y="713.728" type="curve"/>
			<point x="179.368" y="649.16" type="line"/>
			<point x="302.688" y="782.976"/>
			<point x="391.608" y="847.504"/>
			<point x="423.704" y="847.504" type="curve" smooth="yes"/>
			<point x="434.008" y="847.504"/>
			<point x="436.736" y="841.048"/>
			<point x="444.16" y="812.08" type="curve" smooth="yes"/>
			<point x="620.36" y="143.672" type="line" smooth="yes"/>
			<point x="652.568" y="17.36"/>
			<point x="686.624" y="-24.24"/>
			<point x="780.76" y="-24.24" type="curve" smooth="yes"/>
			<point x="883.104" y="-24.24"/>
			<point x="1022.856" y="36.512"/>
		</contour>
	</outline>
	<anchor name="top" x="820.16" y="1032.48"/>
	<anchor name="bottom" x="503.616" y="0"/>
</glyph>
<glyph name="y" format="2">
	<unicode hex="0079"/>
	<advance width="1284.76"/>
	<outline>
		<contour>
			<point x="125.576" y="553.952" type="line"/>
			<point x="223.64" y="732.288"/>
			<point x="294.168" y="796.512"/>
			<point x="322.712" y="796.512" type="curve" smooth="yes"/>
			<point x="340.56" y="796.512"/>
			<point x="354.528" y="769.816"/>
			<point x="403.096" y="624.528" type="curve" smooth="yes"/>
			<point x="451.664" y="479.24"/>
			<point x="522.36" y="226.624"/>
			<point x="609.688" y="-210.672" type="curve"/>
			<point x="831.256" y="19.32" type="line"/>
			<point x="739.264" y="524.128"/>
			<point x="649.168" y="811.208"/>
			<point x="599.688" y="917.48" type="curve" smooth="yes"/>
			<point x="550.208" y="1023.752"/>
			<point x="514.672" y="1056.72"/>
			<point x="451.528" y="1056.72" type="curve" smooth="yes"/>
			<point x="339.52" y="1056.72"/>
			<point x="208.576" y="988.152"/>
			<point x="30.672" y="596.92" type="curve"/>
		</contour>
		<contour>
			<point x="665.04" y="-21.288" type="line"/>
			<point x="530.456" y="-200.384"/>
			<point x="392.272" y="-266.264"/>
			<point x="286.648" y="-266.264" type="curve" smooth="yes"/>
			<point x="268.8" y="-266.264"/>
			<point x="230.408" y="-230.632"/>
			<point x="198.408" y="-199.392" type="curve" smooth="yes"/>
			<point x="166.408" y="-168.152"/>
			<point x="135.984" y="-139.456"/>
			<point x="126.592" y="-139.456" type="curve" smooth="yes"/>
			<point x="43.824" y="-139.456"/>
			<point x="-23.808" y="-207.992"/>
			<point x="-23.808" y="-293.016" type="curve" smooth="yes"/>
			<point x="-23.808" y="-389.368"/>
			<point x="34.456" y="-465"/>
			<point x="171.624" y="-465" type="curve" smooth="yes"/>
			<point x="399.44" y="-465"/>
			<point x="676.472" y="-266.408"/>
			<point x="889.52" y="56.248" type="curve" smooth="yes"/>
			<point x="1089" y="359.4"/>
			<point x="1242.672" y="728.344"/>
			<point x="1280.688" y="989.088" type="curve" smooth="yes"/>
			<point x="1285.296" y="1028.936"/>
			<point x="1253.112" y="1050.328"/>
			<point x="1183.576" y="1050.904" type="curve" smooth="yes"/>
			<point x="1114.896" y="1051.48"/>
			<point x="1059.76" y="1045.088"/>
			<point x="1013.088" y="1033.208" type="curve"/>
			<point x="986.752" y="564.256"/>
			<point x="861.376" y="230.168"/>
			<point x="703.84" y="0.728" type="curve"/>
		</contour>
	</outline>
	<anchor name="top" x="764.248" y="1032.48"/>
	<anchor name="bottom" x="966.536" y="-115.192"/>
</glyph>
<glyph name="z" format="2">
	<unicode hex="007A"/>
	<advance width="1185.144"/>
	<outline>
		<contour>
			<point x="15.4" y="76.44" type="line"/>
			<point x="103.576" y="-28.272" type="line"/>
			<point x="1179.288" y="956.856" type="line"/>
			<point x="1088.72" y="1060.176" type="line"/>
		</contour>
		<contour>
			<point x="195.336" y="646.68" type="line"/>
			<point x="345.44" y="839.672"/>
			<point x="362.864" y="835.576"/>
			<point x="530.952" y="769.608" type="curve" smooth="yes"/>
			<point x="796.64" y="665.552" type="line"/>
			<point x="992.12" y="896.48" type="line"/>
			<point x="623.624" y="1030.024" type="line" smooth="yes"/>
			<point x="456.608" y="1090.112"/>
			<point x="311.52" y="1072.6"/>
			<point x="99.584" y="704.488" type="curve"/>
		</contour>
		<contour>
			<point x="554.624" y="15.272" type="line" smooth="yes"/>
			<point x="711.4" y="-67.024"/>
			<point x="848.048" y="-43.424"/>
			<point x="1128.616" y="301.04" type="curve"/>
			<point x="1066.68" y="363.16" type="line"/>
			<point x="870.64" y="189.904"/>
			<point x="839.952" y="187.296"/>
			<point x="684.376" y="273.504" type="curve" smooth="yes"/>
			<point x="468.992" y="394.432" type="line"/>
			<point x="235.768" y="182.44" type="line"/>
		</contour>
	</outline>
	<anchor name="top" x="707.136" y="1032.48"/>
	<anchor name="bottom" x="459.072" y="0"/>
</glyph>
<glyph name="braceleft" format="2">
	<unicode hex="007B"/>
	<advance width="780.856"/>
	<outline>
		<contour>
			<point x="75.008" y="549.616" type="line"/>
			<point x="145.584" y="547.768" type="line" smooth="yes"/>
			<point x="218.16" y="545.92"/>
			<point x="249.192" y="522.312"/>
			<point x="249.192" y="470.128" type="curve" smooth="yes"/>
			<point x="249.192" y="348.064"/>
			<point x="104.912" y="146.928"/>
			<point x="104.912" y="-4.072" type="curve" smooth="yes"/>
			<point x="104.912" y="-118.552"/>
			<point x="199.448" y="-220.728"/>
			<point x="358.048" y="-236" type="curve" smooth="yes"/>
			<point x="460.584" y="-246.272" type="line"/>
			<point x="518.392" y="-93.144" type="line"/>
			<point x="439.88" y="-81.872" type="line" smooth="yes"/>
			<point x="377.784" y="-74.296"/>
			<point x="350.024" y="-47.264"/>
			<point x="350.024" y="8.8" type="curve" smooth="yes"/>
			<point x="350.024" y="123.592"/>
			<point x="468.64" y="358.912"/>
			<point x="468.64" y="470.52" type="curve" smooth="yes"/>
			<point x="468.64" y="556.64"/>
			<point x="429.032" y="617.152"/>
			<point x="277.712" y="649.752" type="curve"/>
			<point x="260.048" y="591.64" type="line"/>
			<point x="469.88" y="615"/>
			<point x="570.392" y="715.024"/>
			<point x="610.968" y="846.904" type="curve" smooth="yes"/>
			<point x="644.576" y="956.88"/>
			<point x="648.696" y="1075.768"/>
			<point x="680.424" y="1176.376" type="curve" smooth="yes"/>
			<point x="708.304" y="1267.168"/>
			<point x="756.52" y="1312.992"/>
			<point x="866.256" y="1326.72" type="curve" smooth="yes"/>
			<point x="952.192" y="1337.992" type="line"/>
			<point x="981.064" y="1490.544" type="line"/>
			<point x="819.632" y="1478.424" type="line" smooth="yes"/>
			<point x="597.152" y="1461.272"/>
			<point x="466.16" y="1343.76"/>
			<point x="425.312" y="1209.944" type="curve" smooth="yes"/>
			<point x="384.04" y="1074.28"/>
			<point x="399.312" y="944.912"/>
			<point x="365.856" y="833.968" type="curve" smooth="yes"/>
			<point x="335.672" y="735.688"/>
			<point x="287.184" y="699.928"/>
			<point x="190.456" y="696.504" type="curve" smooth="yes"/>
			<point x="119.608" y="695.232" type="line"/>
		</contour>
	</outline>
</glyph>
<glyph name="bar" format="2">
	<unicode hex="007C"/>
	<advance width="619.704"/>
	<outline>
		<contour>
			<point x="-87.08" y="-465" type="line"/>
			<point x="116.152" y="-465" type="line"/>
			<point x="717.936" y="1535" type="line"/>
			<point x="514.128" y="1535" type="line"/>
		</contour>
	</outline>
</glyph>
<glyph name="braceright" format="2">
	<unicode hex="007D"/>
	<advance width="781.704"/>
	<outline>
		<contour>
			<point x="769.424" y="694.656" type="line"/>
			<point x="698.848" y="696.504" type="line" smooth="yes"/>
			<point x="626.272" y="698.352"/>
			<point x="595.24" y="721.96"/>
			<point x="595.24" y="774.144" type="curve" smooth="yes"/>
			<point x="595.24" y="896.208"/>
			<point x="739.52" y="1097.344"/>
			<point x="739.52" y="1248.344" type="curve" smooth="yes"/>
			<point x="739.52" y="1362.824"/>
			<point x="644.984" y="1465"/>
			<point x="486.384" y="1480.272" type="curve" smooth="yes"/>
			<point x="383.848" y="1490.544" type="line"/>
			<point x="326.04" y="1337.416" type="line"/>
			<point x="404.552" y="1326.144" type="line" smooth="yes"/>
			<point x="466.648" y="1318.568"/>
			<point x="494.408" y="1291.536"/>
			<point x="494.408" y="1235.472" type="curve" smooth="yes"/>
			<point x="494.408" y="1120.68"/>
			<point x="375.792" y="885.36"/>
			<point x="375.792" y="773.752" type="curve" smooth="yes"/>
			<point x="375.792" y="687.632"/>
			<point x="415.4" y="627.12"/>
			<point x="566.72" y="594.52" type="curve"/>
			<point x="584.384" y="652.632" type="line"/>
			<point x="374.552" y="629.272"/>
			<point x="274.04" y="529.248"/>
			<point x="233.464" y="397.368" type="curve" smooth="yes"/>
			<point x="199.856" y="287.392"/>
			<point x="195.736" y="168.504"/>
			<point x="164.008" y="67.896" type="curve" smooth="yes"/>
			<point x="136.128" y="-22.896"/>
			<point x="87.912" y="-68.72"/>
			<point x="-21.824" y="-82.448" type="curve" smooth="yes"/>
			<point x="-107.76" y="-93.72" type="line"/>
			<point x="-136.632" y="-246.272" type="line"/>
			<point x="24.8" y="-234.152" type="line" smooth="yes"/>
			<point x="247.28" y="-217"/>
			<point x="378.272" y="-99.488"/>
			<point x="419.12" y="34.328" type="curve" smooth="yes"/>
			<point x="460.392" y="169.992"/>
			<point x="445.12" y="299.36"/>
			<point x="478.576" y="410.304" type="curve" smooth="yes"/>
			<point x="508.76" y="508.584"/>
			<point x="557.248" y="544.344"/>
			<point x="653.976" y="547.768" type="curve" smooth="yes"/>
			<point x="724.824" y="549.04" type="line"/>
		</contour>
	</outline>
</glyph>
<glyph name="asciitilde" format="2">
  <advance width="1200.0"/>
  <unicode hex="007E"/>
  <outline>
    <contour>
      <point x="1075.84" y="678.44" type="curve"/>
      <point x="899.72" y="678.44" type="line"/>
      <point x="865.504" y="569.6800000000001"/>
      <point x="822.712" y="533.856"/>
      <point x="757.552" y="533.856" type="curve" smooth="yes"/>
      <point x="652.752" y="533.856"/>
      <point x="585.76" y="689.1360000000001"/>
      <point x="431.96799999999996" y="689.1360000000001" type="curve" smooth="yes"/>
      <point x="294.672" y="689.1360000000001"/>
      <point x="191.704" y="612.84"/>
      <point x="123.432" y="357.07199999999995" type="curve"/>
      <point x="299.552" y="357.07199999999995" type="line"/>
      <point x="334.344" y="465.25600000000003"/>
      <point x="377.13599999999997" y="501.08"/>
      <point x="441.71999999999997" y="501.08" type="curve" smooth="yes"/>
      <point x="546.52" y="501.08"/>
      <point x="613.5120000000001" y="345.79999999999995"/>
      <point x="767.304" y="345.79999999999995" type="curve" smooth="yes"/>
      <point x="904.6" y="345.79999999999995"/>
      <point x="1007.568" y="422.096"/>
    </contour>
  </outline>
</glyph>
<glyph name="exclamdown" format="2">
  <advance width="659"/>
  <unicode hex="00A1"/>
  <outline>
    <contour>
      <point x="-107.616" y="-328.23199999999997" type="line" smooth="yes"/>
      <point x="-124.82400000000001" y="-377.888"/>
      <point x="-106.52" y="-404.912"/>
      <point x="51.472" y="-404.912" type="curve" smooth="yes"/>
      <point x="206.88799999999998" y="-404.912"/>
      <point x="240.672" y="-377.88800000000003"/>
      <point x="253.91199999999998" y="-328.23199999999997" type="curve" smooth="yes"/>
      <point x="275.336" y="-250.29600000000002" type="line" smooth="yes"/>
      <point x="294.664" y="-175.288"/>
      <point x="387.624" y="344.56800000000004"/>
      <point x="428.824" y="538.904" type="curve"/>
      <point x="248.136" y="538.904" type="line"/>
      <point x="169.856" y="344.56800000000004"/>
      <point x="-54.80799999999999" y="-175.288"/>
      <point x="-81.224" y="-250.29600000000002" type="curve" smooth="yes"/>
    </contour>
    <contour>
      <point x="389.24" y="704.336" type="curve" smooth="yes"/>
      <point x="558.152" y="704.336"/>
      <point x="632.7520000000001" y="806.416"/>
      <point x="632.7520000000001" y="925.888" type="curve" smooth="yes"/>
      <point x="632.7520000000001" y="1005.576"/>
      <point x="583.576" y="1050.752"/>
      <point x="488.68" y="1050.752" type="curve" smooth="yes"/>
      <point x="319.768" y="1050.752"/>
      <point x="245.168" y="948.6719999999999"/>
      <point x="245.168" y="829.7760000000001" type="curve" smooth="yes"/>
      <point x="245.168" y="749.512"/>
      <point x="294.34400000000005" y="704.336"/>
    </contour>
  </outline>
</glyph>
<glyph name="currency" format="2">
	<unicode hex="00A4"/>
	<advance width="1137"/>
	<outline>
		<contour>
			<point x="222.464" y="851.536" type="line"/>
			<point x="340" y="671.824" type="line"/>
			<point x="493.608" y="777.2" type="line"/>
			<point x="376.92" y="953.488" type="line"/>
		</contour>
		<contour>
			<point x="963.192" y="909.976" type="line"/>
			<point x="769.352" y="761.528" type="line"/>
			<point x="874.544" y="626.704" type="line"/>
			<point x="1056.024" y="764.336" type="line"/>
		</contour>
		<contour>
			<point x="910.96" y="184.4" type="line"/>
			<point x="793.424" y="364.112" type="line"/>
			<point x="639.816" y="258.736" type="line"/>
			<point x="756.504" y="81.872" type="line"/>
		</contour>
		<contour>
			<point x="77.4" y="271.6" type="line"/>
			<point x="170.232" y="125.96" type="line"/>
			<point x="364.072" y="274.408" type="line"/>
			<point x="258.88" y="409.232" type="line"/>
		</contour>
		<contour>
			<point x="629.008" y="875.344" type="curve" smooth="yes"/>
			<point x="352.576" y="875.344"/>
			<point x="191.672" y="686.232"/>
			<point x="191.672" y="450.064" type="curve" smooth="yes"/>
			<point x="191.672" y="278.224"/>
			<point x="311.576" y="160.592"/>
			<point x="504.416" y="160.592" type="curve" smooth="yes"/>
			<point x="780.848" y="160.592"/>
			<point x="941.752" y="349.128"/>
			<point x="941.752" y="585.872" type="curve" smooth="yes"/>
			<point x="941.752" y="757.712"/>
			<point x="821.848" y="875.344"/>
		</contour>
		<contour>
			<point x="531.592" y="309.384" type="curve" smooth="yes"/>
			<point x="423.072" y="309.384"/>
			<point x="356.976" y="374.872"/>
			<point x="356.976" y="474.816" type="curve" smooth="yes"/>
			<point x="356.976" y="613.336"/>
			<point x="445.952" y="726.552"/>
			<point x="601.832" y="726.552" type="curve" smooth="yes"/>
			<point x="710.352" y="726.552"/>
			<point x="776.448" y="661.064"/>
			<point x="776.448" y="560.544" type="curve" smooth="yes"/>
			<point x="776.448" y="422.6"/>
			<point x="687.472" y="309.384"/>
		</contour>
	</outline>
</glyph>
<glyph name="brokenbar" format="2">
	<unicode hex="00A6"/>
	<advance width="619.704"/>
	<outline>
		<contour>
			<point x="480.304" y="745.736" type="line"/>
			<point x="717.936" y="1535" type="line"/>
			<point x="514.128" y="1535" type="line"/>
			<point x="276.496" y="745.736" type="line"/>
		</contour>
		<contour>
			<point x="-87.08" y="-465" type="line"/>
			<point x="116.152" y="-465" type="line"/>
			<point x="354.36" y="324.264" type="line"/>
			<point x="150.552" y="324.264" type="line"/>
		</contour>
	</outline>
</glyph>
<glyph name="section" format="2">
  <advance width="1336"/>
  <unicode hex="00A7"/>
  <outline>
    <contour>
      <point x="719.8159999999999" y="778.96" type="curve"/>
      <point x="593.184" y="820.8399999999999" type="line"/>
      <point x="270.008" y="820.416"/>
      <point x="101.888" y="700.264"/>
      <point x="101.888" y="492.568" type="curve" smooth="yes"/>
      <point x="101.888" y="122.056"/>
      <point x="720.7439999999999" y="275.872"/>
      <point x="720.7439999999999" y="66.336" type="curve" smooth="yes"/>
      <point x="720.7439999999999" y="-7.735999999999999"/>
      <point x="658.28" y="-77.504"/>
      <point x="469.30400000000003" y="-77.504" type="curve" smooth="yes"/>
      <point x="267.568" y="-77.504"/>
      <point x="196.776" y="69.136"/>
      <point x="170.504" y="69.136" type="curve" smooth="yes"/>
      <point x="88.544" y="69.136"/>
      <point x="21.727999999999994" y="15.2"/>
      <point x="21.151999999999994" y="-74.584" type="curve" smooth="yes"/>
      <point x="20.575999999999993" y="-162.69600000000003"/>
      <point x="87.104" y="-244.696"/>
      <point x="403.6" y="-244.696" type="curve" smooth="yes"/>
      <point x="830.112" y="-244.696"/>
      <point x="1020.376" y="-65.16"/>
      <point x="1020.376" y="153.136" type="curve" smooth="yes"/>
      <point x="1020.376" y="551.304"/>
      <point x="402.792" y="368.488"/>
      <point x="402.792" y="600.12" type="curve" smooth="yes"/>
      <point x="402.792" y="700.32"/>
      <point x="486.96" y="771.144"/>
    </contour>
    <contour>
      <point x="981.0799999999999" y="593.424" type="curve" smooth="yes"/>
      <point x="981.0799999999999" y="493.224"/>
      <point x="896.912" y="422.4"/>
      <point x="664.056" y="414.584" type="curve"/>
      <point x="790.688" y="372.704" type="line"/>
      <point x="1113.864" y="373.128"/>
      <point x="1281.984" y="493.28"/>
      <point x="1281.984" y="700.9759999999999" type="curve" smooth="yes"/>
      <point x="1281.984" y="1071.488"/>
      <point x="663.128" y="917.672"/>
      <point x="663.128" y="1127.208" type="curve" smooth="yes"/>
      <point x="663.128" y="1201.28"/>
      <point x="725.5920000000001" y="1271.048"/>
      <point x="914.568" y="1271.048" type="curve" smooth="yes"/>
      <point x="1116.304" y="1271.048"/>
      <point x="1187.096" y="1124.408"/>
      <point x="1213.3680000000002" y="1124.408" type="curve" smooth="yes"/>
      <point x="1295.328" y="1124.408"/>
      <point x="1362.144" y="1178.3439999999998"/>
      <point x="1362.72" y="1268.128" type="curve" smooth="yes"/>
      <point x="1363.296" y="1356.24"/>
      <point x="1296.768" y="1438.24"/>
      <point x="980.272" y="1438.24" type="curve" smooth="yes"/>
      <point x="553.76" y="1438.24"/>
      <point x="363.496" y="1258.704"/>
      <point x="363.496" y="1040.408" type="curve" smooth="yes"/>
      <point x="363.496" y="642.24"/>
      <point x="981.0799999999999" y="825.056"/>
    </contour>
  </outline>
</glyph>
<glyph name="copyright" format="2">
	<unicode hex="00A9"/>
	<advance width="1774.208"/>
	<outline>
		<contour>
			<point x="972.96" y="430.864" type="curve" smooth="yes"/>
			<point x="816.16" y="430.864"/>
			<point x="734.12" y="495.088"/>
			<point x="734.12" y="622.28" type="curve" smooth="yes"/>
			<point x="734.12" y="823.688"/>
			<point x="843.736" y="985.592"/>
			<point x="1057.416" y="985.592" type="curve" smooth="yes"/>
			<point x="1144.48" y="985.592"/>
			<point x="1199.36" y="970.016"/>
			<point x="1254.664" y="930.864" type="curve"/>
			<point x="1203.824" y="1035.888" type="line"/>
			<point x="1201.24" y="824.072" type="line"/>
			<point x="1295.928" y="824.072" type="line"/>
			<point x="1392.288" y="1140" type="line"/>
			<point x="1316.688" y="1140" type="line"/>
			<point x="1236.272" y="1064.304" type="line"/>
			<point x="1310.632" y="1084.816" type="line"/>
			<point x="1243.392" y="1109.696"/>
			<point x="1163.272" y="1123"/>
			<point x="1077.48" y="1123" type="curve" smooth="yes"/>
			<point x="694.104" y="1123"/>
			<point x="500.792" y="896.648"/>
			<point x="500.792" y="611.888" type="curve" smooth="yes"/>
			<point x="500.792" y="405.912"/>
			<point x="634.464" y="301"/>
			<point x="897.976" y="301" type="curve" smooth="yes"/>
			<point x="1000.336" y="301"/>
			<point x="1076.272" y="315.728"/>
			<point x="1168.6" y="344.424" type="curve"/>
			<point x="1262.896" y="582.08" type="line"/>
			<point x="1173.176" y="582.08" type="line"/>
			<point x="1027.944" y="368.416" type="line"/>
			<point x="1152.296" y="465.744" type="line"/>
			<point x="1091.296" y="441.864"/>
			<point x="1025.84" y="430.864"/>
		</contour>
		<contour>
			<point x="867.304" y="90.88" type="curve" smooth="yes"/>
			<point x="503.664" y="90.88"/>
			<point x="308.152" y="253.728"/>
			<point x="308.152" y="549.792" type="curve" smooth="yes"/>
			<point x="308.152" y="947.384"/>
			<point x="545.328" y="1323.12"/>
			<point x="1022.48" y="1323.12" type="curve" smooth="yes"/>
			<point x="1386.12" y="1323.12"/>
			<point x="1581.632" y="1160.272"/>
			<point x="1581.632" y="864.208" type="curve" smooth="yes"/>
			<point x="1581.632" y="466.616"/>
			<point x="1344.456" y="90.88"/>
		</contour>
		<contour>
			<point x="1031.24" y="1438.24" type="curve" smooth="yes"/>
			<point x="467" y="1438.24"/>
			<point x="177.064" y="1003.176"/>
			<point x="177.064" y="532.096" type="curve" smooth="yes"/>
			<point x="177.064" y="175.4"/>
			<point x="423.024" y="-24.24"/>
			<point x="858.544" y="-24.24" type="curve" smooth="yes"/>
			<point x="1422.784" y="-24.24"/>
			<point x="1712.72" y="410.824"/>
			<point x="1712.72" y="881.904" type="curve" smooth="yes"/>
			<point x="1712.72" y="1238.6"/>
			<point x="1466.76" y="1438.24"/>
		</contour>
	</outline>
</glyph>
<glyph name="ordfeminine" format="2">
	<unicode hex="00AA"/>
	<advance width="1092.488"/>
	<outline>
		<contour>
			<point x="181.104" y="468.448" type="line"/>
			<point x="912.304" y="468.448" type="line"/>
			<point x="962.36" y="632.16" type="line"/>
			<point x="231.584" y="632.16" type="line"/>
		</contour>
		<contour>
			<point x="734.056" y="866.24" type="line" smooth="yes"/>
			<point x="702.544" y="775.584"/>
			<point x="733.872" y="752.04"/>
			<point x="811.984" y="752.04" type="curve" smooth="yes"/>
			<point x="895.096" y="752.04"/>
			<point x="973.248" y="771.584"/>
			<point x="1115.696" y="864.064" type="curve"/>
			<point x="1094.88" y="920.36" type="line"/>
			<point x="993.968" y="879.296"/>
			<point x="934.936" y="873.144"/>
			<point x="837.704" y="879.568" type="curve"/>
			<point x="919.24" y="801.76" type="line"/>
			<point x="1129.816" y="1414" type="line"/>
			<point x="924.056" y="1414" type="line"/>
			<point x="852.488" y="1298.944" type="line"/>
			<point x="808.912" y="1187.576" type="line" smooth="yes"/>
			<point x="752.368" y="1043.12"/>
			<point x="644.48" y="897.504"/>
			<point x="565.224" y="897.504" type="curve" smooth="yes"/>
			<point x="518.096" y="897.504"/>
			<point x="499.456" y="917.992"/>
			<point x="499.456" y="962.12" type="curve" smooth="yes"/>
			<point x="499.456" y="1088.552"/>
			<point x="638.128" y="1314.408"/>
			<point x="751.416" y="1314.408" type="curve" smooth="yes"/>
			<point x="794.664" y="1314.408"/>
			<point x="829.608" y="1295.92"/>
			<point x="857.064" y="1232.344" type="curve"/>
			<point x="875.064" y="1259.736" type="line"/>
			<point x="843.912" y="1372.728"/>
			<point x="789.064" y="1430.696"/>
			<point x="696.368" y="1430.696" type="curve" smooth="yes"/>
			<point x="469.304" y="1430.696"/>
			<point x="258.432" y="1150.752"/>
			<point x="258.432" y="926.336" type="curve" smooth="yes"/>
			<point x="258.432" y="810.192"/>
			<point x="334.032" y="752.04"/>
			<point x="440.608" y="752.04" type="curve" smooth="yes"/>
			<point x="548.728" y="752.04"/>
			<point x="640.64" y="797.648"/>
			<point x="781.456" y="1035.488" type="curve"/>
			<point x="796.848" y="1035.488" type="line"/>
		</contour>
	</outline>
</glyph>
<glyph name="guillemotleft" format="2">
  <advance width="1273"/>
  <unicode hex="00AB"/>
  <outline>
    <contour>
      <point x="352.01599999999996" y="539.0880000000001" type="line"/>
      <point x="324.232" y="447.31199999999995" type="line"/>
      <point x="763.632" y="880.4559999999999" type="line"/>
      <point x="655.712" y="1020.432" type="line"/>
      <point x="123.0" y="622.832" type="line"/>
      <point x="61.192" y="421.168" type="line"/>
      <point x="372.48" y="23.567999999999998" type="line"/>
      <point x="529.936" y="107.16000000000001" type="line"/>
    </contour>
    <contour>
      <point x="879.3599999999999" y="539.0880000000001" type="line"/>
      <point x="851.576" y="447.31199999999995" type="line"/>
      <point x="1290.976" y="880.4559999999999" type="line"/>
      <point x="1183.056" y="1020.432" type="line"/>
      <point x="650.344" y="622.832" type="line"/>
      <point x="588.536" y="421.168" type="line"/>
      <point x="899.824" y="23.567999999999998" type="line"/>
      <point x="1057.28" y="107.16000000000001" type="line"/>
    </contour>
  </outline>
</glyph>
<glyph name="logicalnot" format="2">
	<unicode hex="00AC"/>
	<advance width="1200"/>
	<outline>
		<contour>
			<point x="240.608" y="803.8" type="line"/>
			<point x="183.952" y="618.168" type="line"/>
			<point x="875.728" y="618.168" type="line"/>
			<point x="755.272" y="225.8" type="line"/>
			<point x="933.664" y="225.8" type="line"/>
			<point x="1109.776" y="803.8" type="line"/>
		</contour>
	</outline>
</glyph>
<glyph name="registered" format="2">
  <advance width="1254"/>
  <unicode hex="00AE"/>
  <outline>
    <contour>
      <point x="988.52" y="832.832" type="line"/>
      <point x="953.096" y="832.832"/>
      <point x="948.248" y="835.528"/>
      <point x="949.4879999999999" y="873.528" type="curve" smooth="yes"/>
      <point x="950.576" y="917.288" type="line" smooth="yes"/>
      <point x="952.936" y="966.528"/>
      <point x="936.8480000000001" y="988.6800000000001"/>
      <point x="875.096" y="992.6800000000001" type="curve"/>
      <point x="873.3679999999999" y="991.1039999999999" type="line"/>
      <point x="979.912" y="997.408"/>
      <point x="1032.816" y="1049.952"/>
      <point x="1032.816" y="1127.04" type="curve" smooth="yes"/>
      <point x="1032.816" y="1190.128"/>
      <point x="990.304" y="1219.976"/>
      <point x="894.6959999999999" y="1219.976" type="curve" smooth="yes"/>
      <point x="714.192" y="1219.976" type="line"/>
      <point x="692.256" y="1137.68" type="line"/>
      <point x="838.7919999999999" y="1137.68" type="line" smooth="yes"/>
      <point x="876.192" y="1137.68"/>
      <point x="888.648" y="1127.528"/>
      <point x="888.648" y="1103.224" type="curve" smooth="yes"/>
      <point x="888.648" y="1056.312"/>
      <point x="863.888" y="1023.7679999999999"/>
      <point x="806.976" y="1023.7679999999999" type="curve" smooth="yes"/>
      <point x="656.952" y="1023.7679999999999" type="line"/>
      <point x="641.288" y="961.136" type="line"/>
      <point x="762.776" y="961.136" type="line" smooth="yes"/>
      <point x="807.896" y="961.136"/>
      <point x="811.744" y="954.712"/>
      <point x="810.1999999999999" y="913.0160000000001" type="curve" smooth="yes"/>
      <point x="805.688" y="841.744" type="line" smooth="yes"/>
      <point x="801.3578947368421" y="778.138947368421"/>
      <point x="831.96" y="765.624"/>
      <point x="971.824" y="778.896" type="curve"/>
    </contour>
    <contour>
      <point x="794.52" y="1219.976" type="line"/>
      <point x="595.928" y="1219.976" type="line"/>
      <point x="583.08" y="1179.0079999999998" type="line"/>
      <point x="635.2320000000001" y="1166.888" type="line"/>
      <point x="533.688" y="832.408" type="line"/>
      <point x="472.84" y="818.864" type="line"/>
      <point x="460.992" y="778.896" type="line"/>
      <point x="704.072" y="778.896" type="line"/>
      <point x="715.92" y="818.864" type="line"/>
      <point x="676.28" y="832.408" type="line"/>
    </contour>
    <contour>
      <point x="726.808" y="624.992" type="curve" smooth="yes"/>
      <point x="486.896" y="624.992"/>
      <point x="373.48" y="722.536"/>
      <point x="373.48" y="891.32" type="curve" smooth="yes"/>
      <point x="373.48" y="1124.064"/>
      <point x="503.344" y="1344.064"/>
      <point x="807.432" y="1344.064" type="curve" smooth="yes"/>
      <point x="1047.344" y="1344.064"/>
      <point x="1160.76" y="1246.096"/>
      <point x="1160.76" y="1077.7359999999999" type="curve" smooth="yes"/>
      <point x="1160.76" y="844.568"/>
      <point x="1030.896" y="624.992"/>
    </contour>
    <contour>
      <point x="817.888" y="1438.24" type="curve" smooth="yes"/>
      <point x="448.328" y="1438.24"/>
      <point x="261.67199999999997" y="1176.128"/>
      <point x="261.67199999999997" y="880.688" type="curve" smooth="yes"/>
      <point x="261.67199999999997" y="654.9359999999999"/>
      <point x="424.872" y="530.816"/>
      <point x="716.352" y="530.816" type="curve" smooth="yes"/>
      <point x="1085.488" y="530.816"/>
      <point x="1272.568" y="792.928"/>
      <point x="1272.568" y="1087.7920000000001" type="curve" smooth="yes"/>
      <point x="1272.568" y="1313.5439999999999"/>
      <point x="1109.368" y="1438.24"/>
    </contour>
  </outline>
</glyph>
<glyph name="degree" format="2">
	<unicode hex="00B0"/>
	<advance width="788.616"/>
	<outline>
		<contour>
			<point x="611.976" y="1434" type="curve" smooth="yes"/>
			<point x="405.736" y="1434"/>
			<point x="270.976" y="1276.576"/>
			<point x="270.976" y="1095.544" type="curve" smooth="yes"/>
			<point x="270.976" y="945.304"/>
			<point x="381.216" y="846"/>
			<point x="541.792" y="846" type="curve" smooth="yes"/>
			<point x="748.032" y="846"/>
			<point x="882.792" y="1003.424"/>
			<point x="882.792" y="1184.456" type="curve" smooth="yes"/>
			<point x="882.792" y="1334.696"/>
			<point x="772.552" y="1434"/>
		</contour>
		<contour>
			<point x="555.76" y="962.68" type="curve" smooth="yes"/>
			<point x="459.6" y="962.68"/>
			<point x="399.624" y="1018.928"/>
			<point x="399.624" y="1110.632" type="curve" smooth="yes"/>
			<point x="399.624" y="1222.856"/>
			<point x="476.088" y="1317.32"/>
			<point x="596.584" y="1317.32" type="curve" smooth="yes"/>
			<point x="694.168" y="1317.32"/>
			<point x="754.144" y="1261.072"/>
			<point x="754.144" y="1169.368" type="curve" smooth="yes"/>
			<point x="754.144" y="1057.144"/>
			<point x="677.68" y="962.68"/>
		</contour>
	</outline>
</glyph>
<glyph name="plusminus" format="2">
	<unicode hex="00B1"/>
	<advance width="1200"/>
	<outline>
		<contour>
			<point x="670.136" y="1035.936" type="line"/>
			<point x="400.656" y="155.68" type="line"/>
			<point x="579.048" y="155.68" type="line"/>
			<point x="848.528" y="1035.936" type="line"/>
		</contour>
		<contour>
			<point x="226.576" y="688.624" type="line"/>
			<point x="169.92" y="502.992" type="line"/>
			<point x="1022.608" y="502.992" type="line"/>
			<point x="1079.264" y="688.624" type="line"/>
		</contour>
		<contour>
			<point x="73.448" y="185.632" type="line"/>
			<point x="16.216" y="0" type="line"/>
			<point x="868.904" y="0" type="line"/>
			<point x="926.136" y="185.632" type="line"/>
		</contour>
	</outline>
</glyph>
<glyph name="uni00B2" format="2">
	<unicode hex="00B2"/>
	<advance width="820.288"/>
	<outline>
		<contour>
			<point x="607.296" y="748.784" type="line"/>
			<point x="812.272" y="851.976" type="line"/>
			<point x="365.248" y="851.976" type="line"/>
			<point x="352.832" y="799.824" type="line"/>
			<point x="580.304" y="922.936" type="line" smooth="yes"/>
			<point x="839.408" y="1054.76"/>
			<point x="885.04" y="1138.944"/>
			<point x="885.04" y="1252.576" type="curve" smooth="yes"/>
			<point x="885.04" y="1372.816"/>
			<point x="786.528" y="1434.544"/>
			<point x="627.688" y="1434.544" type="curve" smooth="yes"/>
			<point x="442.936" y="1434.544"/>
			<point x="341.664" y="1362.12"/>
			<point x="257.584" y="1171.576" type="curve"/>
			<point x="346.824" y="1123.856" type="line"/>
			<point x="398.336" y="1224.136"/>
			<point x="447.792" y="1265.112"/>
			<point x="531.768" y="1265.112" type="curve" smooth="yes"/>
			<point x="603.68" y="1265.112"/>
			<point x="644.712" y="1233.592"/>
			<point x="644.712" y="1178.8" type="curve" smooth="yes"/>
			<point x="644.712" y="1115.192"/>
			<point x="614.832" y="1069.28"/>
			<point x="430.808" y="945.552" type="curve" smooth="yes"/>
			<point x="207.792" y="787.2" type="line"/>
			<point x="168.856" y="662" type="line"/>
			<point x="650.688" y="662" type="line"/>
			<point x="674.408" y="627.272" type="line"/>
			<point x="733.952" y="627.272" type="line"/>
			<point x="886.944" y="937.832" type="line"/>
			<point x="797.944" y="937.832" type="line"/>
		</contour>
	</outline>
</glyph>
<glyph name="uni00B3" format="2">
	<unicode hex="00B3"/>
	<advance width="781.32"/>
	<outline>
		<contour>
			<point x="425.976" y="981.736" type="line"/>
			<point x="479.576" y="984.04" type="line" smooth="yes"/>
			<point x="573.528" y="990.376"/>
			<point x="606.92" y="966.888"/>
			<point x="606.92" y="907.552" type="curve" smooth="yes"/>
			<point x="606.92" y="817.728"/>
			<point x="538.008" y="758.296"/>
			<point x="413.544" y="758.296" type="curve" smooth="yes"/>
			<point x="302.088" y="758.296"/>
			<point x="259.544" y="846.328"/>
			<point x="245.848" y="846.328" type="curve" smooth="yes"/>
			<point x="187.944" y="846.328"/>
			<point x="153.584" y="807.36"/>
			<point x="153.584" y="753.152" type="curve" smooth="yes"/>
			<point x="153.584" y="700.76"/>
			<point x="203.704" y="648.184"/>
			<point x="383.664" y="648.184" type="curve" smooth="yes"/>
			<point x="686.104" y="648.184"/>
			<point x="828.192" y="770.76"/>
			<point x="828.192" y="940.848" type="curve" smooth="yes"/>
			<point x="828.192" y="1036.816"/>
			<point x="760.528" y="1101.664"/>
			<point x="631.408" y="1099.36" type="curve"/>
			<point x="631.408" y="1094.512" type="line"/>
			<point x="798.824" y="1114.48"/>
			<point x="857.952" y="1186.512"/>
			<point x="857.952" y="1280.032" type="curve" smooth="yes"/>
			<point x="857.952" y="1372.216"/>
			<point x="798.736" y="1432.24"/>
			<point x="647.44" y="1432.24" type="curve" smooth="yes"/>
			<point x="445.416" y="1432.24"/>
			<point x="351.728" y="1349.24"/>
			<point x="286.432" y="1207.824" type="curve"/>
			<point x="368.76" y="1162.344" type="line"/>
			<point x="412.64" y="1245.864"/>
			<point x="465.064" y="1279.832"/>
			<point x="542.28" y="1279.832" type="curve" smooth="yes"/>
			<point x="607.616" y="1279.832"/>
			<point x="643.376" y="1258.256"/>
			<point x="643.376" y="1204.376" type="curve" smooth="yes"/>
			<point x="643.376" y="1137.008"/>
			<point x="606.888" y="1090.76"/>
			<point x="434.616" y="1074.728" type="curve"/>
		</contour>
	</outline>
</glyph>
<glyph name="uni00B5" format="2">
	<unicode hex="00B5"/>
	<advance width="1505.4"/>
	<outline>
		<contour>
			<point x="917.552" y="702.232" type="line"/>
			<point x="765.16" y="282.464"/>
			<point x="635.472" y="196.144"/>
			<point x="532.32" y="196.144" type="curve" smooth="yes"/>
			<point x="473.976" y="196.144"/>
			<point x="449.88" y="221.968"/>
			<point x="449.88" y="263.336" type="curve" smooth="yes"/>
			<point x="449.88" y="291.184"/>
			<point x="459.728" y="329.576"/>
			<point x="484.872" y="404.92" type="curve" smooth="yes"/>
			<point x="686.304" y="1032.48" type="line"/>
			<point x="380.52" y="1032.48" type="line"/>
			<point x="-75.296" y="-457.968" type="line"/>
			<point x="-27.24" y="-457.968" type="line"/>
			<point x="195.88" y="-437.184" type="line"/>
			<point x="252.52" y="145.336" type="line"/>
			<point x="222.648" y="173.32" type="line"/>
			<point x="223.8" y="59.328"/>
			<point x="278.84" y="-24.24"/>
			<point x="430.464" y="-24.24" type="curve" smooth="yes"/>
			<point x="599.832" y="-24.24"/>
			<point x="690.2" y="34.184"/>
			<point x="913.816" y="468" type="curve"/>
			<point x="948.208" y="468" type="line"/>
			<point x="828.808" y="123.496" type="line" smooth="yes"/>
			<point x="792.208" y="18.664"/>
			<point x="829.504" y="-24.24"/>
			<point x="925.312" y="-24.24" type="curve" smooth="yes"/>
			<point x="1024.208" y="-24.24"/>
			<point x="1194.16" y="25.6"/>
			<point x="1414.336" y="206.896" type="curve"/>
			<point x="1362.856" y="289.92" type="line"/>
			<point x="1207.04" y="191.768"/>
			<point x="1084.456" y="164.344"/>
			<point x="957.96" y="174.072" type="curve"/>
			<point x="1033.336" y="71.336" type="line"/>
			<point x="1347.152" y="1032.48" type="line"/>
			<point x="1041.792" y="1032.48" type="line"/>
		</contour>
	</outline>
</glyph>
<glyph name="paragraph" format="2">
	<unicode hex="00B6"/>
	<advance width="1368.976"/>
	<outline>
		<contour>
			<point x="557.336" y="-219.88" type="line"/>
			<point x="1015.128" y="1276.376" type="line"/>
			<point x="1248.248" y="1276.376" type="line"/>
			<point x="1290.032" y="1414" type="line"/>
			<point x="903.656" y="1414" type="line"/>
			<point x="403.504" y="-219.88" type="line"/>
		</contour>
		<contour>
			<point x="870.088" y="-219.88" type="line"/>
			<point x="1327.728" y="1277.072" type="line"/>
			<point x="1518.008" y="1311.976" type="line"/>
			<point x="1549.4" y="1414" type="line"/>
			<point x="1216.408" y="1414" type="line"/>
			<point x="716.832" y="-219.88" type="line"/>
		</contour>
		<contour>
			<point x="1005.304" y="1414" type="line"/>
			<point x="722.432" y="1414" type="line" smooth="yes"/>
			<point x="348.568" y="1414"/>
			<point x="210.28" y="1166.736"/>
			<point x="210.28" y="913.84" type="curve" smooth="yes"/>
			<point x="210.28" y="746.336"/>
			<point x="312.848" y="671.28"/>
			<point x="519.744" y="671.28" type="curve" smooth="yes"/>
			<point x="778.376" y="671.28" type="line"/>
		</contour>
	</outline>
</glyph>
<glyph name="uni00B9" format="2">
  <advance width="687.448"/>
  <unicode hex="00B9"/>
  <outline>
    <contour>
      <point x="336.952" y="769.664" type="line"/>
      <point x="203.064" y="736.968" type="line"/>
      <point x="180.792" y="662.0" type="line"/>
      <point x="665.48" y="662.0" type="line"/>
      <point x="687.752" y="736.968" type="line"/>
      <point x="574.008" y="769.664" type="line"/>
      <point x="771.16" y="1414.0" type="line"/>
      <point x="604.2479999999999" y="1414.0" type="line"/>
      <point x="261.736" y="1269.944" type="line"/>
      <point x="287.552" y="1172.432" type="line"/>
      <point x="557.68" y="1246.616" type="line"/>
      <point x="514.5279999999999" y="1349.696" type="line"/>
    </contour>
  </outline>
</glyph>
<glyph name="guillemotright" format="2">
	<unicode hex="00BB"/>
	<advance width="1301.8"/>
	<outline>
		<contour>
			<point x="405.592" y="505.336" type="line"/>
			<point x="433.376" y="597.112" type="line"/>
			<point x="-6.024" y="163.968" type="line"/>
			<point x="101.896" y="23.992" type="line"/>
			<point x="634.608" y="421.592" type="line"/>
			<point x="696.416" y="623.256" type="line"/>
			<point x="385.128" y="1020.856" type="line"/>
			<point x="227.672" y="937.264" type="line"/>
		</contour>
		<contour>
			<point x="932.936" y="505.336" type="line"/>
			<point x="960.72" y="597.112" type="line"/>
			<point x="521.32" y="163.968" type="line"/>
			<point x="629.24" y="23.992" type="line"/>
			<point x="1161.952" y="421.592" type="line"/>
			<point x="1223.76" y="623.256" type="line"/>
			<point x="912.472" y="1020.856" type="line"/>
			<point x="755.016" y="937.264" type="line"/>
		</contour>
	</outline>
</glyph>
<glyph name="questiondown" format="2">
  <advance width="1277"/>
  <unicode hex="00BF"/>
  <outline>
    <contour>
      <point x="720.088" y="704.912" type="curve" smooth="yes"/>
      <point x="889.0" y="704.912"/>
      <point x="963.5999999999999" y="806.992"/>
      <point x="963.5999999999999" y="926.464" type="curve" smooth="yes"/>
      <point x="963.5999999999999" y="1006.1519999999999"/>
      <point x="914.424" y="1051.328"/>
      <point x="819.528" y="1051.328" type="curve" smooth="yes"/>
      <point x="650.616" y="1051.328"/>
      <point x="576.0160000000001" y="949.248"/>
      <point x="576.0160000000001" y="830.352" type="curve" smooth="yes"/>
      <point x="576.0160000000001" y="750.0880000000001"/>
      <point x="625.192" y="704.912"/>
    </contour>
    <contour>
      <point x="542.048" y="-410.0" type="curve" smooth="yes"/>
      <point x="883.9200000000001" y="-410.0"/>
      <point x="999.024" y="-318.312"/>
      <point x="999.024" y="-195.42399999999998" type="curve" smooth="yes"/>
      <point x="999.024" y="-120.52800000000002"/>
      <point x="943.336" y="-68.568"/>
      <point x="861.016" y="-68.568" type="curve" smooth="yes"/>
      <point x="822.4399999999999" y="-68.568"/>
      <point x="750.48" y="-230.00799999999998"/>
      <point x="532.1279999999999" y="-230.00799999999998" type="curve" smooth="yes"/>
      <point x="353.936" y="-230.00799999999998"/>
      <point x="267.536" y="-132.416"/>
      <point x="267.536" y="-1.6480000000000032" type="curve" smooth="yes"/>
      <point x="267.536" y="157.368"/>
      <point x="357.448" y="226.648"/>
      <point x="708.608" y="201.92000000000002" type="curve"/>
      <point x="786.912" y="555.504" type="line"/>
      <point x="589.2320000000001" y="555.504" type="line"/>
      <point x="469.752" y="305.056" type="line"/>
      <point x="594.0959999999999" y="392.47999999999996" type="line"/>
      <point x="133.632" y="421.96"/>
      <point x="-36.176" y="273.26399999999995"/>
      <point x="-36.176" y="15.84" type="curve" smooth="yes"/>
      <point x="-36.176" y="-223.44"/>
      <point x="171.592" y="-410.0"/>
    </contour>
  </outline>
</glyph>
<glyph name="AE" format="2">
	<unicode hex="00C6"/>
	<advance width="2329.68"/>
	<outline>
		<contour>
			<point x="283.136" y="152.208" type="line"/>
			<point x="1298.528" y="1244.832" type="line"/>
			<point x="1298.624" y="1247.8" type="line"/>
			<point x="962.256" y="155.176" type="line"/>
			<point x="780.432" y="103.392" type="line"/>
			<point x="748.584" y="0" type="line"/>
			<point x="1251.608" y="0" type="line"/>
			<point x="1685.728" y="1414" type="line"/>
			<point x="881.344" y="1414" type="line"/>
			<point x="849.92" y="1310.608" type="line"/>
			<point x="1063.008" y="1251.072" type="line"/>
			<point x="37.072" y="152.208" type="line"/>
			<point x="-127.448" y="103.392" type="line"/>
			<point x="-160.144" y="0" type="line"/>
			<point x="406.808" y="0" type="line"/>
			<point x="438.504" y="103.392" type="line"/>
		</contour>
		<contour>
			<point x="1825.208" y="-85.144" type="line"/>
			<point x="1961.472" y="-85.144" type="line"/>
			<point x="2252.608" y="452.104" type="line"/>
			<point x="2092.168" y="452.104" type="line"/>
			<point x="1738.496" y="80.48" type="line"/>
			<point x="1910.888" y="183.312" type="line"/>
			<point x="1138.632" y="183.312" type="line"/>
			<point x="1082.152" y="0" type="line"/>
			<point x="1788.904" y="0" type="line"/>
		</contour>
		<contour>
			<point x="482.288" y="457.536" type="line"/>
			<point x="1150.68" y="457.536" type="line"/>
			<point x="1210.976" y="636.184" type="line"/>
			<point x="542.008" y="636.184" type="line"/>
		</contour>
		<contour>
			<point x="1711.76" y="480" type="line"/>
			<point x="1856.112" y="480" type="line"/>
			<point x="1934.112" y="735" type="line"/>
			<point x="2012.112" y="990" type="line"/>
			<point x="1867.76" y="990" type="line"/>
			<point x="1800.152" y="822.296" type="line"/>
			<point x="1333.968" y="822.296" type="line"/>
			<point x="1280.76" y="651.704" type="line"/>
			<point x="1748.368" y="651.704" type="line"/>
		</contour>
		<contour>
			<point x="2173.088" y="1020.376" type="line"/>
			<point x="2331.952" y="1020.376" type="line"/>
			<point x="2461.864" y="1495.872" type="line"/>
			<point x="2344.144" y="1495.872" type="line"/>
			<point x="2227.728" y="1414" type="line"/>
			<point x="1514.152" y="1414" type="line"/>
			<point x="1458.52" y="1230.688" type="line"/>
			<point x="2232" y="1230.688" type="line"/>
			<point x="2184.608" y="1336.488" type="line"/>
		</contour>
	</outline>
	<anchor name="UCtop" x="1513.248" y="1414"/>
	<anchor name="bottom" x="1080.248" y="0"/>
</glyph>
<glyph name="Ccedilla" format="2">
	<unicode hex="00C7"/>
	<advance width="1553.16"/>
	<outline>
		<contour>
			<point x="1223.688" y="225.504" type="line"/>
			<point x="1117.256" y="189.136"/>
			<point x="999.52" y="164.92"/>
			<point x="906.624" y="164.92" type="curve" smooth="yes"/>
			<point x="644.28" y="164.92"/>
			<point x="495.848" y="291.232"/>
			<point x="495.848" y="566.904" type="curve" smooth="yes"/>
			<point x="495.848" y="960.424"/>
			<point x="692.312" y="1237.296"/>
			<point x="1129.4" y="1237.296" type="curve" smooth="yes"/>
			<point x="1236.528" y="1237.296"/>
			<point x="1328.136" y="1218.752"/>
			<point x="1403.48" y="1168.808" type="curve"/>
			<point x="1342.504" y="1303.136" type="line"/>
			<point x="1360.176" y="932.864" type="line"/>
			<point x="1532.008" y="932.864" type="line"/>
			<point x="1649.184" y="1495.872" type="line"/>
			<point x="1521.648" y="1495.872" type="line"/>
			<point x="1377.72" y="1366.336" type="line"/>
			<point x="1524.032" y="1374.424" type="line"/>
			<point x="1421.128" y="1413.24"/>
			<point x="1303.312" y="1438.24"/>
			<point x="1156.136" y="1438.24" type="curve" smooth="yes"/>
			<point x="488.256" y="1438.24"/>
			<point x="161.824" y="1059.544"/>
			<point x="161.824" y="551.904" type="curve" smooth="yes"/>
			<point x="161.824" y="205.84"/>
			<point x="360.52" y="-24.24"/>
			<point x="813.408" y="-24.24" type="curve" smooth="yes"/>
			<point x="1008.52" y="-24.24"/>
			<point x="1158.736" y="3.64"/>
			<point x="1281.944" y="44.704" type="curve"/>
			<point x="1455.024" y="464.104" type="line"/>
			<point x="1286.704" y="464.104" type="line"/>
			<point x="999.152" y="90.424" type="line"/>
		</contour>
		<contour>
			<point x="592.256" y="-380.768" type="curve" smooth="yes"/>
			<point x="524.256" y="-380.768"/>
			<point x="483.504" y="-331.008"/>
			<point x="464.688" y="-331.008" type="curve" smooth="yes"/>
			<point x="432.992" y="-331.008"/>
			<point x="409.448" y="-359.552"/>
			<point x="409.448" y="-395.064" type="curve" smooth="yes"/>
			<point x="409.448" y="-441.848"/>
			<point x="445.688" y="-465"/>
			<point x="554.472" y="-465" type="curve"/>
			<point x="788.056" y="-465"/>
			<point x="879.328" y="-370.304"/>
			<point x="879.328" y="-243.28" type="curve" smooth="yes"/>
			<point x="879.328" y="-171.192"/>
			<point x="828.936" y="-116.376"/>
			<point x="667.096" y="-89.192" type="curve"/>
			<point x="651.8" y="-177.328" type="line"/>
			<point x="880.384" y="31.72" type="line"/>
			<point x="760.096" y="31.72" type="line"/>
			<point x="530.264" y="-183.424" type="line"/>
			<point x="520.872" y="-214.024" type="line"/>
			<point x="669.2" y="-232.512"/>
			<point x="707.504" y="-256.848"/>
			<point x="707.504" y="-295.032" type="curve" smooth="yes"/>
			<point x="707.504" y="-347.4"/>
			<point x="669.712" y="-380.768"/>
		</contour>
	</outline>
</glyph>
<glyph name="multiply" format="2">
	<unicode hex="00D7"/>
	<advance width="1200"/>
	<outline>
		<contour>
			<point x="116.496" y="257.2" type="line"/>
			<point x="208.752" y="112.136" type="line"/>
			<point x="1082.352" y="778.736" type="line"/>
			<point x="990.096" y="923.8" type="line"/>
		</contour>
		<contour>
			<point x="302.68" y="821.848" type="line"/>
			<point x="742.288" y="112.136" type="line"/>
			<point x="898.44" y="209.544" type="line"/>
			<point x="457.136" y="923.8" type="line"/>
		</contour>
	</outline>
</glyph>
<glyph name="Oslash" format="2">
	<unicode hex="00D8"/>
	<advance width="1731.72"/>
	<outline>
		<contour>
			<point x="1902.432" y="1414" type="line"/>
			<point x="1642.344" y="1414" type="line"/>
			<point x="1441.288" y="1247.728" type="line"/>
			<point x="1361.696" y="1185.28" type="line"/>
			<point x="396.576" y="357.672" type="line"/>
			<point x="296.928" y="290.832" type="line"/>
			<point x="-55.136" y="0" type="line"/>
			<point x="204.952" y="0" type="line"/>
			<point x="406.008" y="166.272" type="line"/>
			<point x="485.6" y="228.72" type="line"/>
			<point x="1450.72" y="1056.328" type="line"/>
			<point x="1550.368" y="1123.168" type="line"/>
		</contour>
		<contour>
			<point x="490.304" y="504.28" type="curve" smooth="yes"/>
			<point x="490.304" y="878.144"/>
			<point x="688.6" y="1233.328"/>
			<point x="1041.592" y="1233.328" type="curve" smooth="yes"/>
			<point x="1256.376" y="1233.328"/>
			<point x="1356.992" y="1116.704"/>
			<point x="1356.992" y="909.72" type="curve" smooth="yes"/>
			<point x="1356.992" y="535.856"/>
			<point x="1158.696" y="180.672"/>
			<point x="805.704" y="180.672" type="curve" smooth="yes"/>
			<point x="590.92" y="180.672"/>
			<point x="490.304" y="297.296"/>
		</contour>
		<contour>
			<point x="1682.352" y="888.976" type="curve" smooth="yes"/>
			<point x="1682.352" y="1231.056"/>
			<point x="1471.992" y="1438.24"/>
			<point x="1051.136" y="1438.24" type="curve" smooth="yes"/>
			<point x="517.528" y="1438.24"/>
			<point x="164.944" y="1025.56"/>
			<point x="164.944" y="525.024" type="curve" smooth="yes"/>
			<point x="164.944" y="182.944"/>
			<point x="375.304" y="-24.24"/>
			<point x="796.16" y="-24.24" type="curve" smooth="yes"/>
			<point x="1329.768" y="-24.24"/>
			<point x="1682.352" y="388.44"/>
		</contour>
	</outline>
	<anchor name="UCtop" x="1105.208" y="1414"/>
	<anchor name="bottom" x="714.816" y="0"/>
</glyph>
<glyph name="Thorn" format="2">
	<unicode hex="00DE"/>
	<advance width="1482.208"/>
	<outline>
		<contour>
			<point x="825.864" y="457.712" type="curve" smooth="yes"/>
			<point x="407.376" y="457.712" type="line"/>
			<point x="324.88" y="274.4" type="line"/>
			<point x="830.448" y="274.4" type="line" smooth="yes"/>
			<point x="1261.712" y="274.4"/>
			<point x="1453.504" y="516.08"/>
			<point x="1453.504" y="812.24" type="curve" smooth="yes"/>
			<point x="1453.504" y="1027.024"/>
			<point x="1320.504" y="1149.232"/>
			<point x="975.616" y="1149.232" type="curve" smooth="yes"/>
			<point x="598.024" y="1149.232" type="line"/>
			<point x="572.496" y="965.92" type="line"/>
			<point x="886.72" y="965.92" type="line" smooth="yes"/>
			<point x="1067.472" y="965.92"/>
			<point x="1132.72" y="910.184"/>
			<point x="1132.72" y="806.024" type="curve" smooth="yes"/>
			<point x="1132.72" y="621.76"/>
			<point x="1036.312" y="457.712"/>
		</contour>
		<contour>
			<point x="504.8" y="1260.52" type="line"/>
			<point x="164.192" y="155.176" type="line"/>
			<point x="-17.632" y="103.392" type="line"/>
			<point x="-49.48" y="0" type="line"/>
			<point x="638.216" y="0" type="line"/>
			<point x="668.64" y="103.392" type="line"/>
			<point x="500.088" y="153.48" type="line"/>
			<point x="840.696" y="1258.824" type="line"/>
			<point x="1022.52" y="1310.608" type="line"/>
			<point x="1052.944" y="1414" type="line"/>
			<point x="366.672" y="1414" type="line"/>
			<point x="335.248" y="1310.608" type="line"/>
		</contour>
	</outline>
</glyph>
<glyph name="germandbls" format="2">
	<unicode hex="00DF"/>
	<advance width="1605.376"/>
	<outline>
		<contour>
			<point x="138.216" y="887.344" type="line"/>
			<point x="543.616" y="887.344" type="line"/>
			<point x="543.616" y="1032.48" type="line"/>
			<point x="138.216" y="1032.48" type="line"/>
		</contour>
		<contour>
			<point x="563.264" y="301.496" type="curve" smooth="yes"/>
			<point x="731.056" y="1086.96" type="line" smooth="yes"/>
			<point x="771.968" y="1278.736"/>
			<point x="836.616" y="1352.112"/>
			<point x="1014.24" y="1352.112" type="curve" smooth="yes"/>
			<point x="1151.76" y="1352.112"/>
			<point x="1201.096" y="1304.352"/>
			<point x="1201.096" y="1221.04" type="curve" smooth="yes"/>
			<point x="1201.096" y="1135.376"/>
			<point x="1165.552" y="1070.648"/>
			<point x="1037.456" y="980.888" type="curve" smooth="yes"/>
			<point x="906.392" y="889.008"/>
			<point x="868.272" y="812.432"/>
			<point x="868.272" y="717.04" type="curve" smooth="yes"/>
			<point x="868.272" y="623.464"/>
			<point x="910.664" y="554.8"/>
			<point x="1042.152" y="474.16" type="curve" smooth="yes"/>
			<point x="1173.64" y="393.52"/>
			<point x="1207.272" y="342.4"/>
			<point x="1207.272" y="274.368" type="curve" smooth="yes"/>
			<point x="1207.272" y="160"/>
			<point x="1139.016" y="108.384"/>
			<point x="1028.672" y="108.384" type="curve" smooth="yes"/>
			<point x="985.672" y="108.384"/>
			<point x="955.552" y="113.656"/>
			<point x="934.28" y="139.08" type="curve" smooth="yes"/>
			<point x="913.008" y="164.504"/>
			<point x="896.432" y="214.352"/>
			<point x="887.096" y="312.176" type="curve" smooth="yes"/>
			<point x="708.752" y="312.176"/>
			<point x="658.6" y="267.024"/>
			<point x="658.6" y="166.36" type="curve" smooth="yes"/>
			<point x="658.6" y="56.88"/>
			<point x="745.536" y="-24.24"/>
			<point x="987.4" y="-24.24" type="curve" smooth="yes"/>
			<point x="1290.912" y="-24.24"/>
			<point x="1457.944" y="112.24"/>
			<point x="1457.944" y="350.624" type="curve" smooth="yes"/>
			<point x="1457.944" y="465.832"/>
			<point x="1404.92" y="558.888"/>
			<point x="1277.584" y="643.072" type="curve" smooth="yes"/>
			<point x="1150.248" y="727.256"/>
			<point x="1121.192" y="768.376"/>
			<point x="1121.192" y="814.864" type="curve" smooth="yes"/>
			<point x="1121.192" y="875.776"/>
			<point x="1152.104" y="915.568"/>
			<point x="1286.8" y="987.12" type="curve" smooth="yes"/>
			<point x="1421.496" y="1058.672"/>
			<point x="1473.224" y="1133.736"/>
			<point x="1473.224" y="1242.312" type="curve" smooth="yes"/>
			<point x="1473.224" y="1388.368"/>
			<point x="1361.864" y="1488.24"/>
			<point x="1056.216" y="1488.24" type="curve" smooth="yes"/>
			<point x="696.64" y="1488.24"/>
			<point x="480.488" y="1329.12"/>
			<point x="417.488" y="988.248" type="curve" smooth="yes"/>
			<point x="231.008" y="-23.192" type="line" smooth="yes"/>
			<point x="187.816" y="-250.88"/>
			<point x="109.832" y="-325.472"/>
			<point x="5.856" y="-325.472" type="curve" smooth="yes"/>
			<point x="-32.872" y="-325.472"/>
			<point x="-58.024" y="-319.896"/>
			<point x="-77.568" y="-293.776" type="curve" smooth="yes"/>
			<point x="-97.112" y="-267.656"/>
			<point x="-105.264" y="-219.144"/>
			<point x="-111.144" y="-132.696" type="curve" smooth="yes"/>
			<point x="-262.792" y="-132.696"/>
			<point x="-327.632" y="-182.48"/>
			<point x="-327.632" y="-281.896" type="curve" smooth="yes"/>
			<point x="-327.632" y="-398.64"/>
			<point x="-257.664" y="-465"/>
			<point x="-81.688" y="-465" type="curve" smooth="yes"/>
			<point x="214.392" y="-465"/>
			<point x="446.944" y="-236.336"/>
		</contour>
	</outline>
</glyph>
<glyph name="ccedilla" format="2">
	<unicode hex="00E7"/>
	<advance width="1106.56"/>
	<outline>
		<contour>
			<point x="246.144" y="-465" type="curve"/>
			<point x="479.728" y="-465"/>
			<point x="571" y="-370.304"/>
			<point x="571" y="-243.28" type="curve" smooth="yes"/>
			<point x="571" y="-171.192"/>
			<point x="520.608" y="-116.376"/>
			<point x="358.768" y="-89.192" type="curve"/>
			<point x="343.472" y="-177.328" type="line"/>
			<point x="572.056" y="31.72" type="line"/>
			<point x="451.768" y="31.72" type="line"/>
			<point x="221.936" y="-183.424" type="line"/>
			<point x="212.544" y="-214.024" type="line"/>
			<point x="360.872" y="-232.512"/>
			<point x="399.176" y="-256.848"/>
			<point x="399.176" y="-295.032" type="curve" smooth="yes"/>
			<point x="399.176" y="-347.4"/>
			<point x="361.384" y="-380.768"/>
			<point x="283.928" y="-380.768" type="curve" smooth="yes"/>
			<point x="215.928" y="-380.768"/>
			<point x="175.176" y="-331.008"/>
			<point x="156.36" y="-331.008" type="curve" smooth="yes"/>
			<point x="124.664" y="-331.008"/>
			<point x="101.12" y="-359.552"/>
			<point x="101.12" y="-395.064" type="curve" smooth="yes"/>
			<point x="101.12" y="-441.848"/>
			<point x="137.36" y="-465"/>
		</contour>
		<contour>
			<point x="719.488" y="921.52" type="curve" smooth="yes"/>
			<point x="758.936" y="921.52"/>
			<point x="799.328" y="880.496"/>
			<point x="842.208" y="818.496" type="curve" smooth="yes"/>
			<point x="885.088" y="756.496"/>
			<point x="917.816" y="710.96"/>
			<point x="941.544" y="710.96" type="curve" smooth="yes"/>
			<point x="1022.168" y="710.96"/>
			<point x="1100.04" y="775.744"/>
			<point x="1100.04" y="864.248" type="curve" smooth="yes"/>
			<point x="1100.04" y="973.12"/>
			<point x="994.312" y="1056.72"/>
			<point x="767.032" y="1056.72" type="curve" smooth="yes"/>
			<point x="349.576" y="1056.72"/>
			<point x="76.064" y="745.656"/>
			<point x="76.064" y="360.496" type="curve" smooth="yes"/>
			<point x="76.064" y="97.088"/>
			<point x="208.664" y="-24.24"/>
			<point x="483.52" y="-24.24" type="curve" smooth="yes"/>
			<point x="733.992" y="-24.24"/>
			<point x="896.648" y="102.368"/>
			<point x="1008.312" y="380.128" type="curve"/>
			<point x="904.04" y="380.128" type="line"/>
			<point x="816.432" y="236.576"/>
			<point x="715.184" y="180.152"/>
			<point x="582.64" y="180.152" type="curve" smooth="yes"/>
			<point x="435.128" y="180.152"/>
			<point x="372.728" y="237.152"/>
			<point x="372.728" y="418.064" type="curve" smooth="yes"/>
			<point x="372.728" y="710.656"/>
			<point x="512.624" y="921.52"/>
		</contour>
	</outline>
</glyph>
<glyph name="eth" format="2">
	<unicode hex="00F0"/>
	<advance width="1247.256"/>
	<outline>
		<contour>
			<point x="913.792" y="662.944" type="line"/>
			<point x="910.912" y="845.688"/>
			<point x="830.36" y="994.192"/>
			<point x="612.08" y="994.192" type="curve" smooth="yes"/>
			<point x="312.104" y="994.192"/>
			<point x="71.368" y="700.632"/>
			<point x="71.368" y="336.384" type="curve" smooth="yes"/>
			<point x="71.368" y="131.176"/>
			<point x="206.184" y="-24.24"/>
			<point x="502.944" y="-24.24" type="curve" smooth="yes"/>
			<point x="924.784" y="-24.24"/>
			<point x="1181.824" y="333.648"/>
			<point x="1181.824" y="778.336" type="curve" smooth="yes"/>
			<point x="1181.824" y="1142.464"/>
			<point x="993.6" y="1415.112"/>
			<point x="386.624" y="1488.24" type="curve"/>
			<point x="351.992" y="1344.536" type="line"/>
			<point x="848.32" y="1243.784"/>
			<point x="960.992" y="1071.344"/>
			<point x="862.328" y="582.384" type="curve"/>
		</contour>
		<contour>
			<point x="521.664" y="157.608" type="curve" smooth="yes"/>
			<point x="421.288" y="157.608"/>
			<point x="367.52" y="211.6669090909"/>
			<point x="367.52" y="319.384" type="curve" smooth="yes"/>
			<point x="367.52" y="560.156887372"/>
			<point x="499.48" y="830.152"/>
			<point x="717.536" y="830.152" type="curve" smooth="yes"/>
			<point x="817.488" y="830.152"/>
			<point x="871.256" y="776.0930909091"/>
			<point x="871.256" y="667.528" type="curve" smooth="yes"/>
			<point x="871.256" y="427.179112628"/>
			<point x="739.72" y="157.608"/>
		</contour>
		<contour>
			<point x="530.6" y="1034.344" type="line"/>
			<point x="1139.464" y="1383.456" type="line"/>
			<point x="1080.648" y="1488.24" type="line"/>
			<point x="471.784" y="1139.128" type="line"/>
		</contour>
	</outline>
</glyph>
<glyph name="divide" format="2">
	<unicode hex="00F7"/>
	<advance width="1200"/>
	<outline>
		<contour>
			<point x="202.12" y="610.496" type="line"/>
			<point x="145.464" y="425.44" type="line"/>
			<point x="998.152" y="425.44" type="line"/>
			<point x="1054.808" y="610.496" type="line"/>
		</contour>
		<contour>
			<point x="739.112" y="1030.8" type="curve" smooth="yes"/>
			<point x="629.944" y="1030.8"/>
			<point x="563.224" y="954.904"/>
			<point x="563.224" y="862.184" type="curve" smooth="yes"/>
			<point x="563.224" y="789.64"/>
			<point x="608.344" y="744.856"/>
			<point x="687.4" y="744.856" type="curve" smooth="yes"/>
			<point x="796.568" y="744.856"/>
			<point x="862.712" y="820.752"/>
			<point x="862.712" y="913.472" type="curve" smooth="yes"/>
			<point x="862.712" y="986.592"/>
			<point x="817.592" y="1030.8"/>
		</contour>
		<contour>
			<point x="512.872" y="291.08" type="curve" smooth="yes"/>
			<point x="403.704" y="291.08"/>
			<point x="336.984" y="215.184"/>
			<point x="336.984" y="122.464" type="curve" smooth="yes"/>
			<point x="336.984" y="49.92"/>
			<point x="382.104" y="5.136"/>
			<point x="461.16" y="5.136" type="curve" smooth="yes"/>
			<point x="570.328" y="5.136"/>
			<point x="636.472" y="81.032"/>
			<point x="636.472" y="173.752" type="curve" smooth="yes"/>
			<point x="636.472" y="246.872"/>
			<point x="591.352" y="291.08"/>
		</contour>
	</outline>
</glyph>
<glyph name="oslash" format="2">
  <advance width="1293"/>
  <unicode hex="00F8"/>
  <anchor x="787.776" y="1032.48" name="top"/>
  <anchor x="490.91200000000003" y="0.0" name="bottom"/>
  <outline>
    <contour>
      <point x="759.864" y="1056.72" type="curve" smooth="yes"/>
      <point x="355.288" y="1056.72"/>
      <point x="99.21600000000001" y="723.48"/>
      <point x="99.21600000000001" y="359.68" type="curve" smooth="yes"/>
      <point x="99.21600000000001" y="141.112"/>
      <point x="234.456" y="-24.240000000000002"/>
      <point x="532.4879999999999" y="-24.240000000000002" type="curve" smooth="yes"/>
      <point x="937.064" y="-24.240000000000002"/>
      <point x="1193.1360000000002" y="309.0"/>
      <point x="1193.1360000000002" y="672.8" type="curve" smooth="yes"/>
      <point x="1193.1360000000002" y="891.3679999999999"/>
      <point x="1057.896" y="1056.72"/>
    </contour>
    <contour>
      <point x="547.816" y="159.304" type="curve" smooth="yes"/>
      <point x="447.864" y="159.304"/>
      <point x="393.672" y="216.648"/>
      <point x="393.672" y="332.352" type="curve" smooth="yes"/>
      <point x="393.672" y="585.872"/>
      <point x="526.056" y="873.176"/>
      <point x="744.5360000000001" y="873.176" type="curve" smooth="yes"/>
      <point x="844.4879999999999" y="873.176"/>
      <point x="898.68" y="815.832"/>
      <point x="898.68" y="700.1279999999999" type="curve" smooth="yes"/>
      <point x="898.68" y="446.608"/>
      <point x="766.2959999999999" y="159.304"/>
    </contour>
    <contour>
      <point x="1170.048" y="1032.48" type="line"/>
      <point x="1002.576" y="893.5759999999999" type="line"/>
      <point x="952.736" y="868.36" type="line"/>
      <point x="257.76" y="246.20000000000002" type="line"/>
      <point x="200.648" y="221.40800000000002" type="line"/>
      <point x="-69.504" y="0.0" type="line"/>
      <point x="121.728" y="0.0" type="line"/>
      <point x="289.20000000000005" y="138.328" type="line"/>
      <point x="339.04" y="164.12" type="line"/>
      <point x="1034.592" y="786.28" type="line"/>
      <point x="1091.704" y="811.072" type="line"/>
      <point x="1361.28" y="1032.48" type="line"/>
    </contour>
  </outline>
</glyph>
<glyph name="thorn" format="2">
	<unicode hex="00FE"/>
	<advance width="1294.864"/>
	<outline>
		<contour>
			<point x="393.368" y="306.08" type="curve" smooth="yes"/>
			<point x="431.008" y="442.456" type="line" smooth="yes"/>
			<point x="480.736" y="622.912"/>
			<point x="657.4" y="849.208"/>
			<point x="797.176" y="849.208" type="curve" smooth="yes"/>
			<point x="876.552" y="849.208"/>
			<point x="920.712" y="801.84"/>
			<point x="920.712" y="683.944" type="curve" smooth="yes"/>
			<point x="920.712" y="414.608"/>
			<point x="751.248" y="113.744"/>
			<point x="545.248" y="113.744" type="curve" smooth="yes"/>
			<point x="437.712" y="113.744"/>
			<point x="382.976" y="167.296"/>
			<point x="382.976" y="242.392" type="curve" smooth="yes"/>
			<point x="382.976" y="259.664"/>
			<point x="385.4" y="277.784"/>
		</contour>
		<contour>
			<point x="428.656" y="664.576" type="line"/>
			<point x="752.224" y="1488.24" type="line"/>
			<point x="700.472" y="1488.24" type="line"/>
			<point x="212.744" y="1404.4" type="line"/>
			<point x="191.656" y="1316.744" type="line"/>
			<point x="248.656" y="1286.821540107"/>
			<point x="356.2" y="1229.9303957219"/>
			<point x="392.2" y="1211.032" type="curve"/>
			<point x="-60.816" y="-308.4" type="line"/>
			<point x="-200.16" y="-344.584" type="line"/>
			<point x="-227.856" y="-440.76" type="line"/>
			<point x="376.072" y="-440.76" type="line"/>
			<point x="405.616" y="-344.16" type="line"/>
			<point x="231.696" y="-307.976" type="line"/>
			<point x="370.304" y="159.056" type="line"/>
			<point x="252.648" y="159.056" type="line"/>
			<point x="266.68" y="38.456"/>
			<point x="386.552" y="-23.816"/>
			<point x="557.632" y="-23.816" type="curve" smooth="yes"/>
			<point x="932.656" y="-23.816"/>
			<point x="1234.312" y="341.096"/>
			<point x="1234.312" y="736.304" type="curve" smooth="yes"/>
			<point x="1234.312" y="928.752"/>
			<point x="1133.616" y="1056.72"/>
			<point x="939.32" y="1056.72" type="curve" smooth="yes"/>
			<point x="767.968" y="1056.72"/>
			<point x="617.872" y="943.784"/>
			<point x="458.016" y="664.576" type="curve"/>
		</contour>
	</outline>
</glyph>
<glyph name="Aogonek" format="2">
	<unicode hex="0104"/>
	<advance width="1689.144"/>
	<outline>
		<contour>
			<point x="395.224" y="437.536" type="line"/>
			<point x="1091.216" y="437.536" type="line"/>
			<point x="1151.512" y="616.184" type="line"/>
			<point x="454.944" y="616.184" type="line"/>
		</contour>
		<contour>
			<point x="1405.08" y="153.48" type="line"/>
			<point x="1290.752" y="1425.52" type="line"/>
			<point x="898.432" y="1425.52" type="line"/>
			<point x="70.52" y="152.208" type="line"/>
			<point x="-94" y="103.392" type="line"/>
			<point x="-126.696" y="0" type="line"/>
			<point x="420.624" y="0" type="line"/>
			<point x="452.32" y="103.392" type="line"/>
			<point x="296.952" y="152.208" type="line"/>
			<point x="1030.624" y="1313.952" type="line"/>
			<point x="982.696" y="1309.288" type="line"/>
			<point x="1068.544" y="152.632" type="line"/>
			<point x="887.872" y="103.392" type="line"/>
			<point x="854.752" y="0" type="line"/>
			<point x="1537.928" y="0" type="line"/>
			<point x="1570.624" y="103.392" type="line"/>
		</contour>
		<contour>
			<point x="1111.8" y="-274.832" type="curve" smooth="yes"/>
			<point x="1111.8" y="-231.984"/>
			<point x="1125.408" y="-190.496"/>
			<point x="1203.528" y="-82.768" type="curve" smooth="yes"/>
			<point x="1309.432" y="62.44" type="line"/>
			<point x="1223.712" y="62.44" type="line"/>
			<point x="1118.656" y="-44.864" type="line" smooth="yes"/>
			<point x="974.608" y="-191.344"/>
			<point x="944.912" y="-250.224"/>
			<point x="944.912" y="-328.28" type="curve" smooth="yes"/>
			<point x="944.912" y="-403.216"/>
			<point x="988.304" y="-465"/>
			<point x="1093.296" y="-465" type="curve" smooth="yes"/>
			<point x="1159.296" y="-465"/>
			<point x="1221.232" y="-448.88"/>
			<point x="1314.832" y="-393.336" type="curve"/>
			<point x="1314.832" y="-309.832" type="line"/>
			<point x="1261.256" y="-334.016"/>
			<point x="1230.952" y="-340.44"/>
			<point x="1192.376" y="-340.44" type="curve" smooth="yes"/>
			<point x="1137.68" y="-340.44"/>
			<point x="1111.8" y="-318.68"/>
		</contour>
	</outline>
</glyph>
<glyph name="aogonek" format="2">
  <advance width="1420.336"/>
  <unicode hex="0105"/>
  <outline>
    <contour>
      <point x="1387.904" y="203.92800000000003" type="curve"/>
      <point x="1338.12" y="283.98400000000004" type="line"/>
      <point x="1189.936" y="187.104"/>
      <point x="1069.048" y="164.344"/>
      <point x="939.584" y="173.22400000000002" type="curve"/>
      <point x="1003.0880000000001" y="76.0" type="line"/>
      <point x="1342.904" y="1032.48" type="line"/>
      <point x="1117.144" y="1032.48" type="line"/>
      <point x="984.6959999999999" y="844.696" type="line"/>
      <point x="937.16" y="729.472" type="line" smooth="yes"/>
      <point x="834.304" y="469.656"/>
      <point x="596.968" y="168.456"/>
      <point x="459.32" y="168.456" type="curve" smooth="yes"/>
      <point x="384.704" y="168.456"/>
      <point x="339.696" y="205.43200000000002"/>
      <point x="339.696" y="281.656" type="curve" smooth="yes"/>
      <point x="339.696" y="498.368"/>
      <point x="575.4240000000001" y="889.112"/>
      <point x="804.976" y="889.112" type="curve" smooth="yes"/>
      <point x="880.288" y="889.112"/>
      <point x="942.7520000000001" y="857.168"/>
      <point x="991.696" y="748.952" type="curve"/>
      <point x="1006.144" y="806.288" type="line"/>
      <point x="967.088" y="971.24"/>
      <point x="881.12" y="1056.72"/>
      <point x="735.9119999999999" y="1056.72" type="curve" smooth="yes"/>
      <point x="370.89599999999996" y="1056.72"/>
      <point x="37.06400000000001" y="592.8240000000001"/>
      <point x="37.06400000000001" y="244.808" type="curve" smooth="yes"/>
      <point x="37.06400000000001" y="65.304"/>
      <point x="166.568" y="-24.240000000000002"/>
      <point x="321.176" y="-24.240000000000002" type="curve" smooth="yes"/>
      <point x="480.44" y="-24.240000000000002"/>
      <point x="617.112" y="49.400000000000006"/>
      <point x="886.064" y="471.9839999999999" type="curve"/>
      <point x="914.88" y="471.9839999999999" type="line"/>
      <point x="776.688" y="121.256" type="line" smooth="yes"/>
      <point x="733.9680000000001" y="14.847999999999999"/>
      <point x="770.6" y="-24.240000000000002"/>
      <point x="889.976" y="-24.240000000000002" type="curve" smooth="yes"/>
      <point x="956.208" y="-24.240000000000002"/>
      <point x="1040.384" y="-9.392"/>
      <point x="1143.08" y="40.792" type="curve"/>
      <point x="1130.264" y="58.879999999999995" type="line"/>
      <point x="1011.64" y="-41.048" type="line" smooth="yes"/>
      <point x="836.408" y="-183.44"/>
      <point x="796.112" y="-245.984"/>
      <point x="796.112" y="-328.28" type="curve" smooth="yes"/>
      <point x="796.112" y="-403.216"/>
      <point x="839.504" y="-465.0"/>
      <point x="944.496" y="-465.0" type="curve" smooth="yes"/>
      <point x="1010.496" y="-465.0"/>
      <point x="1072.432" y="-448.88"/>
      <point x="1166.032" y="-393.336" type="curve"/>
      <point x="1166.032" y="-309.832" type="line"/>
      <point x="1112.4560000000001" y="-334.01599999999996"/>
      <point x="1082.152" y="-340.44"/>
      <point x="1043.576" y="-340.44" type="curve" smooth="yes"/>
      <point x="988.88" y="-340.44"/>
      <point x="963.0" y="-318.67999999999995"/>
      <point x="963.0" y="-274.832" type="curve" smooth="yes"/>
      <point x="963.0" y="-230.256"/>
      <point x="974.544" y="-185.832"/>
      <point x="1086.9679999999998" y="-82.376" type="curve" smooth="yes"/>
      <point x="1210.376" y="32.76" type="line" smooth="yes"/>
      <point x="1267.584" y="85.84800000000001"/>
      <point x="1328.728" y="144.87199999999999"/>
    </contour>
  </outline>
</glyph>
<glyph name="Dcroat" format="2">
	<unicode hex="0110"/>
	<advance width="1679.968"/>
	<outline>
		<contour>
			<point x="146.704" y="628.464" type="line"/>
			<point x="936.48" y="628.464" type="line"/>
			<point x="988.352" y="797.472" type="line"/>
			<point x="198.576" y="797.472" type="line"/>
		</contour>
		<contour>
			<point x="702.232" y="183.312" type="curve" smooth="yes"/>
			<point x="355.016" y="183.312" type="line"/>
			<point x="276.912" y="0" type="line"/>
			<point x="690.976" y="0" type="line" smooth="yes"/>
			<point x="1276.312" y="0"/>
			<point x="1641.112" y="348.16"/>
			<point x="1641.112" y="908.24" type="curve" smooth="yes"/>
			<point x="1641.112" y="1217.464"/>
			<point x="1476.984" y="1414"/>
			<point x="997.288" y="1414" type="curve" smooth="yes"/>
			<point x="708.912" y="1414" type="line"/>
			<point x="674.904" y="1230.688" type="line"/>
			<point x="960.128" y="1230.688" type="line" smooth="yes"/>
			<point x="1211.928" y="1230.688"/>
			<point x="1308.512" y="1119.128"/>
			<point x="1308.512" y="930.44" type="curve" smooth="yes"/>
			<point x="1308.512" y="566.896"/>
			<point x="1106.216" y="183.312"/>
		</contour>
		<contour>
			<point x="508.648" y="1260.52" type="line"/>
			<point x="168.04" y="155.176" type="line"/>
			<point x="-13.784" y="103.392" type="line"/>
			<point x="-45.632" y="0" type="line"/>
			<point x="457.392" y="0" type="line"/>
			<point x="891.512" y="1414" type="line"/>
			<point x="370.52" y="1414" type="line"/>
			<point x="339.096" y="1310.608" type="line"/>
		</contour>
	</outline>
</glyph>
<glyph name="dcroat" format="2">
	<unicode hex="0111"/>
	<advance width="1411.88"/>
	<outline>
		<contour>
			<point x="990.848" y="748.952" type="curve"/>
			<point x="1005.296" y="806.288" type="line"/>
			<point x="966.24" y="971.24"/>
			<point x="881.12" y="1056.72"/>
			<point x="735.912" y="1056.72" type="curve" smooth="yes"/>
			<point x="370.896" y="1056.72"/>
			<point x="37.064" y="592.824"/>
			<point x="37.064" y="244.808" type="curve" smooth="yes"/>
			<point x="37.064" y="65.304"/>
			<point x="166.568" y="-24.24"/>
			<point x="320.328" y="-24.24" type="curve" smooth="yes"/>
			<point x="479.592" y="-24.24"/>
			<point x="616.264" y="49.4"/>
			<point x="885.216" y="471.984" type="curve"/>
			<point x="914.032" y="471.984" type="line"/>
			<point x="776.688" y="119.56" type="line" smooth="yes"/>
			<point x="734.816" y="12.728"/>
			<point x="774.416" y="-24.24"/>
			<point x="893.792" y="-24.24" type="curve" smooth="yes"/>
			<point x="1010.92" y="-24.24"/>
			<point x="1174.512" y="20.936"/>
			<point x="1391.72" y="203.928" type="curve"/>
			<point x="1341.936" y="283.984" type="line"/>
			<point x="1193.752" y="187.104"/>
			<point x="1072.864" y="164.344"/>
			<point x="943.4" y="173.224" type="curve"/>
			<point x="1006.904" y="76" type="line"/>
			<point x="1493.016" y="1488.24" type="line"/>
			<point x="1441.264" y="1488.24" type="line"/>
			<point x="1008.44" y="1435.776" type="line"/>
			<point x="987.352" y="1348.12" type="line"/>
			<point x="1030.36" y="1326.1163636364"/>
			<point x="1098.048" y="1295.2014545455"/>
			<point x="1127.264" y="1278.448" type="curve"/>
			<point x="956.376" y="771.792" type="line" smooth="yes"/>
			<point x="861.76" y="479.448"/>
			<point x="599" y="168.456"/>
			<point x="458.472" y="168.456" type="curve" smooth="yes"/>
			<point x="383.856" y="168.456"/>
			<point x="338.848" y="205.432"/>
			<point x="338.848" y="281.656" type="curve" smooth="yes"/>
			<point x="338.848" y="498.368"/>
			<point x="574.576" y="889.112"/>
			<point x="804.128" y="889.112" type="curve" smooth="yes"/>
			<point x="879.864" y="889.112"/>
			<point x="941.48" y="858.016"/>
		</contour>
		<contour>
			<point x="790.224" y="1144.88" type="line"/>
			<point x="1568.48" y="1144.88" type="line"/>
			<point x="1605.752" y="1269.12" type="line"/>
			<point x="827.496" y="1269.12" type="line"/>
		</contour>
	</outline>
</glyph>
<glyph name="Eogonek" format="2">
	<unicode hex="0118"/>
	<advance width="1531.616"/>
	<outline>
		<contour>
			<point x="504.8" y="1260.52" type="line"/>
			<point x="164.192" y="155.176" type="line"/>
			<point x="-17.632" y="103.392" type="line"/>
			<point x="-49.48" y="0" type="line"/>
			<point x="453.544" y="0" type="line"/>
			<point x="887.664" y="1414" type="line"/>
			<point x="366.672" y="1414" type="line"/>
			<point x="335.248" y="1310.608" type="line"/>
		</contour>
		<contour>
			<point x="913.696" y="480" type="line"/>
			<point x="1058.048" y="480" type="line"/>
			<point x="1136.048" y="735" type="line"/>
			<point x="1214.048" y="990" type="line"/>
			<point x="1069.696" y="990" type="line"/>
			<point x="1002.088" y="822.296" type="line"/>
			<point x="535.904" y="822.296" type="line"/>
			<point x="482.696" y="651.704" type="line"/>
			<point x="950.304" y="651.704" type="line"/>
		</contour>
		<contour>
			<point x="1533.888" y="1020.376" type="line"/>
			<point x="1663.8" y="1495.872" type="line"/>
			<point x="1546.08" y="1495.872" type="line"/>
			<point x="1429.664" y="1414" type="line"/>
			<point x="716.088" y="1414" type="line"/>
			<point x="660.456" y="1230.688" type="line"/>
			<point x="1433.936" y="1230.688" type="line"/>
			<point x="1386.544" y="1336.488" type="line"/>
			<point x="1375.024" y="1020.376" type="line"/>
		</contour>
		<contour>
			<point x="1027.144" y="-85.144" type="line"/>
			<point x="1163.408" y="-85.144" type="line"/>
			<point x="1454.544" y="452.104" type="line"/>
			<point x="1294.104" y="452.104" type="line"/>
			<point x="940.432" y="80.48" type="line"/>
			<point x="1112.824" y="183.312" type="line"/>
			<point x="340.568" y="183.312" type="line"/>
			<point x="284.088" y="0" type="line"/>
			<point x="990.84" y="0" type="line"/>
		</contour>
		<contour>
			<point x="853.456" y="-274.832" type="curve" smooth="yes"/>
			<point x="853.456" y="-231.984"/>
			<point x="864.12" y="-197.496"/>
			<point x="953.808" y="-91.616" type="curve" smooth="yes"/>
			<point x="1087.304" y="62.44" type="line"/>
			<point x="1001.584" y="62.44" type="line"/>
			<point x="869.632" y="-52.016" type="line" smooth="yes"/>
			<point x="711.472" y="-188.896"/>
			<point x="686.568" y="-245.136"/>
			<point x="686.568" y="-328.28" type="curve" smooth="yes"/>
			<point x="686.568" y="-403.216"/>
			<point x="729.96" y="-465"/>
			<point x="834.952" y="-465" type="curve" smooth="yes"/>
			<point x="900.952" y="-465"/>
			<point x="962.888" y="-448.88"/>
			<point x="1056.488" y="-393.336" type="curve"/>
			<point x="1056.488" y="-309.832" type="line"/>
			<point x="1002.912" y="-334.016"/>
			<point x="972.608" y="-340.44"/>
			<point x="934.032" y="-340.44" type="curve" smooth="yes"/>
			<point x="879.336" y="-340.44"/>
			<point x="853.456" y="-318.68"/>
		</contour>
	</outline>
</glyph>
<glyph name="eogonek" format="2">
	<unicode hex="0119"/>
	<advance width="1142.072"/>
	<outline>
		<contour>
			<point x="911.432" y="192.264" type="line" smooth="yes"/>
			<point x="949.704" y="240.808"/>
			<point x="982.552" y="295.928"/>
			<point x="1015.248" y="365.712" type="curve"/>
			<point x="909.704" y="365.712" type="line"/>
			<point x="818.248" y="231.672"/>
			<point x="707.456" y="180.152"/>
			<point x="577.88" y="180.152" type="curve" smooth="yes"/>
			<point x="425.704" y="180.152"/>
			<point x="371.184" y="237.152"/>
			<point x="371.184" y="418.064" type="curve" smooth="yes"/>
			<point x="371.184" y="743.768"/>
			<point x="543.832" y="918.216"/>
			<point x="726.184" y="918.216" type="curve" smooth="yes"/>
			<point x="811.92" y="918.216"/>
			<point x="853.896" y="871.816"/>
			<point x="853.896" y="797.656" type="curve" smooth="yes"/>
			<point x="853.896" y="682.752"/>
			<point x="837.504" y="652.296"/>
			<point x="312.696" y="558.936" type="curve"/>
			<point x="305.696" y="456.12" type="line"/>
			<point x="534.504" y="477.696"/>
			<point x="803.768" y="518.304"/>
			<point x="1050.64" y="582.064" type="curve"/>
			<point x="1090.728" y="654.024"/>
			<point x="1110.336" y="731.176"/>
			<point x="1110.336" y="800.6" type="curve" smooth="yes"/>
			<point x="1110.336" y="943.024"/>
			<point x="1015.648" y="1056.72"/>
			<point x="771.184" y="1056.72" type="curve" smooth="yes"/>
			<point x="341.016" y="1056.72"/>
			<point x="73.672" y="738.096"/>
			<point x="73.672" y="341.84" type="curve" smooth="yes"/>
			<point x="73.672" y="103.448"/>
			<point x="203.056" y="-24.24"/>
			<point x="469.856" y="-24.24" type="curve" smooth="yes"/>
			<point x="564.664" y="-24.24"/>
			<point x="652.808" y="-6.696"/>
			<point x="733.56" y="36.816" type="curve"/>
			<point x="708.08" y="68.144" type="line"/>
			<point x="641.184" y="-5.088" type="line" smooth="yes"/>
			<point x="485.192" y="-168.872"/>
			<point x="441.264" y="-244.288"/>
			<point x="441.264" y="-328.28" type="curve" smooth="yes"/>
			<point x="441.264" y="-403.216"/>
			<point x="484.656" y="-465"/>
			<point x="589.648" y="-465" type="curve" smooth="yes"/>
			<point x="655.648" y="-465"/>
			<point x="717.584" y="-448.88"/>
			<point x="811.184" y="-393.336" type="curve"/>
			<point x="811.184" y="-309.832" type="line"/>
			<point x="757.608" y="-334.016"/>
			<point x="727.304" y="-340.44"/>
			<point x="688.728" y="-340.44" type="curve" smooth="yes"/>
			<point x="634.032" y="-340.44"/>
			<point x="608.152" y="-318.68"/>
			<point x="608.152" y="-274.832" type="curve" smooth="yes"/>
			<point x="608.152" y="-231.984"/>
			<point x="629.48" y="-164.384"/>
			<point x="723.056" y="-45.84" type="curve" smooth="yes"/>
		</contour>
	</outline>
</glyph>
<glyph name="Hbar" format="2">
	<unicode hex="0126"/>
	<advance width="1826.368"/>
	<outline>
		<contour>
			<point x="472.216" y="629.616" type="line"/>
			<point x="1428.216" y="629.616" type="line"/>
			<point x="1477.576" y="812.928" type="line"/>
			<point x="522.576" y="812.928" type="line"/>
		</contour>
		<contour>
			<point x="253.976" y="983.976" type="line"/>
			<point x="1864.4" y="983.976" type="line"/>
			<point x="1916.272" y="1152.984" type="line"/>
			<point x="305.848" y="1152.984" type="line"/>
		</contour>
		<contour>
			<point x="507.648" y="1260.52" type="line"/>
			<point x="167.04" y="155.176" type="line"/>
			<point x="-14.784" y="103.392" type="line"/>
			<point x="-46.632" y="0" type="line"/>
			<point x="641.064" y="0" type="line"/>
			<point x="671.488" y="103.392" type="line"/>
			<point x="502.936" y="153.48" type="line"/>
			<point x="843.544" y="1258.824" type="line"/>
			<point x="1025.368" y="1310.608" type="line"/>
			<point x="1055.792" y="1414" type="line"/>
			<point x="369.52" y="1414" type="line"/>
			<point x="338.096" y="1310.608" type="line"/>
		</contour>
		<contour>
			<point x="1438.008" y="1260.52" type="line"/>
			<point x="1097.824" y="155.176" type="line"/>
			<point x="915.576" y="103.392" type="line"/>
			<point x="885.152" y="0" type="line"/>
			<point x="1571.424" y="0" type="line"/>
			<point x="1603.272" y="103.392" type="line"/>
			<point x="1433.296" y="153.48" type="line"/>
			<point x="1773.904" y="1258.824" type="line"/>
			<point x="1955.728" y="1310.608" type="line"/>
			<point x="1986.576" y="1414" type="line"/>
			<point x="1299.88" y="1414" type="line"/>
			<point x="1269.456" y="1310.608" type="line"/>
		</contour>
	</outline>
</glyph>
<glyph name="iogonek" format="2">
	<unicode hex="012F"/>
	<advance width="840.552"/>
	<outline>
		<contour>
			<point x="490.24" y="1313.944" type="curve" smooth="yes"/>
			<point x="490.24" y="1236.344"/>
			<point x="550.808" y="1191.648"/>
			<point x="681.728" y="1191.648" type="curve" smooth="yes"/>
			<point x="849.032" y="1191.648"/>
			<point x="915.152" y="1265.16"/>
			<point x="915.152" y="1365.944" type="curve" smooth="yes"/>
			<point x="915.152" y="1443.544"/>
			<point x="854.584" y="1488.24"/>
			<point x="723.664" y="1488.24" type="curve" smooth="yes"/>
			<point x="556.36" y="1488.24"/>
			<point x="490.24" y="1414.728"/>
		</contour>
		<contour>
			<point x="586.008" y="64.176" type="line" smooth="yes"/>
			<point x="656.28" y="108.784"/>
			<point x="720.64" y="151.904"/>
			<point x="781.056" y="198.352" type="curve"/>
			<point x="729.696" y="282.832" type="line"/>
			<point x="592.544" y="196.376"/>
			<point x="474.448" y="172.8"/>
			<point x="337.624" y="182.616" type="curve"/>
			<point x="409.968" y="87.544" type="line"/>
			<point x="713.76" y="842.84" type="line" smooth="yes"/>
			<point x="775.176" y="993.944"/>
			<point x="744.448" y="1056.72"/>
			<point x="590.088" y="1056.72" type="curve" smooth="yes"/>
			<point x="463.96" y="1056.72"/>
			<point x="300.152" y="1012.304"/>
			<point x="39.04" y="808.16" type="curve"/>
			<point x="96.248" y="724.104" type="line"/>
			<point x="266.128" y="834.344"/>
			<point x="379.984" y="860.528"/>
			<point x="511.264" y="853.68" type="curve"/>
			<point x="449.096" y="945.36" type="line"/>
			<point x="145.728" y="189.64" type="line" smooth="yes"/>
			<point x="77.616" y="21.872"/>
			<point x="113.912" y="-24.24"/>
			<point x="243.288" y="-24.24" type="curve" smooth="yes"/>
			<point x="288.736" y="-24.24"/>
			<point x="337.912" y="-18.816"/>
			<point x="391.968" y="-5.544" type="curve"/>
			<point x="383.576" y="8.696" type="line"/>
			<point x="279.536" y="-51.92" type="line" smooth="yes"/>
			<point x="81.76" y="-160.68"/>
			<point x="37.92" y="-246.832"/>
			<point x="37.92" y="-328.28" type="curve" smooth="yes"/>
			<point x="37.92" y="-403.216"/>
			<point x="81.312" y="-465"/>
			<point x="186.304" y="-465" type="curve" smooth="yes"/>
			<point x="252.304" y="-465"/>
			<point x="314.24" y="-448.88"/>
			<point x="407.84" y="-393.336" type="curve"/>
			<point x="407.84" y="-309.832" type="line"/>
			<point x="354.264" y="-334.016"/>
			<point x="323.96" y="-340.44"/>
			<point x="285.384" y="-340.44" type="curve" smooth="yes"/>
			<point x="230.688" y="-340.44"/>
			<point x="204.808" y="-318.68"/>
			<point x="204.808" y="-274.832" type="curve" smooth="yes"/>
			<point x="204.808" y="-210.8"/>
			<point x="242.808" y="-152.312"/>
			<point x="357.68" y="-80.04" type="curve" smooth="yes"/>
		</contour>
	</outline>
</glyph>
<glyph name="dotlessi" format="2">
	<unicode hex="0131"/>
	<advance width="836.128"/>
	<outline>
		<contour>
			<point x="145.728" y="189.64" type="line" smooth="yes"/>
			<point x="77.616" y="21.872"/>
			<point x="113.912" y="-24.24"/>
			<point x="243.288" y="-24.24" type="curve" smooth="yes"/>
			<point x="383.688" y="-24.24"/>
			<point x="557.792" y="26.056"/>
			<point x="781.056" y="198.352" type="curve"/>
			<point x="729.696" y="282.832" type="line"/>
			<point x="592.544" y="196.376"/>
			<point x="474.448" y="172.8"/>
			<point x="337.624" y="182.616" type="curve"/>
			<point x="409.968" y="87.544" type="line"/>
			<point x="713.76" y="842.84" type="line" smooth="yes"/>
			<point x="775.176" y="993.944"/>
			<point x="744.448" y="1056.72"/>
			<point x="590.088" y="1056.72" type="curve" smooth="yes"/>
			<point x="463.96" y="1056.72"/>
			<point x="300.152" y="1012.304"/>
			<point x="39.04" y="808.16" type="curve"/>
			<point x="96.248" y="724.104" type="line"/>
			<point x="266.128" y="834.344"/>
			<point x="379.984" y="860.528"/>
			<point x="511.264" y="853.68" type="curve"/>
			<point x="449.096" y="945.36" type="line"/>
		</contour>
	</outline>
	<anchor name="top" x="601.176" y="1035.936"/>
	<anchor name="right" x="488.72" y="0"/>
	<anchor name="bottom" x="263.384" y="0"/>
</glyph>
<glyph name="Lslash" format="2">
	<unicode hex="0141"/>
	<advance width="1414.944"/>
	<outline>
		<contour>
			<point x="866.24" y="1258.824" type="line"/>
			<point x="1048.064" y="1310.608" type="line"/>
			<point x="1078.488" y="1414" type="line"/>
			<point x="392.216" y="1414" type="line"/>
			<point x="360.792" y="1310.608" type="line"/>
			<point x="530.344" y="1260.52" type="line"/>
			<point x="189.736" y="155.176" type="line"/>
			<point x="7.912" y="103.392" type="line"/>
			<point x="-23.936" y="0" type="line"/>
			<point x="479.088" y="0" type="line"/>
		</contour>
		<contour>
			<point x="878.736" y="91.2" type="line"/>
			<point x="1022.448" y="183.312" type="line"/>
			<point x="239.592" y="183.312" type="line"/>
			<point x="183.112" y="0" type="line"/>
			<point x="923.36" y="0" type="line"/>
			<point x="976.624" y="-85.144" type="line"/>
			<point x="1112.888" y="-85.144" type="line"/>
			<point x="1362.568" y="504.4" type="line"/>
			<point x="1201.28" y="504.4" type="line"/>
		</contour>
		<contour>
			<point x="1124.76" y="1012.2" type="line"/>
			<point x="641.712" y="787.96" type="line"/>
			<point x="505.216" y="777.56" type="line"/>
			<point x="165.552" y="620.664" type="line"/>
			<point x="106.256" y="427.536" type="line"/>
			<point x="446.496" y="584.432" type="line"/>
			<point x="582.416" y="594.832" type="line"/>
			<point x="1066.04" y="819.072" type="line"/>
		</contour>
	</outline>
</glyph>
<glyph name="lslash" format="2">
	<unicode hex="0142"/>
	<advance width="911.104"/>
	<outline>
		<contour>
			<point x="97.704" y="584.768" type="line"/>
			<point x="47.888" y="420.744" type="line"/>
			<point x="345.608" y="591.288" type="line"/>
			<point x="426.352" y="573.992" type="line"/>
			<point x="843.168" y="814.824" type="line"/>
			<point x="892.984" y="978.848" type="line"/>
			<point x="476.592" y="738.016" type="line"/>
			<point x="396.424" y="755.312" type="line"/>
		</contour>
		<contour>
			<point x="461.536" y="1211.032" type="curve"/>
			<point x="141.4" y="187.944" type="line" smooth="yes"/>
			<point x="91.344" y="29.048"/>
			<point x="130" y="-24.24"/>
			<point x="244.536" y="-24.24" type="curve" smooth="yes"/>
			<point x="384.936" y="-24.24"/>
			<point x="548.864" y="21.392"/>
			<point x="782.304" y="202.592" type="curve"/>
			<point x="731.368" y="286.648" type="line"/>
			<point x="591.672" y="201.04"/>
			<point x="468.912" y="175.344"/>
			<point x="332.088" y="187.28" type="curve"/>
			<point x="403.552" y="79.912" type="line"/>
			<point x="847" y="1488.24" type="line"/>
			<point x="795.248" y="1488.24" type="line"/>
			<point x="282.08" y="1404.4" type="line"/>
			<point x="260.992" y="1316.744" type="line"/>
			<point x="317.992" y="1286.821540107"/>
			<point x="425.536" y="1229.9303957219"/>
		</contour>
	</outline>
</glyph>
